<svg xmlns="http://www.w3.org/2000/svg" viewBox="0 0 223 50" preserveAspectRatio="none"><path d="M220.96045,39.41712c.00511-.00591.16028-.01421.2484-.02067.115.001.23.003.344.004l-.42671.03755a.92056.92056,0,0,1-.16567-.02089Zm.14718.01307.18949-.0267.10759.02488Zm-.22547,7.04814.00931-.13186a2.81134,2.81134,0,0,1,.4698.07221c.10062.02276-.13108.06072-.47911.05965Zm-12.72686.8633c-.21905.00118-.41741-.03729-.40165-.31005l.73588.01384c-.12023.12592-.25371.2106-.33423.29621Zm-48.22444-.72353c-.00085-.18-.00173-.35908-.00159-.53911l.403.007c-.07361.26375-.31063.26162-.40136.53207Zm-44.87722-.92335.02552-.2586.13026.1583Zm-8.06762-.23484c.01454-.03075.03009-.06248.04563-.09321l.234.00408c.00432.03908.00964.07818.015.11728-.09786-.00871-.19673-.01744-.29455-.02815Zm-4.8022.0267-.12786-.18126.16095-.11021Zm-1.11227-.05142.027-.22756.09751.14372Zm-3.03984.03245c-.0275-.08649-.056-.172-.08252-.25748.03583-.04738.07266-.09475.11048-.14109l.259.00452a.2154.2154,0,0,1,.006.05811,3.65975,3.65975,0,0,1-.29291.33594Zm-19.67117-.51671c-.08631.13152-.195.39666-.25239.36365-.08318-.04746-.1286-.31029-.19058-.4844A1.77282,1.77282,0,0,1,78.14,44.524l.047.00082c.07106.05525.11615.27907.1736.42609Zm.5885,1.06516a1.9432,1.9432,0,0,1,.24476-.15575c.03025-.01447.06481.06814.09715.10671-.11333.018-.22663.03405-.34191.049Zm-7.88794.25206c-.07237-.15129-.20971-.30471-.19929-.44355.03646-.48443.20871-.61145.374-.39653a2.2546,2.2546,0,0,1,.14264.59458c-.10443.08119-.20986.16236-.31733.2455Zm-7.914-.39077c-.04033-.03871-.11763-.07906-.115-.116a1.8259,1.8259,0,0,1,.07262-.32078c.0383.03967.11169.076.10994.11893a1.75964,1.75964,0,0,1-.06757.31787Zm-3.09688-.14907.01829-.24572.12663.13723ZM44.09436,46.41l-.0621-.16711.15573.01672Zm-4.49173.23136c.19533-1.05176.61462-.58137.935-.7688a1.47123,1.47123,0,0,1,.07334.29832q-.50367.23425-1.00837.47048Zm-1.616-1.1606q.10354-.25923.20607-.51748c.02218.16141.04435.32382.06654.48523-.09023.01243-.18043.02286-.27261.03225Zm-6.70548-.46055c-.10271.09723-.20541.19345-.3081.28967.055-.62814.187-.3988.3081-.28967Zm-5.161.27023a2.94443,2.94443,0,0,1-.14993-.46369c.11971-.03992.22232-.07413.32592-.10733-.00509.17694-.00223.357-.02325.52968-.00357.03294-.12664.0928-.15274.04134Zm-1.11824-.16784c-.04689-.00682-.08046-.14643-.12108-.22615a1.16059,1.16059,0,0,1,.36447-.02364c.05084.00989.08865.13557.1324.20734a1.43111,1.43111,0,0,1-.37579.04245Zm-1.9371.16052c-.06718-.1622-.13254-.31436-.19889-.46654.10514-.06418.22788-.22006.313-.16857.09006.05458.14367.30656.2138.47181-.109.0541-.21794.10921-.3279.1633ZM2.69315,9.58979l.101-.00124-.00142.024ZM95.95225,2.1757a.877.877,0,0,1,.03792.11968l-.203-.00354-.00552-.08511c.05824-.013.13953-.08658.17057-.031Zm5.01174.001c.01361.08025.03749.20169.04925.2729l-.25994-.00554c.07056-.08878.14014-.17858.21069-.26736Zm8.03407.46729-.23394-.00509.18462-.37783c.01678.12731.03254.2556.04932.38292Zm28.97146.16964-.02807.28956-.14813-.16561Zm14.93418.29169.113.23c-.09349-.03063-.187-.05927-.28049-.08991.05582-.046.11164-.09306.16748-.14009Zm10.17281.27108a.88278.88278,0,0,1-.00861.3789l-.40193-.008-.0025-.71615c.1431.11051.38175.13268.413.34526Zm3.87371-.17792c.00991.17619.0198.35439.0307.53261-.07218-.10527-.14337-.20953-.21455-.31379l.18385-.21882Zm10.90321-.834c.05356.14.10612.27989.15969.41985-.053.05908-.11092.16709-.15782.16027-.03592-.00463-.05927-.15706-.08875-.24359.02894-.11151.05891-.224.08688-.33653Zm1.10584,1.16409-.03507.29043-.13275-.18634Zm8.9613.26244c.13194.06131.26415.10862.39719.164l-.47091-.00922c.03266-.03744.06521-.06888.0979-.10831-.17224-.044-.34551-.088-.51774-.13306.16352.02886.326.0587.49356.08663Zm13.02757.3136c.13907.03043.28.05789.42.08734L196.369,4.09575a13.09388,13.09388,0,0,1,4.57911.00892Zm7.01907-.23273c-.01913-.00233-.03828-.00367-.05824-.006a4.0418,4.0418,0,0,0,.4536.705L206.36294,4.532a6.66984,6.66984,0,0,0,1.57225-.73567c.01126.0232.02162.05039.032.07557Zm3.074-.07329c.17888-.1059.40608.17111.27615.5669a.831.831,0,0,1-.20677.32944l-.73487-.01382a.68736.68736,0,0,1,.0283-.18954,1.26849,1.26849,0,0,1,.63719-.693Zm10.12188,32.655.00411-.06293c.096-.00233.19211-.00465.28718-.008a1.247,1.247,0,0,1-.29129.07092Zm.01146.94785.01-.00182c.07486.0083.14974.01561.22561.02394-.07907.00262-.15911.00522-.2382.00884Zm-.1966,8.0833.00948-.14186c.10639.03587.20379.07157.33619.10689-.024.00258-.05012.00612-.07716.00865l.0072-.01187c-.10022.01225-.18748.02573-.27571.03819Zm.33713-11.09181.14461.02353-.23246.02495c.02926-.01549.05856-.032.08785-.04848ZM1.79165,9.60406l-.345-.004c.14226-.01351.2855-.026.42774-.03854a.922.922,0,0,1,.16566.0209c-.00612.00689-.16127.01419-.24841.02167ZM221.306,46.50323c2.08792-.90584.65631-1.75333,1.2097-2.63905.39624-.63392-.77887-1.23338-.537-1.871a8.50006,8.50006,0,0,0,.51791-2.11111c.09014-.8349-.33022-1.65876.14523-2.50191.4042-.71763-1.34874-1.35911-.52809-2.09942,1.12853-1.01542.7355-2.00849.33011-2.99079a6.36552,6.36552,0,0,1-.35892-2.48177c-.00605-1.00328-.27954-2.00125.47623-3.02917.73913-1.00524-.19548-1.97582.143-2.97808.03514-.1042-.16962-.19861-1.23762-.18431l.00137-.03192c1.03559-.06677,1.70078-.141,1.19737-.30351-.43635-.14037-.42889-.33489-.21292-.51079,1.065-.8688.0033-1.67889.00576-2.51833.003-1.19378-.47373-2.375-.4065-3.57261.03733-.64917.62586-1.31267-.02211-1.94486-.01918-.0183-.03431-.03653-.05269-.05482l.16962-2.96664a2.71018,2.71018,0,0,0,.29478-1.10683,16.157,16.157,0,0,0-.13791-1.64243l.11585-2.02829c.01724-.05659.02716-.11232.04765-.16886a.83731.83731,0,0,0-.00664-.55111l.06075-1.059-1.441-.02914a1.11062,1.11062,0,0,0,.05616-.51708,1.79746,1.79746,0,0,0-.23849-.86161c-.1601-.13854-.29177.18956-.29085.88132.0394.11647.08358.33285.14174.49158l-1.86588-.03656c.07075-.09659.142-.17719.21227-.28976.20224-.32088.64129-.3811.58728-1.24447-.06275-1.01326-.4149-.01922-.62647-.09478-2.47757-.88572-5.0475,1.23848-7.5961-.32624-4.13086-2.53463-8.663-.841-12.99506-1.53146-3.10277-.49536-6.34493.89742-9.49564.58788q-5.23224-.51506-10.48591-.68512c-4.1736-.13274-8.38631.34672-12.525-.25056-3.51942-.50663-7.08572,1.57822-10.63379.571-4.87332-1.3847-9.93209-.943-14.94159-.4854-4.18745.38208-8.36242.37509-12.51929.35543-5.03362-.023-10.094.275-15.10021-.66285-4.89934-.918-9.95486.17461-14.90975-.26125-.57524-.051-1.15389.2334-1.21181,1.92232l-.07878-.00237C96.43592,1.203,96.25231.13071,95.23466.7987a3.0531,3.0531,0,0,1-2.60611.24C88.48273-.26643,84.20536.9845,79.99825.956c-5.98892-.03965-12.01148.498-18.00067.38054-3.25169-.06375-6.46581-.79063-9.76518-.03171-.81261.18745-1.62952.34189-2.4451.4664L41.154,1.60255a73.973,73.973,0,0,0-9.5474-.91629C25.19022.65012,18.741,1.14544,12.34994.53979A34.29277,34.29277,0,0,0,5.79725.90953L3.44968.86256A1.49668,1.49668,0,0,0,2.87145.84349c-.03091.00145-.06266.00489-.09438.00634L2.613.847,2.61189.86291a3.37157,3.37157,0,0,0-.456.05593c-.09233.02933.07967.04431.45116.03682l-.01266.21339a4.14856,4.14856,0,0,0-.59723-.00144c-.84184.04619-.01284.08362-.07536.12745-.72422.52338,1.05578.96471-.233,1.52416C-.4,3.725,1.03248,4.57155.47909,5.45727c-.39624.63392.77887,1.23338.537,1.871A8.4734,8.4734,0,0,0,.49732,9.44035c-.08933.83492.331,1.65777-.14524,2.50191-.4042.71763,1.34874,1.35912.52812,2.09842C-.24754,15.05712.14467,16.05017.55089,17.03249a6.394,6.394,0,0,1,.35893,2.48077c.00524,1.00327.27872,2.00123-.477,3.02915-.73915,1.00625.19546,1.97683-.14218,2.9781-.0317.09328.12855.17693.902.18544L1.19,25.7608c-.83317.06132-1.30742.13689-.86137.28043.43716.14039.42891.3339.21292.5108-1.06422.86881-.0033,1.67889-.005,2.51833a15.799,15.799,0,0,0,.32818,2.38042L.7525,33.41425a1.29244,1.29244,0,0,0-.04335.76085l-.523,9.15522.43864.00865c.09388.20827.21214.416.29221.624.03032.07839.24658.165.87831.192a3.09757,3.09757,0,0,0-.32335,1.3c-.09879,1.60934.53552,1.06942.98949,1.17816,1.95513.46334,3.96229-.8901,5.91471-.69032,3.71668.3793,7.40006,1.2691,11.19212.402.71633-.16417,1.52-.771,2.1439-.43471,2.87148,1.54839,5.9013.35754,8.82948.84586.56151.09265.5968-.90492.08288-1.3501.91712-1.98436.57934,2.46964,1.31971,1.48638,1.1804-1.56552,2.36155-.52076,3.51054-1.07866.35636-1.04986.74087-2.03634,1.02945-.2735.235,1.4365.60457.04649.898.13546l.00513-.01488c.55963,1.64379,1.29444,1.86324,2.15237,1.08167.0027-.01493.00527-.02287.00714-.03681,1.0617,1.69648,2.33747.90523,3.54167.76854,1.57223-.17819,3.2127-1.47315,4.71877-1.39894,1.83162.09086,3.64983.76343,5.51417.237,1.52219-.4306,3.38879-1.22651,4.44205-.164,1.6322,1.64655,3.27287-.07862,4.85034.79238,1.29661.71537,2.8801.12414,4.34.00189a60.40987,60.40987,0,0,1,7.50874-.34806c1.40557.05847,2.76968.95669,4.21642-.6451.2769.989.6798,1.22965,1.17681,1.10757,4.44024-1.08439,8.806-.555,13.184-.3079q-.04332-.80029-.08582-1.60059l.16407.00386a4.40742,4.40742,0,0,1-.08062,1.63961,7.07351,7.07351,0,0,1,1.17416-.6962c-.02695-.31789-.05-.62873-.07489-.92363l.078.00136c-.00824.23942-.00641.507.00788.80567.22869,1.60908.87729,1.41477,1.31981,1.2009,1.81848-.87861,3.56368-.352,5.33777-.364,1.72615-.01179,3.44905.44251,5.20429-1.23575l0-.001c.32189,1.53084.95374,1.13162,1.48644.91932,2.60623-1.03854,5.01206.931,7.58138.75021,2.38383-.168,4.83237-1.11048,7.18575.18632,1.31513.72468,2.83689-.28687,4.24985-.23226,3.05.11812,6.12943-.5618,9.18338-.29588a44.51212,44.51212,0,0,0,7.19786.00486c4.96089-.37357,9.87585.44189,14.80907.76857q.11574-.555.23142-1.108c.00915.36051.01909.722.029,1.08255.46658-.14858.934-.29913,1.40142-.44768-.0003-.03-.00061-.05891-.00008-.08884,1.40864-.25691,2.78987.35813,4.21617-.58422l.0528.00093c-.0002.012.00119.025.001.03695,1.27216.85868,2.63069.26053,3.95294.29758.95677.02668,1.89035.59,2.84874.47795a40.48192,40.48192,0,0,1,10.1349.59015c1.229.16619,2.57328.84945,3.87961-.99435l.38016.00763a9.4249,9.4249,0,0,0,5.283.769c1.28584-.11131,2.57467-.39426,3.8628-.59038l4.53434.08913a9.40677,9.40677,0,0,0,5.20937.10191l1.94792.038c.95567,1.20752,2.12745.92652,3.12256,1.82928.56394.51193.86579-.25439,1.21416-1.21855.22225-.16382.49454-.726.6744.14253a2.10325,2.10325,0,0,1-.6744-.14253c.05975,1.5113.1934,2.65356.88982,1.0227a4.80609,4.80609,0,0,0,2.05058.20848c1.14709-.35529,2.32438-.11415,3.43568-1.632l1.86508.03655a.40334.40334,0,0,0,.1017.17945c.05783.038.12831.00424.18667-.08058.14464.13927.42429.27292,1.34805.37489a3.23056,3.23056,0,0,0,1.03881.075c.84182-.0452.01362-.08262.07536-.12745.725-.52238-1.055-.9647.23378-1.52315Z" style="fill:#f1f7ef;fill-rule:evenodd"/></svg>