<svg width="1550" height="32" viewBox="0 0 1550 32" fill="none" xmlns="http://www.w3.org/2000/svg">
<path d="M0 32V14.9C10.0234 14.558 20.0623 14.3234 30.0805 14.5023C45.3275 14.7568 60.5641 15.5641 75.8007 16.1726C85.5502 16.5703 95.3153 16.8446 105.034 17.5088L160 17.4292C160 17.4292 189.747 23.3585 202.716 23.963C224.622 24.985 247.073 16.7889 269 17.5088C288.757 18.1529 307.992 27.7528 327.765 27.9517C337.535 28.0511 347.331 27.7528 357.091 27.3074C373.325 26.5638 376.782 22.7898 393 21.8553C404.367 21.2031 421.69 14.6018 433 13.7308C454.044 12.1123 481.852 18.9404 502.911 17.4292C522.963 15.9896 543.056 14.8483 563.145 13.7308C576.537 12.9832 589.949 12.5378 603.357 11.9095C616.274 11.321 629.191 10.6448 642.107 10.1279C659.989 9.41211 677.882 8.89117 695.758 8.1157C706.691 7.63849 717.608 6.89478 728.526 6.17101C736.632 5.63415 744.718 4.89847 752.809 4.31788C764.94 3.44699 777.093 2.50848 789.224 1.8364C801.955 1.1365 814.727 0.846208 827.458 0.126372C833.89 -0.239495 840.281 0.102496 845.841 2.30959C849.654 3.82475 853.022 4.81495 857.347 4.69564C863.227 4.54853 869.142 4.97404 875.032 5.25244C883.118 5.65006 891.194 6.30229 899.285 6.50512C909.019 6.74372 918.769 6.60448 928.513 6.67611C930.146 6.67611 932.13 6.19094 933.416 8.07189L929.546 9.26491C935.348 10.9789 938.583 11.0823 944.318 10.0166C948.069 9.32063 951.815 8.82356 955.685 9.65868C958.214 10.2126 960.811 10.5631 963.435 10.7045C971.758 11.1022 980.092 11.2812 988.416 11.6231C993.438 11.826 998.444 12.3032 1003.47 12.3708C1005.14 12.3947 1007.6 13.7984 1008.67 11.3806C1008.74 11.2215 1009.83 11.0863 1010.14 11.2613C1014.79 13.9495 1019.4 11.9175 1023.8 10.9471C1027.64 10.0961 1031.28 9.69043 1035.17 10.3546C1036.49 10.5813 1038.84 10.8318 1039.13 10.4142C1040.85 7.96054 1043.66 8.84735 1046.07 8.82356C1050.26 8.76785 1054.95 8.02815 1058.5 9.22118C1063.38 10.8556 1068.11 11.3964 1073.24 11.5874C1082.99 11.9453 1092.73 12.6452 1102.48 13.1065C1105.47 13.2456 1108.5 12.9196 1111.5 13.0588C1124.06 13.6314 1136.62 14.3949 1149.19 14.896C1155.27 15.1386 1161.38 14.9238 1167.48 15.0074C1168.81 15.0272 1170.39 15.1744 1171.41 15.7391C1174.62 17.5286 1177.93 17.7076 1181.61 16.9043C1185.29 16.1009 1189.03 15.0869 1192.82 14.8642C1200.89 14.3949 1208.84 12.7804 1217.1 13.536C1221.66 13.9336 1226.34 13.6553 1230.96 13.5996C1239.62 13.4922 1248.28 13.0906 1256.92 13.2417C1269.13 13.4604 1281.27 13.2775 1293.39 12.0885C1298 11.635 1302.72 11.6908 1307.29 11.0982C1325.35 8.7045 1343.63 7.50705 1361.95 7.51919C1363.98 7.51919 1366.09 7.56292 1368.03 7.24079C1375.32 6.04776 1382.54 6.72781 1389.8 7.38397C1392.42 7.64202 1395.07 7.60723 1397.68 7.28058C1402.9 6.58512 1408.26 6.81773 1413.35 7.96054C1415.67 8.52095 1418.07 8.82101 1420.5 8.85137C1425.78 8.79476 1431.05 8.52268 1436.29 8.03611C1441.62 7.51123 1447.19 9.78192 1452.35 7.17318C1452.91 6.89084 1453.99 7.04198 1454.76 7.19706C1462.69 8.7877 1470.64 8.91496 1478.78 8.03217C1482.91 7.58278 1487.23 8.07985 1491.47 8.03217C1498.55 7.9246 1505.62 8.53433 1512.5 9.84559C1519.06 11.0863 1526.13 10.6926 1532.98 11.0664C1534.59 11.1578 1536.18 11.4641 1537.79 11.635C1541.86 12.0487 1545.93 12.4464 1550 12.8281V32H0Z" fill="#00010F"/>
</svg>
