<svg width="49" height="48" viewBox="0 0 49 48" fill="none" xmlns="http://www.w3.org/2000/svg">
<path d="M23.1551 23.3274C23.3496 22.5405 23.463 21.9011 23.6737 21.2782C25.7802 14.9831 29.1667 9.37655 33.0232 4.04867C33.4769 3.42572 34.0441 2.83556 34.676 2.44211C35.0163 2.229 35.6968 2.26179 36.0857 2.4749C36.3774 2.63884 36.588 3.27818 36.5232 3.63883C36.4098 4.32735 36.1667 5.03228 35.8264 5.65522C33.5903 9.77 31.338 13.8683 29.0533 17.9503C28.1945 19.4749 27.2871 20.9831 26.3959 22.4913C26.1042 22.9995 25.7801 23.4913 25.4398 23.9503C25.0672 24.4749 24.5001 24.7864 23.9329 24.4421C23.5602 24.2126 23.1551 24.0487 23.1551 23.3274Z" fill="black"/>
<path d="M46.0997 47.7376C45.3219 47.6066 44.4142 47.5082 43.5392 47.3115C40.0878 46.5246 36.6366 45.7377 33.2014 44.9182C32.4561 44.7376 31.7269 44.4264 31.0626 44.0656C30.1713 43.5903 29.8635 42.9179 30.0093 42.1802C30.1552 41.4425 30.7385 40.9837 31.7593 40.9672C32.4561 40.9507 33.2014 40.9672 33.8658 41.1313C38.2246 42.2459 42.5833 43.3936 46.9261 44.5574C47.4122 44.6884 47.9142 44.9182 48.2872 45.2459C49.2267 46.0493 48.9351 47.3115 47.7361 47.6231C47.2663 47.7376 46.7316 47.6884 46.0997 47.7376Z" fill="black"/>
<path d="M0.567151 3.78661C0.631967 3.01612 0.794006 2.24563 0.98845 1.49153C1.16669 0.8194 1.62039 0.343992 2.34956 0.278418C2.9653 0.229238 3.62965 0.85219 3.72687 1.67186C3.8565 2.77022 3.96994 3.88498 3.92133 4.98334C3.77548 8.29483 3.56484 11.6227 3.33798 14.9342C3.25697 16.0325 3.11113 17.1309 2.93289 18.2293C2.86808 18.6063 2.73845 18.9997 2.5278 19.2948C1.96067 20.1309 0.923634 20.0653 0.51854 19.1637C0.29169 18.6555 0.194468 18.0325 0.194468 17.4751C0.11345 15.6391 0.356505 6.50793 0.567151 3.78661Z" fill="black"/>
</svg>
