<svg width="1920" height="1080" viewBox="0 0 1920 1080" fill="none" xmlns="http://www.w3.org/2000/svg">
<g clip-path="url(#clip0)">
<g style="mix-blend-mode:hard-light">
<path fill-rule="evenodd" clip-rule="evenodd" d="M279.02 -661.471C458.036 -679.823 580.279 -489.491 740.488 -407.465C933.658 -308.563 1251.14 -340.354 1312.83 -132.168C1375.7 80.0143 1046.88 214.716 988.062 428.052C927.846 646.444 1108.58 907.641 975.583 1090.97C840.675 1276.93 570.205 1349.52 342.815 1317.47C126.44 1286.98 4.6043 1066.45 -166.193 930.045C-319.358 807.726 -550.867 749.007 -605.002 560.536C-658.877 372.97 -522.605 188.281 -428.317 17.4555C-352.84 -119.287 -232.017 -211.185 -119.359 -319.318C10.1014 -443.579 100.569 -643.177 279.02 -661.471Z" fill="#3232FE"/>
</g>
<g style="mix-blend-mode:hard-light">
<path fill-rule="evenodd" clip-rule="evenodd" d="M2337.53 -233.276C2114.13 -248.908 1969.71 -7.5228 1773.73 100.812C1537.42 231.435 1141.24 204.652 1072.86 465.796C1003.17 731.951 1417.57 886.147 1499.29 1148.86C1582.94 1417.8 1368.61 1749.58 1541.39 1972.04C1716.65 2197.69 2055.98 2277.06 2337.53 2228.13C2605.45 2181.57 2748.15 1902.68 2955.12 1726.36C3140.73 1568.24 3426.34 1486.01 3486.12 1249.66C3545.61 1014.46 3368.7 790.437 3244.57 581.962C3145.21 415.081 2991.24 305.738 2846.77 175.895C2680.76 26.6853 2560.23 -217.693 2337.53 -233.276Z" fill="#ED476F"/>
</g>
</g>
<defs>
<clipPath id="clip0">
<rect width="1920" height="1080" fill="white"/>
</clipPath>
</defs>
</svg>
