<svg width="400" height="400" viewBox="0 0 400 400" fill="none" xmlns="http://www.w3.org/2000/svg">
<g clip-path="url(#clip0)">
<path d="M463.5 440L365.5 368.5L260 330L154.5 269L20 299.5L147.5 382L63.25 439.75L20 299.5L-98.5 246.5L51 191L-15.5 114.5L63.25 39.75L-34.5 -31.5M384.5 114.5L518.5 130.45L384.5 114.5Z" stroke="white" stroke-opacity="0.1" stroke-width="0.5"/>
<path d="M185 452.5L147.5 382M-15.5 114.5L118.5 130.5L195 191L301.5 246.5L154.25 268.75L50.8 190.8L-15.5 114.5Z" stroke="white" stroke-opacity="0.1" stroke-width="0.5"/>
<path d="M260 330L289 421L365.5 368.5L420 299.5L301.5 246.5L260 330ZM260 330L147.5 382L154.5 269L195 191L269.5 134.5L384.5 114.5L288.75 20.8L185 52.5L147.5 -18L63.25 39.75L118.5 130.5L51 191L20 299.5L-34.5 368.5L63.5 440" stroke="white" stroke-opacity="0.1" stroke-width="0.5"/>
<path d="M195 191H51M260 -70L289.25 21.25L365.5 -31.5L260 -70ZM301.5 246.5L269.5 134.5L118.5 130.5L185 52.5L301.5 246.5ZM451 191L269.5 134.5L451 191Z" stroke="white" stroke-opacity="0.1" stroke-width="0.5"/>
<path d="M51 191L-130.5 134.5M-111 21L63.25 39.75L185 52.5L269.5 134.5L288.75 20.8L463.5 40L384.5 114.5L451 191L301.5 246.5L365.5 368.5L-111 21ZM147.5 -18L288.75 20.8L147.5 -18ZM289 421L147.5 382L289 421ZM20 -100.5L63.5 40L20 -100.5Z" stroke="white" stroke-opacity="0.1" stroke-width="0.5"/>
<path d="M384.5 117C385.881 117 387 115.881 387 114.5C387 113.119 385.881 112 384.5 112C383.119 112 382 113.119 382 114.5C382 115.881 383.119 117 384.5 117Z" fill="white" fill-opacity="0.2"/>
<path d="M269.5 137C270.881 137 272 135.881 272 134.5C272 133.119 270.881 132 269.5 132C268.119 132 267 133.119 267 134.5C267 135.881 268.119 137 269.5 137Z" fill="white" fill-opacity="0.2"/>
<path d="M301.5 249C302.881 249 304 247.881 304 246.5C304 245.119 302.881 244 301.5 244C300.119 244 299 245.119 299 246.5C299 247.881 300.119 249 301.5 249Z" fill="white" fill-opacity="0.2"/>
<path d="M365.5 371C366.881 371 368 369.881 368 368.5C368 367.119 366.881 366 365.5 366C364.119 366 363 367.119 363 368.5C363 369.881 364.119 371 365.5 371Z" fill="white" fill-opacity="0.2"/>
<path d="M260 332.5C261.381 332.5 262.5 331.381 262.5 330C262.5 328.619 261.381 327.5 260 327.5C258.619 327.5 257.5 328.619 257.5 330C257.5 331.381 258.619 332.5 260 332.5Z" fill="white" fill-opacity="0.2"/>
<path d="M154.5 271.5C155.881 271.5 157 270.381 157 269C157 267.619 155.881 266.5 154.5 266.5C153.119 266.5 152 267.619 152 269C152 270.381 153.119 271.5 154.5 271.5Z" fill="white" fill-opacity="0.2"/>
<path d="M147.5 384.5C148.881 384.5 150 383.381 150 382C150 380.619 148.881 379.5 147.5 379.5C146.119 379.5 145 380.619 145 382C145 383.381 146.119 384.5 147.5 384.5Z" fill="white" fill-opacity="0.2"/>
<path d="M20 302C21.3807 302 22.5 300.881 22.5 299.5C22.5 298.119 21.3807 297 20 297C18.6193 297 17.5 298.119 17.5 299.5C17.5 300.881 18.6193 302 20 302Z" fill="white" fill-opacity="0.2"/>
<path d="M51 193.5C52.3807 193.5 53.5 192.381 53.5 191C53.5 189.619 52.3807 188.5 51 188.5C49.6193 188.5 48.5 189.619 48.5 191C48.5 192.381 49.6193 193.5 51 193.5Z" fill="white" fill-opacity="0.2"/>
<path d="M63.5 42.5C64.8807 42.5 66 41.3807 66 40C66 38.6193 64.8807 37.5 63.5 37.5C62.1193 37.5 61 38.6193 61 40C61 41.3807 62.1193 42.5 63.5 42.5Z" fill="white" fill-opacity="0.2"/>
<path d="M185 55C186.381 55 187.5 53.8807 187.5 52.5C187.5 51.1193 186.381 50 185 50C183.619 50 182.5 51.1193 182.5 52.5C182.5 53.8807 183.619 55 185 55Z" fill="white" fill-opacity="0.2"/>
<path d="M289 23.5C290.381 23.5 291.5 22.3807 291.5 21C291.5 19.6193 290.381 18.5 289 18.5C287.619 18.5 286.5 19.6193 286.5 21C286.5 22.3807 287.619 23.5 289 23.5Z" fill="white" fill-opacity="0.2"/>
<path d="M118.5 133C119.881 133 121 131.881 121 130.5C121 129.119 119.881 128 118.5 128C117.119 128 116 129.119 116 130.5C116 131.881 117.119 133 118.5 133Z" fill="white" fill-opacity="0.2"/>
<path d="M195 193.5C196.381 193.5 197.5 192.381 197.5 191C197.5 189.619 196.381 188.5 195 188.5C193.619 188.5 192.5 189.619 192.5 191C192.5 192.381 193.619 193.5 195 193.5Z" fill="white" fill-opacity="0.2"/>
</g>
<defs>
<clipPath id="clip0">
<rect width="400" height="400" fill="white"/>
</clipPath>
</defs>
</svg>
