<svg width="800" height="800" viewBox="0 0 800 800" fill="none" xmlns="http://www.w3.org/2000/svg">
<g clip-path="url(#clip0)">
<path d="M739.16 265.54C738.569 265.54 737.984 265.423 737.438 265.197C736.893 264.97 736.397 264.638 735.98 264.22L601.39 129.64C600.948 129.228 600.593 128.731 600.347 128.179C600.101 127.627 599.969 127.031 599.958 126.427C599.948 125.823 600.059 125.223 600.285 124.662C600.512 124.102 600.848 123.593 601.276 123.166C601.703 122.738 602.212 122.401 602.772 122.175C603.333 121.949 603.933 121.838 604.537 121.848C605.141 121.859 605.737 121.991 606.289 122.237C606.841 122.483 607.338 122.838 607.75 123.28L742.34 257.86C742.969 258.489 743.396 259.291 743.57 260.163C743.743 261.035 743.654 261.94 743.314 262.761C742.973 263.583 742.397 264.286 741.658 264.78C740.919 265.275 740.049 265.539 739.16 265.54Z" fill="white" fill-opacity="0.12"/>
<path d="M783.17 603.78C782.579 603.78 781.994 603.663 781.449 603.437C780.903 603.21 780.407 602.878 779.99 602.46L645.4 467.87C644.605 467.017 644.173 465.889 644.193 464.723C644.214 463.557 644.686 462.445 645.51 461.62C646.335 460.796 647.447 460.324 648.613 460.303C649.779 460.282 650.907 460.715 651.76 461.51L786.35 596.1C786.979 596.729 787.407 597.531 787.58 598.403C787.753 599.276 787.664 600.18 787.324 601.002C786.984 601.823 786.407 602.526 785.668 603.02C784.929 603.515 784.06 603.779 783.17 603.78Z" fill="white" fill-opacity="0.12"/>
<path d="M445.72 384.32C445.129 384.32 444.544 384.203 443.998 383.977C443.453 383.75 442.957 383.418 442.54 383L307.95 248.41C307.155 247.557 306.722 246.429 306.743 245.263C306.763 244.097 307.236 242.985 308.06 242.16C308.885 241.336 309.997 240.864 311.163 240.843C312.329 240.822 313.457 241.255 314.31 242.05L448.9 376.63C449.528 377.259 449.956 378.061 450.13 378.933C450.303 379.806 450.214 380.71 449.874 381.532C449.533 382.353 448.957 383.056 448.218 383.55C447.479 384.045 446.609 384.309 445.72 384.31V384.32Z" fill="white" fill-opacity="0.12"/>
<path d="M782.87 726.3C782.279 726.3 781.694 726.183 781.148 725.957C780.603 725.73 780.107 725.398 779.69 724.98L645.1 590.39C644.658 589.978 644.303 589.481 644.057 588.929C643.811 588.377 643.679 587.781 643.668 587.177C643.658 586.573 643.769 585.973 643.995 585.412C644.222 584.852 644.558 584.343 644.986 583.916C645.413 583.488 645.922 583.152 646.482 582.925C647.043 582.699 647.643 582.588 648.247 582.598C648.851 582.609 649.447 582.741 649.999 582.987C650.551 583.233 651.048 583.588 651.46 584.03L786.05 718.62C786.678 719.249 787.106 720.051 787.28 720.923C787.453 721.795 787.364 722.7 787.024 723.521C786.683 724.343 786.107 725.046 785.368 725.54C784.629 726.035 783.759 726.299 782.87 726.3Z" fill="white" fill-opacity="0.12"/>
<path d="M720.47 176C719.879 176 719.294 175.884 718.749 175.657C718.203 175.431 717.707 175.099 717.29 174.68L582.7 40.1001C582.258 39.6881 581.903 39.1913 581.657 38.6393C581.411 38.0873 581.279 37.4915 581.269 36.8872C581.258 36.283 581.369 35.6829 581.595 35.1225C581.822 34.5622 582.159 34.0532 582.586 33.6259C583.013 33.1986 583.522 32.8617 584.082 32.6354C584.643 32.4091 585.243 32.2979 585.847 32.3086C586.451 32.3192 587.047 32.4515 587.599 32.6974C588.151 32.9434 588.648 33.298 589.06 33.7401L723.66 168.32C724.289 168.949 724.717 169.751 724.89 170.623C725.063 171.496 724.974 172.4 724.634 173.222C724.294 174.043 723.717 174.746 722.978 175.24C722.239 175.735 721.37 175.999 720.48 176H720.47Z" fill="white" fill-opacity="0.12"/>
<path d="M284.92 215.5C284.329 215.5 283.744 215.383 283.198 215.157C282.653 214.93 282.157 214.598 281.74 214.18L147.15 79.6C146.355 78.7469 145.922 77.6186 145.943 76.4528C145.963 75.287 146.436 74.1747 147.26 73.3502C148.085 72.5258 149.197 72.0535 150.363 72.0329C151.529 72.0124 152.657 72.4451 153.51 73.24L288.1 207.82C288.728 208.449 289.156 209.251 289.33 210.123C289.503 210.996 289.414 211.9 289.074 212.722C288.733 213.543 288.157 214.246 287.418 214.74C286.679 215.235 285.809 215.499 284.92 215.5Z" fill="white" fill-opacity="0.12"/>
<path d="M496.29 639.57C495.699 639.57 495.114 639.453 494.568 639.227C494.023 639 493.527 638.668 493.11 638.25L358.52 503.66C358.078 503.248 357.723 502.751 357.477 502.199C357.231 501.647 357.099 501.051 357.088 500.447C357.078 499.843 357.189 499.243 357.415 498.682C357.641 498.122 357.978 497.613 358.406 497.186C358.833 496.758 359.342 496.422 359.902 496.195C360.463 495.969 361.063 495.858 361.667 495.868C362.271 495.879 362.867 496.011 363.419 496.257C363.971 496.503 364.468 496.858 364.88 497.3L499.48 631.89C500.108 632.519 500.536 633.321 500.71 634.193C500.883 635.066 500.794 635.97 500.454 636.792C500.113 637.613 499.537 638.316 498.798 638.81C498.059 639.305 497.189 639.569 496.3 639.57H496.29Z" fill="white" fill-opacity="0.12"/>
<path d="M707.51 299.44C706.919 299.44 706.334 299.324 705.789 299.097C705.243 298.87 704.747 298.538 704.33 298.12L569.74 163.54C569.298 163.128 568.943 162.631 568.697 162.079C568.451 161.527 568.319 160.931 568.309 160.327C568.298 159.723 568.409 159.123 568.635 158.562C568.862 158.002 569.199 157.493 569.626 157.066C570.053 156.639 570.562 156.302 571.123 156.075C571.683 155.849 572.283 155.738 572.887 155.749C573.491 155.759 574.087 155.891 574.639 156.137C575.191 156.383 575.688 156.738 576.1 157.18L710.69 291.76C711.319 292.389 711.747 293.191 711.92 294.063C712.093 294.936 712.004 295.84 711.664 296.662C711.324 297.483 710.747 298.186 710.008 298.68C709.269 299.175 708.4 299.439 707.51 299.44Z" fill="white" fill-opacity="0.12"/>
<path d="M576 453.07C575.409 453.07 574.824 452.953 574.279 452.727C573.733 452.5 573.237 452.168 572.82 451.75L438.2 317.16C437.758 316.748 437.403 316.251 437.157 315.699C436.911 315.147 436.779 314.551 436.769 313.947C436.758 313.343 436.869 312.743 437.095 312.182C437.322 311.622 437.659 311.113 438.086 310.686C438.513 310.258 439.022 309.922 439.582 309.695C440.143 309.469 440.743 309.358 441.347 309.368C441.951 309.379 442.547 309.511 443.099 309.757C443.651 310.003 444.148 310.358 444.56 310.8L579.15 445.39C579.779 446.019 580.207 446.821 580.38 447.693C580.553 448.566 580.464 449.47 580.124 450.291C579.784 451.113 579.207 451.816 578.468 452.31C577.729 452.805 576.859 453.069 575.97 453.07H576Z" fill="white" fill-opacity="0.12"/>
<path d="M375.18 164C374.589 164 374.004 163.883 373.458 163.657C372.913 163.43 372.417 163.098 372 162.68L237.41 28.09C236.615 27.2369 236.182 26.1086 236.203 24.9428C236.223 23.777 236.696 22.6647 237.52 21.8402C238.345 21.0158 239.457 20.5435 240.623 20.5229C241.789 20.5023 242.917 20.9351 243.77 21.73L378.37 156.32C378.998 156.949 379.426 157.751 379.6 158.623C379.773 159.496 379.684 160.4 379.344 161.222C379.003 162.043 378.427 162.746 377.688 163.24C376.949 163.735 376.079 163.999 375.19 164H375.18Z" fill="white" fill-opacity="0.12"/>
<path d="M796.93 146.15C796.339 146.15 795.754 146.033 795.208 145.807C794.663 145.58 794.167 145.248 793.75 144.83L659.16 10.24C658.718 9.82803 658.363 9.33123 658.117 8.77923C657.871 8.22724 657.739 7.63136 657.728 7.02714C657.718 6.42292 657.829 5.82275 658.055 5.26242C658.282 4.70209 658.618 4.19309 659.046 3.76577C659.473 3.33846 659.982 3.00159 660.542 2.77527C661.103 2.54894 661.703 2.43779 662.307 2.44845C662.911 2.45911 663.507 2.59137 664.059 2.83732C664.611 3.08327 665.108 3.43788 665.52 3.88L800.11 138.47C800.739 139.099 801.167 139.901 801.34 140.773C801.513 141.646 801.424 142.55 801.084 143.372C800.743 144.193 800.167 144.896 799.428 145.39C798.689 145.885 797.819 146.149 796.93 146.15Z" fill="white" fill-opacity="0.12"/>
<path d="M437.61 656.92C437.019 656.92 436.434 656.804 435.888 656.577C435.343 656.351 434.847 656.019 434.43 655.6L299.83 521C299.388 520.588 299.033 520.092 298.787 519.54C298.541 518.988 298.409 518.392 298.398 517.787C298.388 517.183 298.499 516.583 298.725 516.023C298.952 515.462 299.288 514.953 299.716 514.526C300.143 514.099 300.652 513.762 301.212 513.536C301.773 513.309 302.373 513.198 302.977 513.209C303.581 513.219 304.177 513.352 304.729 513.598C305.281 513.844 305.778 514.198 306.19 514.64L440.79 649.24C441.419 649.87 441.846 650.671 442.02 651.543C442.193 652.416 442.104 653.32 441.764 654.142C441.423 654.964 440.847 655.666 440.108 656.161C439.369 656.655 438.499 656.919 437.61 656.92Z" fill="white" fill-opacity="0.12"/>
<path d="M433.62 156.06C433.029 156.06 432.444 155.943 431.899 155.717C431.353 155.49 430.857 155.158 430.44 154.74L295.85 20.15C295.055 19.297 294.622 18.1687 294.643 17.0029C294.664 15.8371 295.136 14.7248 295.96 13.9003C296.785 13.0758 297.897 12.6035 299.063 12.583C300.229 12.5624 301.357 12.9951 302.21 13.79L436.8 148.38C437.429 149.009 437.857 149.811 438.03 150.683C438.203 151.556 438.114 152.46 437.774 153.282C437.434 154.103 436.857 154.806 436.118 155.3C435.379 155.795 434.51 156.059 433.62 156.06Z" fill="white" fill-opacity="0.12"/>
<path d="M144.74 311.55C144.149 311.55 143.564 311.433 143.018 311.207C142.473 310.98 141.977 310.648 141.56 310.23L6.99999 175.64C6.20511 174.787 5.77237 173.659 5.79294 172.493C5.81351 171.327 6.28578 170.215 7.11026 169.39C7.93473 168.566 9.04705 168.094 10.2129 168.073C11.3787 168.052 12.5069 168.485 13.36 169.28L147.92 303.87C148.549 304.499 148.976 305.301 149.15 306.173C149.323 307.046 149.234 307.95 148.894 308.772C148.553 309.593 147.977 310.296 147.238 310.79C146.499 311.285 145.629 311.549 144.74 311.55Z" fill="white" fill-opacity="0.12"/>
<path d="M257.93 522.45C257.339 522.45 256.754 522.334 256.208 522.107C255.663 521.88 255.167 521.548 254.75 521.13L120.16 386.54C119.718 386.128 119.363 385.631 119.117 385.079C118.871 384.527 118.739 383.931 118.728 383.327C118.718 382.723 118.829 382.123 119.055 381.562C119.282 381.002 119.618 380.493 120.046 380.066C120.473 379.639 120.982 379.302 121.542 379.075C122.103 378.849 122.703 378.738 123.307 378.749C123.911 378.759 124.507 378.891 125.059 379.137C125.611 379.383 126.108 379.738 126.52 380.18L261.11 514.77C261.739 515.399 262.167 516.201 262.34 517.073C262.513 517.946 262.424 518.85 262.084 519.672C261.743 520.493 261.167 521.196 260.428 521.69C259.689 522.185 258.819 522.449 257.93 522.45Z" fill="white" fill-opacity="0.12"/>
<path d="M250.79 359.29C250.2 359.295 249.614 359.184 249.067 358.963C248.519 358.741 248.021 358.414 247.6 358L113 223.39C112.205 222.537 111.772 221.409 111.793 220.243C111.814 219.077 112.286 217.965 113.11 217.14C113.935 216.316 115.047 215.844 116.213 215.823C117.379 215.802 118.507 216.235 119.36 217.03L254 351.61C254.629 352.239 255.056 353.041 255.23 353.913C255.403 354.786 255.314 355.69 254.974 356.512C254.633 357.333 254.057 358.036 253.318 358.53C252.579 359.025 251.709 359.289 250.82 359.29H250.79Z" fill="white" fill-opacity="0.12"/>
<path d="M789.68 551.21C789.089 551.21 788.504 551.093 787.958 550.867C787.413 550.64 786.917 550.308 786.5 549.89L651.91 415.3C651.115 414.447 650.682 413.319 650.703 412.153C650.723 410.987 651.196 409.875 652.02 409.05C652.845 408.226 653.957 407.753 655.123 407.733C656.289 407.712 657.417 408.145 658.27 408.94L792.86 543.53C793.488 544.159 793.916 544.961 794.09 545.833C794.263 546.706 794.174 547.61 793.834 548.431C793.493 549.253 792.917 549.956 792.178 550.45C791.439 550.945 790.569 551.209 789.68 551.21Z" fill="white" fill-opacity="0.12"/>
<path d="M141.87 463.25C141.279 463.25 140.694 463.133 140.149 462.907C139.603 462.68 139.107 462.348 138.69 461.93L4.10009 327.34C3.63725 326.933 3.26281 326.436 2.99997 325.879C2.73713 325.322 2.59149 324.717 2.57206 324.101C2.55264 323.485 2.65984 322.872 2.88703 322.299C3.11423 321.727 3.45657 321.207 3.89286 320.772C4.32915 320.337 4.85009 319.996 5.42341 319.771C5.99674 319.546 6.61024 319.44 7.2259 319.462C7.84157 319.483 8.44629 319.631 9.00261 319.895C9.55893 320.16 10.055 320.536 10.4601 321L145 455.57C145.629 456.199 146.057 457.001 146.23 457.873C146.403 458.745 146.314 459.65 145.974 460.471C145.634 461.293 145.057 461.996 144.318 462.49C143.579 462.985 142.71 463.249 141.82 463.25H141.87Z" fill="white" fill-opacity="0.12"/>
<path d="M750.12 150.73C749.529 150.73 748.944 150.613 748.399 150.387C747.853 150.16 747.357 149.828 746.94 149.41L612.35 14.83C611.555 13.9769 611.122 12.8486 611.143 11.6828C611.164 10.517 611.636 9.40471 612.46 8.58023C613.285 7.75575 614.397 7.28348 615.563 7.26291C616.729 7.24234 617.857 7.67508 618.71 8.46996L753.3 143.05C753.929 143.679 754.357 144.481 754.53 145.353C754.703 146.226 754.614 147.13 754.274 147.951C753.934 148.773 753.357 149.476 752.618 149.97C751.879 150.465 751.01 150.729 750.12 150.73Z" fill="white" fill-opacity="0.12"/>
<path d="M285.05 491.33C284.459 491.33 283.874 491.213 283.328 490.987C282.783 490.76 282.287 490.428 281.87 490.01L147.28 355.42C146.838 355.008 146.483 354.511 146.237 353.959C145.991 353.407 145.859 352.811 145.848 352.207C145.838 351.603 145.949 351.003 146.175 350.442C146.401 349.882 146.738 349.373 147.166 348.946C147.593 348.518 148.102 348.182 148.662 347.955C149.223 347.729 149.823 347.618 150.427 347.628C151.031 347.639 151.627 347.771 152.179 348.017C152.731 348.263 153.228 348.618 153.64 349.06L288.23 483.65C288.858 484.279 289.286 485.081 289.46 485.953C289.633 486.826 289.544 487.73 289.204 488.551C288.863 489.373 288.287 490.076 287.548 490.57C286.809 491.065 285.939 491.329 285.05 491.33Z" fill="white" fill-opacity="0.12"/>
<path d="M143.23 147C142.639 147 142.054 146.883 141.508 146.657C140.963 146.43 140.467 146.098 140.05 145.68L27 32.61C26.2051 31.7569 25.7724 30.6287 25.7929 29.4629C25.8135 28.297 26.2858 27.1847 27.1103 26.3603C27.9347 25.5358 29.047 25.0635 30.2129 25.0429C31.3787 25.0224 32.5069 25.4551 33.36 26.25L146.42 139.32C147.049 139.949 147.476 140.751 147.65 141.623C147.823 142.496 147.734 143.4 147.394 144.222C147.053 145.043 146.477 145.746 145.738 146.24C144.999 146.735 144.129 146.999 143.24 147H143.23Z" fill="white" fill-opacity="0.12"/>
<path d="M628.22 428.23C627.629 428.23 627.044 428.114 626.499 427.887C625.953 427.661 625.457 427.329 625.04 426.91L512 313.84C511.558 313.428 511.203 312.931 510.957 312.379C510.711 311.827 510.579 311.231 510.569 310.627C510.558 310.023 510.669 309.423 510.895 308.863C511.122 308.302 511.459 307.793 511.886 307.366C512.313 306.939 512.822 306.602 513.383 306.375C513.943 306.149 514.543 306.038 515.147 306.049C515.751 306.059 516.347 306.191 516.899 306.437C517.451 306.683 517.948 307.038 518.36 307.48L631.41 420.55C632.039 421.179 632.467 421.981 632.64 422.853C632.813 423.726 632.724 424.63 632.384 425.452C632.044 426.273 631.467 426.976 630.728 427.47C629.989 427.965 629.12 428.229 628.23 428.23H628.22Z" fill="white" fill-opacity="0.12"/>
<path d="M127.07 215.83C126.479 215.83 125.894 215.714 125.348 215.487C124.803 215.26 124.307 214.928 123.89 214.51L10.81 101.44C10.0152 100.587 9.58243 99.4587 9.603 98.2929C9.62357 97.1271 10.0958 96.0148 10.9203 95.1903C11.7448 94.3659 12.8571 93.8936 14.0229 93.873C15.1887 93.8524 16.317 94.2852 17.17 95.0801L130.25 208.15C130.879 208.779 131.307 209.581 131.48 210.453C131.653 211.326 131.564 212.23 131.224 213.052C130.883 213.873 130.307 214.576 129.568 215.07C128.829 215.565 127.959 215.829 127.07 215.83Z" fill="white" fill-opacity="0.12"/>
<path d="M527.23 590.15C526.639 590.15 526.054 590.033 525.509 589.807C524.963 589.58 524.467 589.248 524.05 588.83L411 475.75C410.558 475.338 410.203 474.841 409.957 474.289C409.711 473.737 409.579 473.141 409.569 472.537C409.558 471.933 409.669 471.333 409.895 470.772C410.122 470.212 410.459 469.703 410.886 469.276C411.313 468.848 411.822 468.512 412.383 468.285C412.943 468.059 413.543 467.948 414.147 467.958C414.751 467.969 415.347 468.101 415.899 468.347C416.451 468.593 416.948 468.948 417.36 469.39L530.41 582.46C531.039 583.089 531.467 583.891 531.64 584.763C531.813 585.636 531.724 586.54 531.384 587.362C531.044 588.183 530.467 588.886 529.728 589.38C528.989 589.875 528.12 590.139 527.23 590.14V590.15Z" fill="white" fill-opacity="0.12"/>
<path d="M391.9 789.37C391.309 789.37 390.724 789.254 390.178 789.027C389.633 788.801 389.137 788.469 388.72 788.05L275.64 675C275.198 674.588 274.843 674.092 274.597 673.54C274.351 672.988 274.219 672.392 274.208 671.787C274.198 671.183 274.309 670.583 274.535 670.023C274.762 669.462 275.098 668.953 275.526 668.526C275.953 668.099 276.462 667.762 277.022 667.536C277.583 667.309 278.183 667.198 278.787 667.209C279.391 667.219 279.987 667.352 280.539 667.598C281.091 667.844 281.588 668.198 282 668.64L395.08 781.69C395.709 782.32 396.136 783.121 396.31 783.993C396.483 784.866 396.394 785.77 396.054 786.592C395.713 787.414 395.137 788.116 394.398 788.611C393.659 789.105 392.789 789.369 391.9 789.37Z" fill="white" fill-opacity="0.12"/>
<path d="M351.47 214.68C350.879 214.68 350.294 214.563 349.749 214.337C349.203 214.11 348.707 213.778 348.29 213.36L235.22 100.28C234.778 99.8681 234.423 99.3713 234.177 98.8193C233.931 98.2673 233.799 97.6714 233.789 97.0672C233.778 96.463 233.889 95.8628 234.115 95.3025C234.342 94.7421 234.679 94.2331 235.106 93.8058C235.533 93.3785 236.042 93.0416 236.603 92.8153C237.163 92.589 237.763 92.4778 238.367 92.4885C238.971 92.4992 239.567 92.6314 240.119 92.8774C240.671 93.1233 241.168 93.4779 241.58 93.92L354.66 207C355.289 207.629 355.717 208.431 355.89 209.303C356.063 210.176 355.974 211.08 355.634 211.902C355.294 212.723 354.717 213.426 353.978 213.92C353.239 214.415 352.37 214.679 351.48 214.68H351.47Z" fill="white" fill-opacity="0.12"/>
<path d="M554.27 217.66C553.679 217.66 553.094 217.543 552.548 217.317C552.003 217.09 551.507 216.758 551.09 216.34L438 103.27C437.205 102.417 436.772 101.289 436.793 100.123C436.814 98.957 437.286 97.8446 438.11 97.0202C438.935 96.1957 440.047 95.7234 441.213 95.7028C442.379 95.6823 443.507 96.115 444.36 96.9099L557.45 210C558.079 210.629 558.507 211.431 558.68 212.303C558.853 213.175 558.764 214.08 558.424 214.901C558.083 215.723 557.507 216.426 556.768 216.92C556.029 217.415 555.159 217.679 554.27 217.68V217.66Z" fill="white" fill-opacity="0.12"/>
<path d="M531.74 139.15C531.149 139.15 530.564 139.033 530.018 138.807C529.473 138.58 528.977 138.248 528.56 137.83L415.48 24.7599C414.685 23.9068 414.252 22.7786 414.273 21.6128C414.293 20.4469 414.766 19.3346 415.59 18.5102C416.415 17.6857 417.527 17.2134 418.693 17.1928C419.859 17.1723 420.987 17.605 421.84 18.3999L534.92 131.47C535.548 132.099 535.976 132.901 536.15 133.773C536.323 134.645 536.234 135.55 535.894 136.371C535.553 137.193 534.977 137.896 534.238 138.39C533.499 138.885 532.629 139.149 531.74 139.15Z" fill="white" fill-opacity="0.12"/>
<path d="M393.31 474C392.719 474 392.134 473.883 391.588 473.657C391.043 473.43 390.547 473.098 390.13 472.68L277.05 359.6C276.255 358.747 275.822 357.619 275.843 356.453C275.864 355.287 276.336 354.175 277.16 353.35C277.985 352.526 279.097 352.053 280.263 352.033C281.429 352.012 282.557 352.445 283.41 353.24L396.49 466.31C397.119 466.939 397.547 467.741 397.72 468.613C397.893 469.486 397.804 470.39 397.464 471.212C397.123 472.033 396.547 472.736 395.808 473.23C395.069 473.725 394.199 473.989 393.31 473.99V474Z" fill="white" fill-opacity="0.12"/>
<path d="M731.88 792C731.289 792 730.704 791.884 730.159 791.657C729.613 791.431 729.117 791.099 728.7 790.68L615.63 677.57C614.785 676.725 614.311 675.58 614.311 674.385C614.311 673.191 614.785 672.045 615.63 671.2C616.475 670.355 617.62 669.881 618.815 669.881C620.01 669.881 621.155 670.355 622 671.2L735.06 784.28C735.689 784.909 736.117 785.711 736.29 786.583C736.463 787.456 736.374 788.36 736.034 789.182C735.693 790.003 735.117 790.706 734.378 791.201C733.639 791.695 732.77 791.959 731.88 791.96V792Z" fill="white" fill-opacity="0.12"/>
<path d="M605.18 603.61C604.589 603.61 604.004 603.493 603.458 603.267C602.913 603.04 602.417 602.708 602 602.29L488.93 489.21C488.488 488.798 488.133 488.301 487.887 487.749C487.641 487.197 487.509 486.601 487.499 485.997C487.488 485.393 487.599 484.793 487.825 484.232C488.052 483.672 488.389 483.163 488.816 482.736C489.243 482.308 489.752 481.972 490.312 481.745C490.873 481.519 491.473 481.408 492.077 481.418C492.681 481.429 493.277 481.561 493.829 481.807C494.381 482.053 494.878 482.408 495.29 482.85L608.36 595.92C608.989 596.549 609.417 597.351 609.59 598.223C609.763 599.096 609.674 600 609.334 600.822C608.994 601.643 608.417 602.346 607.678 602.84C606.939 603.335 606.069 603.599 605.18 603.6V603.61Z" fill="white" fill-opacity="0.12"/>
<path d="M622.06 735.89C621.469 735.89 620.884 735.773 620.339 735.547C619.793 735.32 619.297 734.988 618.88 734.57L505.81 621.5C505.015 620.647 504.582 619.519 504.603 618.353C504.624 617.187 505.096 616.075 505.92 615.25C506.745 614.426 507.857 613.953 509.023 613.933C510.189 613.912 511.317 614.345 512.17 615.14L625.25 728.21C625.879 728.839 626.307 729.641 626.48 730.513C626.653 731.385 626.564 732.29 626.224 733.111C625.883 733.933 625.307 734.636 624.568 735.13C623.829 735.625 622.96 735.889 622.07 735.89H622.06Z" fill="white" fill-opacity="0.12"/>
<path d="M422.11 433.17C421.519 433.17 420.934 433.053 420.388 432.827C419.843 432.6 419.347 432.268 418.93 431.85L305.86 318.78C305.418 318.368 305.063 317.871 304.817 317.319C304.571 316.767 304.439 316.171 304.428 315.567C304.418 314.963 304.529 314.363 304.755 313.802C304.982 313.242 305.318 312.733 305.746 312.306C306.173 311.878 306.682 311.542 307.242 311.315C307.803 311.089 308.403 310.978 309.007 310.988C309.611 310.999 310.207 311.131 310.759 311.377C311.311 311.623 311.808 311.978 312.22 312.42L425.29 425.49C425.919 426.119 426.346 426.921 426.52 427.793C426.693 428.666 426.604 429.57 426.264 430.392C425.923 431.213 425.347 431.916 424.608 432.41C423.869 432.905 422.999 433.169 422.11 433.17Z" fill="white" fill-opacity="0.12"/>
<path d="M552.38 798.81C551.789 798.81 551.204 798.694 550.659 798.467C550.113 798.241 549.617 797.909 549.2 797.49L436.12 684.42C435.325 683.567 434.892 682.439 434.913 681.273C434.934 680.107 435.406 678.995 436.23 678.171C437.055 677.346 438.167 676.874 439.333 676.853C440.499 676.833 441.627 677.265 442.48 678.06L555.56 791.13C556.189 791.76 556.617 792.561 556.79 793.433C556.963 794.306 556.874 795.21 556.534 796.032C556.194 796.854 555.617 797.556 554.878 798.051C554.139 798.545 553.27 798.809 552.38 798.81Z" fill="white" fill-opacity="0.12"/>
<path d="M362.36 661.79C361.769 661.79 361.184 661.673 360.638 661.447C360.093 661.22 359.597 660.888 359.18 660.47L246.1 547.39C245.658 546.978 245.303 546.481 245.057 545.929C244.811 545.377 244.679 544.781 244.668 544.177C244.658 543.573 244.769 542.973 244.995 542.412C245.222 541.852 245.558 541.343 245.986 540.916C246.413 540.488 246.922 540.152 247.482 539.925C248.043 539.699 248.643 539.588 249.247 539.598C249.851 539.609 250.447 539.741 250.999 539.987C251.551 540.233 252.048 540.588 252.46 541.03L365.54 654.1C366.169 654.729 366.596 655.531 366.77 656.403C366.943 657.275 366.854 658.18 366.514 659.001C366.173 659.823 365.597 660.526 364.858 661.02C364.119 661.515 363.249 661.779 362.36 661.78V661.79Z" fill="white" fill-opacity="0.12"/>
<path d="M579 130.93C578.409 130.93 577.824 130.813 577.279 130.587C576.733 130.36 576.237 130.028 575.82 129.61L462.72 16.5401C462.278 16.1281 461.923 15.6313 461.677 15.0793C461.431 14.5273 461.299 13.9314 461.289 13.3272C461.278 12.723 461.389 12.1228 461.615 11.5625C461.842 11.0021 462.179 10.4931 462.606 10.0658C463.033 9.63851 463.542 9.30164 464.103 9.07532C464.663 8.84899 465.263 8.73784 465.867 8.7485C466.471 8.75916 467.067 8.89141 467.619 9.13737C468.171 9.38332 468.668 9.73793 469.08 10.1801L582.16 123.25C582.789 123.879 583.217 124.681 583.39 125.553C583.563 126.426 583.474 127.33 583.134 128.152C582.794 128.973 582.217 129.676 581.478 130.17C580.739 130.665 579.87 130.929 578.98 130.93H579Z" fill="white" fill-opacity="0.12"/>
<path d="M199.1 778.44C198.509 778.44 197.924 778.324 197.379 778.097C196.833 777.871 196.337 777.539 195.92 777.12L82.8501 664.05C82.0552 663.197 81.6225 662.069 81.643 660.903C81.6636 659.737 82.1359 658.625 82.9603 657.8C83.7848 656.976 84.8971 656.504 86.0629 656.483C87.2288 656.463 88.357 656.895 89.2101 657.69L202.28 770.76C202.909 771.389 203.337 772.191 203.51 773.063C203.683 773.936 203.594 774.84 203.254 775.662C202.914 776.483 202.337 777.186 201.598 777.681C200.859 778.175 199.99 778.439 199.1 778.44Z" fill="white" fill-opacity="0.12"/>
<path d="M632.48 567C631.889 567 631.304 566.883 630.758 566.657C630.213 566.43 629.717 566.098 629.3 565.68L516.22 452.65C515.425 451.797 514.992 450.669 515.013 449.503C515.033 448.337 515.506 447.225 516.33 446.4C517.155 445.576 518.267 445.104 519.433 445.083C520.599 445.062 521.727 445.495 522.58 446.29L635.66 559.36C636.288 559.989 636.716 560.791 636.89 561.663C637.063 562.536 636.974 563.44 636.634 564.262C636.293 565.083 635.717 565.786 634.978 566.28C634.239 566.775 633.369 567.039 632.48 567.04V567Z" fill="white" fill-opacity="0.12"/>
<path d="M704 421.77C703.409 421.77 702.824 421.653 702.279 421.427C701.733 421.2 701.237 420.868 700.82 420.45L587.73 307.38C587.288 306.968 586.933 306.471 586.687 305.919C586.441 305.367 586.309 304.771 586.299 304.167C586.288 303.563 586.399 302.963 586.625 302.402C586.852 301.842 587.189 301.333 587.616 300.906C588.043 300.478 588.552 300.141 589.113 299.915C589.673 299.689 590.273 299.578 590.877 299.588C591.481 299.599 592.077 299.731 592.629 299.977C593.181 300.223 593.678 300.578 594.09 301.02L707.16 414.09C707.789 414.719 708.217 415.521 708.39 416.393C708.563 417.265 708.474 418.17 708.134 418.991C707.794 419.813 707.217 420.516 706.478 421.01C705.739 421.505 704.87 421.769 703.98 421.77H704Z" fill="white" fill-opacity="0.12"/>
<path d="M210.64 597.23C210.049 597.23 209.464 597.113 208.918 596.887C208.373 596.66 207.877 596.328 207.46 595.91L94.3899 482.83C93.595 481.977 93.1623 480.849 93.1828 479.683C93.2034 478.517 93.6757 477.405 94.5001 476.58C95.3246 475.756 96.4369 475.283 97.6027 475.263C98.7686 475.242 99.8968 475.675 100.75 476.47L213.83 589.54C214.458 590.169 214.886 590.971 215.06 591.843C215.233 592.716 215.144 593.62 214.804 594.441C214.463 595.263 213.887 595.966 213.148 596.46C212.409 596.955 211.539 597.219 210.65 597.22L210.64 597.23Z" fill="white" fill-opacity="0.12"/>
<path d="M646.87 518.46C646.279 518.46 645.694 518.344 645.148 518.117C644.603 517.89 644.107 517.559 643.69 517.14L592 465.45C591.205 464.597 590.772 463.469 590.793 462.303C590.814 461.137 591.286 460.025 592.11 459.2C592.935 458.376 594.047 457.904 595.213 457.883C596.379 457.862 597.507 458.295 598.36 459.09L650 510.78C650.629 511.409 651.056 512.211 651.23 513.083C651.403 513.956 651.314 514.86 650.974 515.682C650.633 516.503 650.057 517.206 649.318 517.7C648.579 518.195 647.709 518.459 646.82 518.46H646.87Z" fill="white" fill-opacity="0.12"/>
<path d="M241.23 676.85C240.639 676.85 240.054 676.734 239.509 676.507C238.963 676.281 238.467 675.949 238.05 675.53L186.36 623.84C185.565 622.987 185.132 621.859 185.153 620.693C185.174 619.527 185.646 618.415 186.47 617.59C187.295 616.766 188.407 616.294 189.573 616.273C190.739 616.253 191.867 616.685 192.72 617.48L244.41 669.17C245.039 669.8 245.467 670.601 245.64 671.473C245.813 672.346 245.724 673.25 245.384 674.072C245.044 674.894 244.467 675.596 243.728 676.091C242.989 676.585 242.12 676.849 241.23 676.85Z" fill="white" fill-opacity="0.12"/>
<path d="M292.89 285.48C292.299 285.48 291.714 285.364 291.168 285.137C290.623 284.911 290.127 284.579 289.71 284.16L238 232.46C237.205 231.607 236.772 230.479 236.793 229.313C236.814 228.147 237.286 227.035 238.11 226.21C238.935 225.386 240.047 224.914 241.213 224.893C242.379 224.872 243.507 225.305 244.36 226.1L296.05 277.79C296.679 278.419 297.106 279.221 297.28 280.093C297.453 280.966 297.364 281.87 297.024 282.692C296.683 283.513 296.107 284.216 295.368 284.71C294.629 285.205 293.759 285.469 292.87 285.47L292.89 285.48Z" fill="white" fill-opacity="0.12"/>
<path d="M712.2 365C711.609 365 711.024 364.883 710.478 364.657C709.933 364.43 709.437 364.098 709.02 363.68L657.32 312C656.525 311.147 656.092 310.019 656.113 308.853C656.134 307.687 656.606 306.575 657.43 305.75C658.255 304.926 659.367 304.453 660.533 304.433C661.699 304.412 662.827 304.845 663.68 305.64L715.37 357.33C715.995 357.959 716.419 358.759 716.591 359.629C716.763 360.498 716.674 361.399 716.335 362.219C715.996 363.038 715.423 363.739 714.688 364.234C713.952 364.729 713.087 364.995 712.2 365Z" fill="white" fill-opacity="0.12"/>
<path d="M633.17 289.11C632.579 289.11 631.994 288.993 631.448 288.767C630.903 288.54 630.407 288.208 629.99 287.79L578.3 236.09C577.505 235.237 577.072 234.109 577.093 232.943C577.114 231.777 577.586 230.665 578.41 229.84C579.235 229.016 580.347 228.543 581.513 228.523C582.679 228.502 583.807 228.935 584.66 229.73L636.35 281.42C636.979 282.049 637.406 282.851 637.58 283.723C637.753 284.596 637.664 285.5 637.324 286.322C636.983 287.143 636.407 287.846 635.668 288.34C634.929 288.835 634.059 289.099 633.17 289.1V289.11Z" fill="white" fill-opacity="0.12"/>
<path d="M349.21 504.24C348.619 504.24 348.034 504.124 347.488 503.897C346.943 503.67 346.447 503.339 346.03 502.92L294.34 451.23C293.545 450.377 293.112 449.249 293.133 448.083C293.154 446.917 293.626 445.805 294.45 444.98C295.275 444.156 296.387 443.684 297.553 443.663C298.719 443.642 299.847 444.075 300.7 444.87L352.39 496.56C353.019 497.189 353.447 497.991 353.62 498.863C353.793 499.736 353.704 500.64 353.364 501.462C353.024 502.283 352.447 502.986 351.708 503.48C350.969 503.975 350.099 504.239 349.21 504.24Z" fill="white" fill-opacity="0.12"/>
<path d="M70.4699 544.54C69.8791 544.54 69.2941 544.423 68.7484 544.197C68.2027 543.97 67.7071 543.638 67.2899 543.22L15.5999 491.53C15.1823 491.11 14.8516 490.611 14.6266 490.063C14.4016 489.515 14.2867 488.928 14.2886 488.336C14.2905 487.743 14.409 487.157 14.6374 486.61C14.8658 486.064 15.1997 485.568 15.6199 485.15C16.0402 484.732 16.5385 484.402 17.0866 484.177C17.6346 483.952 18.2216 483.837 18.8141 483.839C19.4065 483.841 19.9928 483.959 20.5394 484.187C21.086 484.416 21.5823 484.75 21.9999 485.17L73.6899 536.86C74.3185 537.489 74.7464 538.291 74.9197 539.163C75.093 540.036 75.0039 540.94 74.6637 541.762C74.3234 542.583 73.7472 543.286 73.0079 543.78C72.2686 544.275 71.3994 544.539 70.5099 544.54H70.4699Z" fill="white" fill-opacity="0.12"/>
<path d="M572.89 298.44C572.299 298.44 571.714 298.323 571.168 298.097C570.623 297.87 570.127 297.538 569.71 297.12L518 245.43C517.205 244.577 516.772 243.449 516.793 242.283C516.814 241.117 517.286 240.005 518.11 239.18C518.935 238.356 520.047 237.884 521.213 237.863C522.379 237.842 523.507 238.275 524.36 239.07L576.05 290.76C576.678 291.389 577.106 292.191 577.28 293.063C577.453 293.936 577.364 294.84 577.024 295.662C576.683 296.483 576.107 297.186 575.368 297.68C574.629 298.175 573.759 298.439 572.87 298.44H572.89Z" fill="white" fill-opacity="0.12"/>
<path d="M480.66 309.95C480.069 309.95 479.484 309.834 478.938 309.607C478.393 309.38 477.897 309.048 477.48 308.63L425.79 256.94C424.995 256.087 424.562 254.959 424.583 253.793C424.604 252.627 425.076 251.515 425.9 250.69C426.725 249.866 427.837 249.394 429.003 249.373C430.169 249.352 431.297 249.785 432.15 250.58L483.84 302.27C484.469 302.899 484.897 303.701 485.07 304.573C485.243 305.446 485.154 306.35 484.814 307.172C484.473 307.993 483.897 308.696 483.158 309.19C482.419 309.685 481.549 309.949 480.66 309.95Z" fill="white" fill-opacity="0.12"/>
<path d="M692.4 694.75C691.809 694.75 691.224 694.633 690.678 694.407C690.133 694.18 689.637 693.848 689.22 693.43L637.53 641.74C637.088 641.328 636.733 640.831 636.487 640.279C636.241 639.727 636.109 639.131 636.098 638.527C636.088 637.923 636.199 637.323 636.425 636.762C636.652 636.202 636.988 635.693 637.416 635.266C637.843 634.838 638.352 634.502 638.912 634.275C639.473 634.049 640.073 633.938 640.677 633.948C641.281 633.959 641.877 634.091 642.429 634.337C642.981 634.583 643.478 634.938 643.89 635.38L695.58 687.07C696.208 687.699 696.636 688.501 696.81 689.373C696.983 690.246 696.894 691.15 696.554 691.972C696.213 692.793 695.637 693.496 694.898 693.99C694.159 694.485 693.289 694.749 692.4 694.75Z" fill="white" fill-opacity="0.12"/>
<path d="M218 210.58C217.409 210.58 216.824 210.464 216.278 210.237C215.733 210.01 215.237 209.678 214.82 209.26L163.13 157.57C162.688 157.158 162.333 156.661 162.087 156.109C161.841 155.557 161.709 154.961 161.698 154.357C161.688 153.753 161.799 153.153 162.025 152.592C162.252 152.032 162.588 151.523 163.016 151.096C163.443 150.669 163.952 150.332 164.512 150.105C165.073 149.879 165.673 149.768 166.277 149.779C166.881 149.789 167.477 149.921 168.029 150.167C168.581 150.413 169.078 150.768 169.49 151.21L221.18 202.9C221.809 203.529 222.236 204.331 222.41 205.203C222.583 206.076 222.494 206.98 222.154 207.802C221.813 208.623 221.237 209.326 220.498 209.82C219.759 210.315 218.889 210.579 218 210.58Z" fill="white" fill-opacity="0.12"/>
<path d="M132.63 785.5C132.039 785.5 131.454 785.384 130.908 785.157C130.363 784.931 129.867 784.599 129.45 784.18L77.76 732.49C76.9651 731.637 76.5324 730.509 76.5529 729.343C76.5735 728.177 77.0458 727.065 77.8703 726.24C78.6947 725.416 79.8071 724.944 80.9729 724.923C82.1387 724.902 83.267 725.335 84.12 726.13L135.81 777.82C136.439 778.449 136.866 779.251 137.04 780.123C137.213 780.996 137.124 781.9 136.784 782.722C136.443 783.543 135.867 784.246 135.128 784.74C134.389 785.235 133.519 785.499 132.63 785.5Z" fill="white" fill-opacity="0.12"/>
<path d="M718.8 599.94C718.209 599.94 717.624 599.823 717.078 599.597C716.533 599.37 716.037 599.038 715.62 598.62L663.93 546.93C663.135 546.077 662.702 544.949 662.723 543.783C662.743 542.617 663.216 541.505 664.04 540.68C664.865 539.856 665.977 539.384 667.143 539.363C668.309 539.342 669.437 539.775 670.29 540.57L722 592.26C722.628 592.889 723.056 593.691 723.23 594.563C723.403 595.436 723.314 596.34 722.974 597.162C722.633 597.983 722.057 598.686 721.318 599.18C720.579 599.675 719.709 599.939 718.82 599.94H718.8Z" fill="white" fill-opacity="0.12"/>
<path d="M291.5 434.27C290.909 434.27 290.324 434.154 289.779 433.927C289.233 433.701 288.737 433.369 288.32 432.95L236.63 381.26C235.835 380.407 235.402 379.279 235.423 378.113C235.444 376.947 235.916 375.835 236.74 375.01C237.565 374.186 238.677 373.714 239.843 373.693C241.009 373.673 242.137 374.105 242.99 374.9L294.68 426.59C295.309 427.219 295.737 428.021 295.91 428.893C296.083 429.766 295.994 430.67 295.654 431.492C295.314 432.313 294.737 433.016 293.998 433.51C293.259 434.005 292.39 434.269 291.5 434.27Z" fill="white" fill-opacity="0.12"/>
<path d="M207 255.8C206.409 255.8 205.824 255.683 205.278 255.457C204.733 255.23 204.237 254.898 203.82 254.48L152.13 202.79C151.688 202.378 151.333 201.881 151.087 201.329C150.841 200.777 150.709 200.181 150.698 199.577C150.688 198.973 150.799 198.373 151.025 197.812C151.252 197.252 151.588 196.743 152.016 196.316C152.443 195.889 152.952 195.552 153.512 195.325C154.073 195.099 154.673 194.988 155.277 194.999C155.881 195.009 156.477 195.141 157.029 195.387C157.581 195.633 158.078 195.988 158.49 196.43L210.18 248.12C210.809 248.749 211.236 249.551 211.41 250.423C211.583 251.296 211.494 252.2 211.154 253.022C210.813 253.843 210.237 254.546 209.498 255.04C208.759 255.535 207.889 255.799 207 255.8Z" fill="white" fill-opacity="0.12"/>
<path d="M778.6 77.59C778.009 77.59 777.424 77.4734 776.878 77.2469C776.333 77.0204 775.837 76.6884 775.42 76.27L723.73 24.58C722.935 23.7269 722.502 22.5986 722.523 21.4328C722.543 20.267 723.016 19.1547 723.84 18.3302C724.665 17.5057 725.777 17.0335 726.943 17.0129C728.109 16.9923 729.237 17.4251 730.09 18.22L781.78 69.91C782.409 70.5393 782.836 71.3407 783.01 72.2131C783.183 73.0855 783.094 73.9897 782.754 74.8115C782.413 75.6333 781.837 76.3358 781.098 76.8303C780.359 77.3248 779.489 77.5892 778.6 77.59Z" fill="white" fill-opacity="0.12"/>
<path d="M778.39 779.86C777.799 779.86 777.214 779.743 776.668 779.517C776.123 779.29 775.627 778.958 775.21 778.54L723.52 726.85C722.725 725.997 722.292 724.869 722.313 723.703C722.334 722.537 722.806 721.425 723.63 720.6C724.455 719.776 725.567 719.303 726.733 719.283C727.899 719.262 729.027 719.695 729.88 720.49L781.57 772.18C782.199 772.809 782.627 773.611 782.8 774.483C782.973 775.356 782.884 776.26 782.544 777.082C782.203 777.903 781.627 778.606 780.888 779.1C780.149 779.595 779.279 779.859 778.39 779.86Z" fill="white" fill-opacity="0.12"/>
<path d="M112.09 357.62C111.499 357.62 110.914 357.503 110.369 357.277C109.823 357.05 109.327 356.718 108.91 356.3L57.2101 304.6C56.768 304.188 56.4133 303.691 56.1674 303.139C55.9214 302.587 55.7892 301.991 55.7785 301.387C55.7679 300.783 55.879 300.183 56.1053 299.622C56.3317 299.062 56.6685 298.553 57.0959 298.126C57.5232 297.698 58.0322 297.361 58.5925 297.135C59.1528 296.909 59.753 296.798 60.3572 296.808C60.9614 296.819 61.5573 296.951 62.1093 297.197C62.6613 297.443 63.1581 297.798 63.5701 298.24L115.26 349.93C115.889 350.559 116.317 351.361 116.49 352.233C116.663 353.105 116.574 354.01 116.234 354.831C115.894 355.653 115.317 356.356 114.578 356.85C113.839 357.345 112.97 357.609 112.08 357.61L112.09 357.62Z" fill="white" fill-opacity="0.12"/>
<path d="M69 465.85C68.4092 465.85 67.8242 465.734 67.2785 465.507C66.7328 465.281 66.2372 464.949 65.82 464.53L14.17 412.84C13.7279 412.428 13.3733 411.931 13.1274 411.379C12.8814 410.827 12.7492 410.231 12.7385 409.627C12.7278 409.023 12.839 408.423 13.0653 407.863C13.2916 407.302 13.6285 406.793 14.0558 406.366C14.4831 405.939 14.9921 405.602 15.5525 405.375C16.1128 405.149 16.713 405.038 17.3172 405.049C17.9214 405.059 18.5173 405.191 19.0693 405.437C19.6213 405.683 20.1181 406.038 20.53 406.48L72.22 458.17C72.851 458.802 73.2798 459.607 73.4519 460.483C73.6239 461.359 73.5315 462.267 73.1862 463.09C72.841 463.914 72.2586 464.616 71.5131 465.107C70.7677 465.599 69.8929 465.857 69 465.85Z" fill="white" fill-opacity="0.12"/>
<path d="M784.93 261.16C784.339 261.16 783.754 261.043 783.209 260.817C782.663 260.59 782.167 260.258 781.75 259.84L730.06 208.15C729.618 207.738 729.263 207.241 729.017 206.689C728.772 206.137 728.639 205.541 728.629 204.937C728.618 204.333 728.729 203.733 728.955 203.172C729.182 202.612 729.519 202.103 729.946 201.676C730.373 201.248 730.882 200.912 731.443 200.685C732.003 200.459 732.603 200.348 733.207 200.358C733.812 200.369 734.407 200.501 734.959 200.747C735.511 200.993 736.008 201.348 736.42 201.79L788.11 253.48C788.739 254.109 789.167 254.911 789.34 255.783C789.513 256.656 789.424 257.56 789.084 258.381C788.744 259.203 788.167 259.906 787.428 260.4C786.689 260.895 785.82 261.159 784.93 261.16Z" fill="white" fill-opacity="0.12"/>
<path d="M321.6 783.41C321.009 783.41 320.424 783.293 319.879 783.067C319.333 782.84 318.837 782.508 318.42 782.09L280 743.64C279.558 743.228 279.203 742.731 278.957 742.179C278.711 741.627 278.579 741.031 278.569 740.427C278.558 739.823 278.669 739.223 278.895 738.662C279.122 738.102 279.459 737.593 279.886 737.166C280.313 736.738 280.822 736.402 281.383 736.175C281.943 735.949 282.543 735.838 283.147 735.848C283.751 735.859 284.347 735.991 284.899 736.237C285.451 736.483 285.948 736.838 286.36 737.28L324.81 775.73C325.439 776.359 325.867 777.161 326.04 778.033C326.213 778.906 326.124 779.81 325.784 780.631C325.444 781.453 324.867 782.156 324.128 782.65C323.389 783.145 322.52 783.409 321.63 783.41H321.6Z" fill="white" fill-opacity="0.12"/>
<path d="M423.68 706.1C423.089 706.1 422.504 705.983 421.959 705.757C421.413 705.53 420.917 705.198 420.5 704.78L382 666.33C381.558 665.918 381.203 665.421 380.957 664.869C380.711 664.317 380.579 663.721 380.569 663.117C380.558 662.513 380.669 661.913 380.895 661.352C381.122 660.792 381.459 660.283 381.886 659.856C382.313 659.428 382.822 659.091 383.383 658.865C383.943 658.639 384.543 658.528 385.147 658.538C385.751 658.549 386.347 658.681 386.899 658.927C387.451 659.173 387.948 659.528 388.36 659.97L426.81 698.42C427.439 699.049 427.867 699.851 428.04 700.723C428.213 701.595 428.124 702.5 427.784 703.321C427.444 704.143 426.867 704.846 426.128 705.34C425.389 705.835 424.52 706.099 423.63 706.1H423.68Z" fill="white" fill-opacity="0.12"/>
<path d="M210.41 535.76C209.819 535.76 209.234 535.643 208.688 535.417C208.143 535.19 207.647 534.858 207.23 534.44L168.78 496C168.338 495.588 167.983 495.091 167.737 494.539C167.491 493.987 167.359 493.391 167.348 492.787C167.338 492.183 167.449 491.583 167.675 491.022C167.901 490.462 168.238 489.953 168.666 489.526C169.093 489.098 169.602 488.762 170.162 488.535C170.723 488.309 171.323 488.198 171.927 488.208C172.531 488.219 173.127 488.351 173.679 488.597C174.231 488.843 174.728 489.198 175.14 489.64L213.59 528.09C214.218 528.719 214.646 529.521 214.82 530.393C214.993 531.266 214.904 532.17 214.564 532.992C214.223 533.813 213.647 534.516 212.908 535.01C212.169 535.505 211.299 535.769 210.41 535.77V535.76Z" fill="white" fill-opacity="0.12"/>
<path d="M599.28 651.87C598.689 651.87 598.104 651.753 597.559 651.527C597.013 651.3 596.517 650.968 596.1 650.55L557.66 612.1C557.218 611.688 556.863 611.191 556.617 610.639C556.371 610.087 556.239 609.491 556.228 608.887C556.218 608.283 556.329 607.683 556.555 607.122C556.782 606.562 557.118 606.053 557.546 605.626C557.973 605.198 558.482 604.861 559.042 604.635C559.603 604.409 560.203 604.298 560.807 604.308C561.411 604.319 562.007 604.451 562.559 604.697C563.111 604.943 563.608 605.298 564.02 605.74L602.47 644.19C603.099 644.819 603.526 645.621 603.7 646.493C603.873 647.365 603.784 648.27 603.444 649.091C603.103 649.913 602.527 650.616 601.788 651.11C601.049 651.605 600.179 651.869 599.29 651.87H599.28Z" fill="white" fill-opacity="0.12"/>
<path d="M561.31 54.32C560.719 54.32 560.134 54.2034 559.589 53.9769C559.043 53.7504 558.547 53.4184 558.13 53L519.69 14.56C519.211 14.161 518.819 13.6667 518.541 13.1084C518.263 12.5502 518.104 11.9401 518.074 11.3171C518.044 10.694 518.143 10.0715 518.367 9.4891C518.59 8.9067 518.932 8.37711 519.371 7.93394C519.81 7.49078 520.337 7.14372 520.917 6.9148C521.497 6.68589 522.119 6.58011 522.742 6.60418C523.365 6.62826 523.977 6.78166 524.538 7.05466C525.099 7.32765 525.597 7.71427 526 8.18998L564.5 46.64C565.129 47.2693 565.557 48.0708 565.73 48.9432C565.903 49.8156 565.814 50.7197 565.474 51.5415C565.134 52.3633 564.557 53.0658 563.818 53.5603C563.079 54.0548 562.21 54.3192 561.32 54.32H561.31Z" fill="white" fill-opacity="0.12"/>
<path d="M406.86 281.38C406.269 281.38 405.684 281.263 405.138 281.037C404.593 280.81 404.097 280.478 403.68 280.06L365.23 241.61C364.435 240.757 364.002 239.629 364.023 238.463C364.043 237.297 364.516 236.185 365.34 235.36C366.165 234.536 367.277 234.064 368.443 234.043C369.609 234.022 370.737 234.455 371.59 235.25L410 273.7C410.629 274.329 411.056 275.131 411.23 276.003C411.403 276.876 411.314 277.78 410.974 278.602C410.633 279.423 410.057 280.126 409.318 280.62C408.579 281.115 407.709 281.379 406.82 281.38H406.86Z" fill="white" fill-opacity="0.12"/>
<path d="M531.6 713.29C531.009 713.29 530.424 713.173 529.878 712.947C529.333 712.72 528.837 712.388 528.42 711.97L490 673.52C489.205 672.667 488.772 671.539 488.793 670.373C488.814 669.207 489.286 668.095 490.11 667.27C490.935 666.446 492.047 665.973 493.213 665.953C494.379 665.932 495.507 666.365 496.36 667.16L534.81 705.61C535.439 706.239 535.866 707.041 536.04 707.913C536.213 708.786 536.124 709.69 535.784 710.511C535.443 711.333 534.867 712.036 534.128 712.53C533.389 713.025 532.519 713.289 531.63 713.29H531.6Z" fill="white" fill-opacity="0.12"/>
<path d="M794.82 48.3401C794.228 48.3375 793.642 48.2178 793.096 47.9878C792.55 47.7578 792.056 47.4221 791.64 47.0001L753.19 8.57008C752.748 8.15811 752.393 7.66131 752.147 7.10931C751.901 6.55731 751.769 5.96143 751.759 5.35722C751.748 4.753 751.859 4.15283 752.085 3.5925C752.312 3.03217 752.649 2.52316 753.076 2.09585C753.503 1.66854 754.012 1.33167 754.572 1.10535C755.133 0.87902 755.733 0.767872 756.337 0.778532C756.941 0.789193 757.537 0.921444 758.089 1.1674C758.641 1.41335 759.138 1.76796 759.55 2.21008L798 40.6501C798.629 41.2794 799.057 42.0809 799.23 42.9533C799.403 43.8257 799.314 44.7298 798.974 45.5516C798.634 46.3734 798.057 47.0759 797.318 47.5704C796.579 48.065 795.71 48.3293 794.82 48.3301V48.3401Z" fill="white" fill-opacity="0.12"/>
<path d="M778.55 428.08C777.959 428.08 777.374 427.963 776.829 427.737C776.283 427.51 775.787 427.178 775.37 426.76L736.92 388.31C736.125 387.457 735.693 386.329 735.713 385.163C735.734 383.997 736.206 382.885 737.03 382.06C737.855 381.236 738.967 380.763 740.133 380.743C741.299 380.722 742.427 381.155 743.28 381.95L781.73 420.4C782.359 421.029 782.787 421.831 782.96 422.703C783.133 423.576 783.044 424.48 782.704 425.301C782.364 426.123 781.787 426.826 781.048 427.32C780.309 427.815 779.44 428.079 778.55 428.08Z" fill="white" fill-opacity="0.12"/>
<path d="M782.34 663.89C781.749 663.89 781.164 663.773 780.619 663.547C780.073 663.32 779.577 662.988 779.16 662.57L740.71 624.12C740.268 623.708 739.913 623.211 739.667 622.659C739.421 622.107 739.289 621.511 739.279 620.907C739.268 620.303 739.379 619.703 739.605 619.142C739.832 618.582 740.169 618.073 740.596 617.646C741.023 617.218 741.532 616.882 742.092 616.655C742.653 616.429 743.253 616.318 743.857 616.328C744.461 616.339 745.057 616.471 745.609 616.717C746.161 616.963 746.658 617.318 747.07 617.76L785.52 656.21C786.149 656.839 786.577 657.641 786.75 658.513C786.923 659.385 786.834 660.29 786.494 661.111C786.154 661.933 785.577 662.636 784.838 663.13C784.099 663.625 783.23 663.889 782.34 663.89Z" fill="white" fill-opacity="0.12"/>
<path d="M58.4801 106.06C57.8892 106.06 57.3042 105.943 56.7585 105.717C56.2128 105.49 55.7172 105.158 55.3001 104.74L16.8501 66.2899C16.0552 65.4369 15.6225 64.3086 15.643 63.1428C15.6636 61.977 16.1359 60.8647 16.9604 60.0402C17.7848 59.2157 18.8971 58.7434 20.0629 58.7229C21.2288 58.7023 22.357 59.135 23.2101 59.9299L61.6601 98.3799C62.2886 99.0092 62.7166 99.8107 62.8899 100.683C63.0632 101.555 62.9741 102.46 62.6338 103.281C62.2935 104.103 61.7174 104.806 60.9781 105.3C60.2388 105.795 59.3695 106.059 58.4801 106.06Z" fill="white" fill-opacity="0.12"/>
<path d="M785.57 324.93C784.979 324.93 784.394 324.813 783.849 324.587C783.303 324.36 782.807 324.028 782.39 323.61L743.94 285.16C743.498 284.748 743.143 284.251 742.897 283.699C742.651 283.147 742.519 282.551 742.509 281.947C742.498 281.343 742.609 280.743 742.835 280.182C743.062 279.622 743.399 279.113 743.826 278.686C744.253 278.258 744.762 277.922 745.322 277.695C745.883 277.469 746.483 277.358 747.087 277.368C747.691 277.379 748.287 277.511 748.839 277.757C749.391 278.003 749.888 278.358 750.3 278.8L788.75 317.25C789.379 317.879 789.807 318.681 789.98 319.553C790.153 320.426 790.064 321.33 789.724 322.151C789.384 322.973 788.807 323.676 788.068 324.17C787.329 324.665 786.46 324.929 785.57 324.93Z" fill="white" fill-opacity="0.12"/>
<path d="M56.09 701C55.4991 701 54.9141 700.884 54.3684 700.657C53.8227 700.431 53.3271 700.099 52.91 699.68L14.4599 661.26C13.6651 660.407 13.2323 659.279 13.2529 658.113C13.2735 656.947 13.7457 655.835 14.5702 655.01C15.3947 654.186 16.507 653.714 17.6728 653.693C18.8386 653.673 19.9669 654.105 20.8199 654.9L59.27 693.35C59.8883 693.981 60.3074 694.78 60.4748 695.647C60.6423 696.514 60.5508 697.412 60.2117 698.228C59.8727 699.043 59.301 699.741 58.5681 700.234C57.8351 700.727 56.9733 700.994 56.09 701Z" fill="white" fill-opacity="0.12"/>
<path d="M667.66 794C667.069 794 666.484 793.883 665.938 793.657C665.393 793.43 664.897 793.098 664.48 792.68L626 754.23C625.205 753.377 624.772 752.249 624.793 751.083C624.814 749.917 625.286 748.805 626.11 747.98C626.935 747.156 628.047 746.683 629.213 746.663C630.379 746.642 631.507 747.075 632.36 747.87L670.81 786.32C671.439 786.949 671.866 787.751 672.04 788.623C672.213 789.495 672.124 790.4 671.784 791.221C671.443 792.043 670.867 792.746 670.128 793.24C669.389 793.735 668.519 793.999 667.63 794H667.66Z" fill="white" fill-opacity="0.12"/>
<path d="M110.77 625.8C110.179 625.8 109.594 625.684 109.048 625.457C108.503 625.231 108.007 624.899 107.59 624.48L69.14 586C68.6979 585.588 68.3433 585.092 68.0973 584.54C67.8514 583.988 67.7191 583.392 67.7085 582.787C67.6978 582.183 67.809 581.583 68.0353 581.023C68.2616 580.462 68.5985 579.953 69.0258 579.526C69.4531 579.099 69.9621 578.762 70.5224 578.536C71.0828 578.309 71.6829 578.198 72.2871 578.209C72.8914 578.219 73.4872 578.352 74.0392 578.598C74.5912 578.844 75.088 579.198 75.5 579.64L114 618.12C114.629 618.75 115.056 619.551 115.23 620.423C115.403 621.296 115.314 622.2 114.974 623.022C114.633 623.844 114.057 624.546 113.318 625.041C112.579 625.535 111.709 625.799 110.82 625.8H110.77Z" fill="white" fill-opacity="0.12"/>
<path d="M150.55 601.13C149.959 601.13 149.374 601.014 148.828 600.787C148.283 600.561 147.787 600.229 147.37 599.81L108.92 561.36C108.478 560.948 108.123 560.451 107.877 559.899C107.631 559.347 107.499 558.752 107.488 558.147C107.478 557.543 107.589 556.943 107.815 556.383C108.042 555.822 108.379 555.313 108.806 554.886C109.233 554.459 109.742 554.122 110.302 553.895C110.863 553.669 111.463 553.558 112.067 553.569C112.671 553.579 113.267 553.712 113.819 553.957C114.371 554.203 114.868 554.558 115.28 555L153.73 593.45C154.359 594.079 154.787 594.881 154.96 595.753C155.133 596.626 155.044 597.53 154.704 598.352C154.363 599.173 153.787 599.876 153.048 600.371C152.309 600.865 151.439 601.129 150.55 601.13Z" fill="white" fill-opacity="0.12"/>
<path d="M502.91 278.35C502.319 278.35 501.734 278.234 501.188 278.007C500.643 277.781 500.147 277.449 499.73 277.03L461.28 238.58C460.838 238.168 460.483 237.671 460.237 237.119C459.991 236.567 459.859 235.971 459.848 235.367C459.838 234.763 459.949 234.163 460.175 233.603C460.401 233.042 460.738 232.533 461.166 232.106C461.593 231.679 462.102 231.342 462.662 231.115C463.223 230.889 463.823 230.778 464.427 230.789C465.031 230.799 465.627 230.931 466.179 231.177C466.731 231.423 467.228 231.778 467.64 232.22L506.09 270.67C506.718 271.299 507.146 272.101 507.32 272.973C507.493 273.846 507.404 274.75 507.064 275.572C506.723 276.393 506.147 277.096 505.408 277.59C504.669 278.085 503.799 278.349 502.91 278.35Z" fill="white" fill-opacity="0.12"/>
<path d="M467.27 786.77C466.679 786.77 466.094 786.654 465.548 786.427C465.003 786.201 464.507 785.869 464.09 785.45L425.64 747C425.198 746.588 424.843 746.092 424.597 745.54C424.351 744.988 424.219 744.392 424.208 743.787C424.198 743.183 424.309 742.583 424.535 742.023C424.762 741.462 425.098 740.953 425.526 740.526C425.953 740.099 426.462 739.762 427.022 739.536C427.583 739.309 428.183 739.198 428.787 739.209C429.391 739.219 429.987 739.352 430.539 739.598C431.091 739.844 431.588 740.198 432 740.64L470.45 779.09C471.079 779.72 471.506 780.521 471.68 781.393C471.853 782.266 471.764 783.17 471.424 783.992C471.083 784.814 470.507 785.516 469.768 786.011C469.029 786.505 468.159 786.77 467.27 786.77Z" fill="white" fill-opacity="0.12"/>
<path d="M789.23 208.66C788.639 208.66 788.054 208.543 787.509 208.317C786.963 208.09 786.467 207.758 786.05 207.34L747.6 168.9C746.805 168.047 746.372 166.919 746.393 165.753C746.414 164.587 746.886 163.475 747.71 162.65C748.535 161.826 749.647 161.354 750.813 161.333C751.979 161.312 753.107 161.745 753.96 162.54L792.41 201C793.039 201.629 793.467 202.431 793.64 203.303C793.813 204.176 793.724 205.08 793.384 205.902C793.044 206.723 792.467 207.426 791.728 207.92C790.989 208.415 790.12 208.679 789.23 208.68V208.66Z" fill="white" fill-opacity="0.12"/>
<path d="M227.25 68.1601C226.659 68.1601 226.074 68.0435 225.528 67.817C224.983 67.5905 224.487 67.2585 224.07 66.84L185.62 28.3901C184.773 27.544 184.296 26.396 184.295 25.1986C184.294 24.0012 184.769 22.8524 185.615 22.0051C186.461 21.1577 187.609 20.6811 188.807 20.6802C190.004 20.6792 191.153 21.154 192 22.0001L230.45 60.4501C231.079 61.0794 231.507 61.8808 231.68 62.7532C231.853 63.6256 231.764 64.5298 231.424 65.3516C231.083 66.1734 230.507 66.8759 229.768 67.3704C229.029 67.8649 228.159 68.1293 227.27 68.1301L227.25 68.1601Z" fill="white" fill-opacity="0.12"/>
<path d="M598 779.39C597.409 779.39 596.824 779.274 596.278 779.047C595.733 778.821 595.237 778.489 594.82 778.07L559.82 743.07C559.378 742.658 559.023 742.161 558.777 741.609C558.531 741.057 558.399 740.461 558.388 739.857C558.378 739.253 558.489 738.653 558.715 738.092C558.942 737.532 559.278 737.023 559.706 736.596C560.133 736.169 560.642 735.832 561.202 735.605C561.763 735.379 562.363 735.268 562.967 735.279C563.571 735.289 564.167 735.421 564.719 735.667C565.271 735.913 565.768 736.268 566.18 736.71L601.18 771.71C601.809 772.339 602.236 773.141 602.41 774.013C602.583 774.886 602.494 775.79 602.154 776.612C601.813 777.433 601.237 778.136 600.498 778.63C599.759 779.125 598.889 779.389 598 779.39Z" fill="white" fill-opacity="0.12"/>
<path d="M176.46 684C175.869 684 175.284 683.883 174.738 683.657C174.193 683.43 173.697 683.098 173.28 682.68L138.28 647.68C137.838 647.268 137.483 646.771 137.237 646.219C136.991 645.667 136.859 645.071 136.848 644.467C136.838 643.863 136.949 643.263 137.175 642.702C137.401 642.142 137.738 641.633 138.166 641.206C138.593 640.778 139.102 640.442 139.662 640.215C140.223 639.989 140.823 639.878 141.427 639.888C142.031 639.899 142.627 640.031 143.179 640.277C143.731 640.523 144.228 640.878 144.64 641.32L179.64 676.32C180.268 676.949 180.696 677.751 180.87 678.623C181.043 679.496 180.954 680.4 180.614 681.222C180.273 682.043 179.697 682.746 178.958 683.24C178.219 683.735 177.349 683.999 176.46 684Z" fill="white" fill-opacity="0.12"/>
<path d="M261.87 789.72C261.279 789.72 260.694 789.603 260.148 789.377C259.603 789.15 259.107 788.818 258.69 788.4L223.69 753.4C223.233 752.994 222.863 752.5 222.604 751.947C222.344 751.394 222.199 750.794 222.179 750.184C222.159 749.573 222.263 748.965 222.485 748.396C222.707 747.827 223.043 747.309 223.472 746.874C223.901 746.439 224.414 746.096 224.98 745.866C225.545 745.636 226.152 745.523 226.763 745.535C227.374 745.546 227.976 745.682 228.532 745.934C229.089 746.186 229.588 746.549 230 747L265 782C265.629 782.629 266.056 783.431 266.23 784.303C266.403 785.175 266.314 786.08 265.974 786.901C265.633 787.723 265.057 788.426 264.318 788.92C263.579 789.415 262.709 789.679 261.82 789.68L261.87 789.72Z" fill="white" fill-opacity="0.12"/>
<path d="M50.8699 616.74C50.2791 616.74 49.694 616.623 49.1483 616.397C48.6027 616.17 48.107 615.838 47.6899 615.42L12.6899 580.42C12.2684 580.006 11.9325 579.512 11.7016 578.968C11.4707 578.424 11.3493 577.84 11.3442 577.249C11.3391 576.658 11.4504 576.071 11.6719 575.523C11.8933 574.975 12.2206 574.476 12.6349 574.055C13.0492 573.633 13.5425 573.298 14.0866 573.067C14.6307 572.836 15.215 572.714 15.806 572.709C16.3971 572.704 16.9833 572.815 17.5313 573.037C18.0793 573.258 18.5784 573.586 18.9999 574L53.9999 609C54.6284 609.629 55.0564 610.431 55.2297 611.303C55.403 612.175 55.3139 613.08 54.9736 613.901C54.6334 614.723 54.0572 615.426 53.3179 615.92C52.5786 616.415 51.7093 616.679 50.8199 616.68L50.8699 616.74Z" fill="white" fill-opacity="0.12"/>
<path d="M493.81 219.25C493.219 219.25 492.634 219.133 492.088 218.907C491.543 218.68 491.047 218.348 490.63 217.93L455.63 182.93C455.188 182.518 454.833 182.021 454.587 181.469C454.341 180.917 454.209 180.321 454.198 179.717C454.188 179.113 454.299 178.513 454.525 177.952C454.752 177.392 455.088 176.883 455.516 176.456C455.943 176.028 456.452 175.692 457.012 175.465C457.573 175.239 458.173 175.128 458.777 175.138C459.381 175.149 459.977 175.281 460.529 175.527C461.081 175.773 461.578 176.128 461.99 176.57L496.99 211.57C497.619 212.199 498.046 213.001 498.22 213.873C498.393 214.746 498.304 215.65 497.964 216.471C497.623 217.293 497.047 217.996 496.308 218.49C495.569 218.985 494.699 219.249 493.81 219.25Z" fill="white" fill-opacity="0.12"/>
<path d="M244.19 733.13C243.599 733.13 243.014 733.013 242.468 732.787C241.923 732.56 241.427 732.228 241.01 731.81L206.01 696.81C205.568 696.398 205.213 695.901 204.967 695.349C204.721 694.797 204.589 694.201 204.578 693.597C204.568 692.993 204.679 692.393 204.905 691.832C205.131 691.272 205.468 690.763 205.896 690.336C206.323 689.908 206.832 689.571 207.392 689.345C207.953 689.119 208.553 689.008 209.157 689.018C209.761 689.029 210.357 689.161 210.909 689.407C211.461 689.653 211.958 690.008 212.37 690.45L247.37 725.45C247.998 726.079 248.426 726.881 248.6 727.753C248.773 728.625 248.684 729.53 248.344 730.351C248.003 731.173 247.427 731.876 246.688 732.37C245.949 732.865 245.079 733.129 244.19 733.13Z" fill="white" fill-opacity="0.12"/>
<path d="M777.32 371.61C776.729 371.61 776.144 371.493 775.598 371.267C775.053 371.04 774.557 370.708 774.14 370.29L739.14 335.29C738.345 334.437 737.912 333.309 737.933 332.143C737.953 330.977 738.426 329.865 739.25 329.04C740.075 328.216 741.187 327.743 742.353 327.723C743.519 327.702 744.647 328.135 745.5 328.93L780.5 363.93C781.128 364.559 781.556 365.361 781.73 366.233C781.903 367.105 781.814 368.01 781.474 368.831C781.133 369.653 780.557 370.356 779.818 370.85C779.079 371.345 778.209 371.609 777.32 371.61Z" fill="white" fill-opacity="0.12"/>
<path d="M780.19 482.41C779.599 482.41 779.014 482.293 778.468 482.067C777.923 481.84 777.427 481.508 777.01 481.09L742.01 446.09C741.215 445.237 740.782 444.109 740.803 442.943C740.824 441.777 741.296 440.665 742.12 439.84C742.945 439.016 744.057 438.543 745.223 438.523C746.389 438.502 747.517 438.935 748.37 439.73L783.37 474.73C783.999 475.359 784.426 476.161 784.6 477.033C784.773 477.906 784.684 478.81 784.344 479.632C784.003 480.453 783.427 481.156 782.688 481.65C781.949 482.145 781.079 482.409 780.19 482.41Z" fill="white" fill-opacity="0.12"/>
<path d="M487.69 454.29C487.1 454.295 486.514 454.184 485.967 453.963C485.419 453.741 484.921 453.414 484.5 453L449.5 418C449.058 417.588 448.703 417.091 448.457 416.539C448.211 415.987 448.079 415.391 448.069 414.787C448.058 414.183 448.169 413.583 448.395 413.022C448.622 412.462 448.959 411.953 449.386 411.526C449.813 411.098 450.322 410.762 450.883 410.535C451.443 410.309 452.043 410.198 452.647 410.208C453.251 410.219 453.847 410.351 454.399 410.597C454.951 410.843 455.448 411.198 455.86 411.64L490.86 446.64C491.489 447.269 491.917 448.071 492.09 448.943C492.263 449.816 492.174 450.72 491.834 451.542C491.494 452.363 490.917 453.066 490.178 453.56C489.439 454.055 488.57 454.319 487.68 454.32L487.69 454.29Z" fill="white" fill-opacity="0.12"/>
<path d="M55.8099 782.58C55.2191 782.58 54.6341 782.463 54.0884 782.237C53.5427 782.01 53.0471 781.678 52.6299 781.26L17.6299 746.26C16.7839 745.415 16.3081 744.269 16.3071 743.073C16.3062 741.878 16.7802 740.731 17.6249 739.885C18.4697 739.039 19.6159 738.563 20.8114 738.562C22.0069 738.561 23.1539 739.035 23.9999 739.88L58.9999 774.88C59.6285 775.509 60.0564 776.311 60.2297 777.183C60.403 778.055 60.3139 778.96 59.9737 779.781C59.6334 780.603 59.0572 781.306 58.3179 781.8C57.5786 782.295 56.7094 782.559 55.8199 782.56L55.8099 782.58Z" fill="white" fill-opacity="0.12"/>
<path d="M170.88 57.21C170.289 57.21 169.704 57.0934 169.159 56.8669C168.613 56.6404 168.117 56.3084 167.7 55.89L132.7 20.89C131.97 20.0324 131.588 18.9324 131.63 17.807C131.672 16.6817 132.134 15.6128 132.925 14.8116C133.716 14.0103 134.779 13.5348 135.904 13.4789C137.029 13.4231 138.133 13.791 139 14.51L174 49.51C174.629 50.1393 175.057 50.9408 175.23 51.8132C175.403 52.6856 175.314 53.5898 174.974 54.4115C174.634 55.2333 174.057 55.9358 173.318 56.4304C172.579 56.9249 171.71 57.1892 170.82 57.19L170.88 57.21Z" fill="white" fill-opacity="0.12"/>
<path d="M269.23 319.87C268.639 319.87 268.054 319.753 267.508 319.527C266.963 319.3 266.467 318.968 266.05 318.55L231.05 283.55C230.608 283.138 230.253 282.641 230.007 282.089C229.761 281.537 229.629 280.941 229.618 280.337C229.608 279.733 229.719 279.133 229.945 278.572C230.172 278.012 230.508 277.503 230.936 277.076C231.363 276.649 231.872 276.312 232.432 276.085C232.993 275.859 233.593 275.748 234.197 275.759C234.801 275.769 235.397 275.901 235.949 276.147C236.501 276.393 236.998 276.748 237.41 277.19L272.41 312.19C273.038 312.819 273.466 313.621 273.64 314.493C273.813 315.366 273.724 316.27 273.384 317.092C273.043 317.913 272.467 318.616 271.728 319.11C270.989 319.605 270.119 319.869 269.23 319.87Z" fill="white" fill-opacity="0.12"/>
<path d="M115.25 59.5999C114.659 59.5999 114.074 59.4833 113.528 59.2568C112.983 59.0303 112.487 58.6983 112.07 58.2799L77.0701 23.2799C76.2752 22.4269 75.8424 21.2986 75.863 20.1328C75.8836 18.967 76.3558 17.8547 77.1803 17.0302C78.0048 16.2057 79.1171 15.7334 80.2829 15.7129C81.4487 15.6923 82.577 16.125 83.4301 16.9199L118.43 51.9199C119.059 52.5492 119.487 53.3507 119.66 54.2231C119.833 55.0955 119.744 55.9997 119.404 56.8214C119.064 57.6432 118.487 58.3457 117.748 58.8403C117.009 59.3348 116.139 59.5991 115.25 59.5999Z" fill="white" fill-opacity="0.12"/>
<path d="M49.2399 283.85C48.6491 283.85 48.0641 283.733 47.5184 283.507C46.9727 283.28 46.4771 282.948 46.0599 282.53L11.0599 247.53C10.6178 247.118 10.2632 246.621 10.0172 246.069C9.7713 245.517 9.63905 244.921 9.62839 244.317C9.61773 243.713 9.72887 243.113 9.9552 242.552C10.1815 241.992 10.5184 241.483 10.9457 241.056C11.373 240.629 11.882 240.292 12.4423 240.065C13.0027 239.839 13.6029 239.728 14.2071 239.738C14.8113 239.749 15.4072 239.881 15.9592 240.127C16.5112 240.373 17.008 240.728 17.4199 241.17L52.4199 276.17C53.0485 276.799 53.4764 277.601 53.6497 278.473C53.823 279.346 53.7339 280.25 53.3937 281.072C53.0534 281.893 52.4772 282.596 51.7379 283.09C50.9986 283.585 50.1294 283.849 49.2399 283.85Z" fill="white" fill-opacity="0.12"/>
<path d="M284.34 646.15C283.749 646.15 283.164 646.033 282.618 645.807C282.073 645.58 281.577 645.248 281.16 644.83L246.16 609.83C245.718 609.418 245.363 608.921 245.117 608.369C244.871 607.817 244.739 607.221 244.728 606.617C244.718 606.013 244.829 605.413 245.055 604.852C245.282 604.292 245.618 603.783 246.046 603.356C246.473 602.928 246.982 602.591 247.542 602.365C248.103 602.139 248.703 602.028 249.307 602.038C249.911 602.049 250.507 602.181 251.059 602.427C251.611 602.673 252.108 603.028 252.52 603.47L287.52 638.47C288.149 639.099 288.577 639.901 288.75 640.773C288.923 641.645 288.834 642.55 288.494 643.371C288.153 644.193 287.577 644.896 286.838 645.39C286.099 645.885 285.229 646.149 284.34 646.15Z" fill="white" fill-opacity="0.12"/>
<path d="M209.14 367.79C208.549 367.79 207.964 367.674 207.418 367.447C206.873 367.221 206.377 366.889 205.96 366.47L170.96 331.47C170.165 330.617 169.732 329.489 169.753 328.323C169.773 327.157 170.246 326.045 171.07 325.22C171.895 324.396 173.007 323.924 174.173 323.903C175.339 323.882 176.467 324.315 177.32 325.11L212.32 360.11C212.949 360.739 213.376 361.541 213.55 362.413C213.723 363.286 213.634 364.19 213.294 365.012C212.953 365.833 212.377 366.536 211.638 367.03C210.899 367.525 210.029 367.789 209.14 367.79Z" fill="white" fill-opacity="0.12"/>
<path d="M390.08 731.65C389.489 731.65 388.904 731.533 388.358 731.307C387.813 731.08 387.317 730.748 386.9 730.33L351.9 695.33C351.458 694.918 351.103 694.421 350.857 693.869C350.611 693.317 350.479 692.721 350.468 692.117C350.458 691.513 350.569 690.913 350.795 690.352C351.022 689.792 351.358 689.283 351.786 688.856C352.213 688.428 352.722 688.091 353.282 687.865C353.843 687.639 354.443 687.528 355.047 687.538C355.651 687.549 356.247 687.681 356.799 687.927C357.351 688.173 357.848 688.528 358.26 688.97L393.26 723.97C393.889 724.599 394.317 725.401 394.49 726.273C394.663 727.145 394.574 728.05 394.234 728.871C393.893 729.693 393.317 730.396 392.578 730.89C391.839 731.385 390.969 731.649 390.08 731.65Z" fill="white" fill-opacity="0.12"/>
<path d="M402 62.6501C401.409 62.6501 400.824 62.5335 400.278 62.307C399.733 62.0805 399.237 61.7485 398.82 61.3301L363.82 26.3301C363.378 25.9181 363.023 25.4213 362.777 24.8693C362.531 24.3173 362.399 23.7214 362.388 23.1172C362.378 22.513 362.489 21.9128 362.715 21.3525C362.942 20.7922 363.278 20.2832 363.706 19.8559C364.133 19.4285 364.642 19.0917 365.202 18.8654C365.763 18.639 366.363 18.5279 366.967 18.5385C367.571 18.5492 368.167 18.6815 368.719 18.9274C369.271 19.1734 369.768 19.528 370.18 19.9701L405.18 54.9701C405.808 55.5994 406.236 56.4009 406.41 57.2733C406.583 58.1457 406.494 59.0499 406.154 59.8716C405.813 60.6934 405.237 61.3959 404.498 61.8904C403.759 62.385 402.889 62.6493 402 62.6501Z" fill="white" fill-opacity="0.12"/>
<path d="M611.49 112.77C610.899 112.77 610.314 112.653 609.769 112.427C609.223 112.2 608.727 111.868 608.31 111.45L573.31 76.45C572.868 76.038 572.513 75.5412 572.267 74.9892C572.022 74.4372 571.889 73.8413 571.879 73.2371C571.868 72.6329 571.979 72.0327 572.205 71.4724C572.432 70.9121 572.769 70.403 573.196 69.9757C573.623 69.5484 574.132 69.2116 574.693 68.9852C575.253 68.7589 575.853 68.6478 576.457 68.6584C577.062 68.6691 577.657 68.8013 578.209 69.0473C578.761 69.2932 579.258 69.6478 579.67 70.09L614.67 105.09C615.299 105.719 615.727 106.521 615.9 107.393C616.073 108.266 615.984 109.17 615.644 109.992C615.304 110.813 614.727 111.516 613.988 112.01C613.249 112.505 612.38 112.769 611.49 112.77Z" fill="white" fill-opacity="0.12"/>
<path d="M428 223.18C427.409 223.18 426.824 223.063 426.279 222.837C425.733 222.61 425.237 222.278 424.82 221.86L389.82 186.86C389.025 186.007 388.592 184.879 388.613 183.713C388.634 182.547 389.106 181.435 389.93 180.61C390.755 179.786 391.867 179.314 393.033 179.293C394.199 179.272 395.327 179.705 396.18 180.5L431.18 215.5C431.809 216.129 432.237 216.931 432.41 217.803C432.583 218.676 432.494 219.58 432.154 220.402C431.814 221.223 431.237 221.926 430.498 222.42C429.759 222.915 428.889 223.179 428 223.18Z" fill="white" fill-opacity="0.12"/>
</g>
<defs>
<clipPath id="clip0">
<rect width="800" height="800" fill="white"/>
</clipPath>
</defs>
</svg>
