<svg width="515" height="503" viewBox="0 0 515 503" fill="none" xmlns="http://www.w3.org/2000/svg">
<g filter="url(#filter0_d)">
<path d="M362 28H40C35.5817 28 32 31.5817 32 36V420C32 424.418 35.5817 428 40 428H362C366.418 428 370 424.418 370 420V36C370 31.5817 366.418 28 362 28Z" fill="white"/>
<path d="M66 362C71.5228 362 76 357.523 76 352C76 346.477 71.5228 342 66 342C60.4772 342 56 346.477 56 352C56 357.523 60.4772 362 66 362Z" fill="#FF9C21"/>
<path d="M96.5 349H86.5C85.1193 349 84 350.119 84 351.5C84 352.881 85.1193 354 86.5 354H96.5C97.8807 354 99 352.881 99 351.5C99 350.119 97.8807 349 96.5 349Z" fill="#A1A8BF"/>
<path d="M141.5 349H106.5C105.119 349 104 350.119 104 351.5C104 352.881 105.119 354 106.5 354H141.5C142.881 354 144 352.881 144 351.5C144 350.119 142.881 349 141.5 349Z" fill="#E7E9F1"/>
<path d="M66 388C71.5228 388 76 383.523 76 378C76 372.477 71.5228 368 66 368C60.4772 368 56 372.477 56 378C56 383.523 60.4772 388 66 388Z" fill="#2756FF"/>
<path d="M96.5 375H86.5C85.1193 375 84 376.119 84 377.5C84 378.881 85.1193 380 86.5 380H96.5C97.8807 380 99 378.881 99 377.5C99 376.119 97.8807 375 96.5 375Z" fill="#A1A8BF"/>
<path d="M141.5 375H106.5C105.119 375 104 376.119 104 377.5C104 378.881 105.119 380 106.5 380H141.5C142.881 380 144 378.881 144 377.5C144 376.119 142.881 375 141.5 375Z" fill="#E7E9F1"/>
<path d="M211 362C216.523 362 221 357.523 221 352C221 346.477 216.523 342 211 342C205.477 342 201 346.477 201 352C201 357.523 205.477 362 211 362Z" fill="#8AE45F"/>
<path d="M241.5 349H231.5C230.119 349 229 350.119 229 351.5C229 352.881 230.119 354 231.5 354H241.5C242.881 354 244 352.881 244 351.5C244 350.119 242.881 349 241.5 349Z" fill="#A1A8BF"/>
<path d="M286.5 349H251.5C250.119 349 249 350.119 249 351.5C249 352.881 250.119 354 251.5 354H286.5C287.881 354 289 352.881 289 351.5C289 350.119 287.881 349 286.5 349Z" fill="#E7E9F1"/>
<path d="M211 388C216.523 388 221 383.523 221 378C221 372.477 216.523 368 211 368C205.477 368 201 372.477 201 378C201 383.523 205.477 388 211 388Z" fill="#CFD3E2"/>
<path d="M241.5 375H231.5C230.119 375 229 376.119 229 377.5C229 378.881 230.119 380 231.5 380H241.5C242.881 380 244 378.881 244 377.5C244 376.119 242.881 375 241.5 375Z" fill="#A1A8BF"/>
<path d="M286.5 375H251.5C250.119 375 249 376.119 249 377.5C249 378.881 250.119 380 251.5 380H286.5C287.881 380 289 378.881 289 377.5C289 376.119 287.881 375 286.5 375Z" fill="#E7E9F1"/>
<path d="M201 292C250.706 292 291 251.706 291 202C291 152.294 250.706 112 201 112C151.294 112 111 152.294 111 202C111 251.706 151.294 292 201 292Z" stroke="#E7E9F1" stroke-width="15" stroke-linejoin="round"/>
<path d="M111 202C111 251.706 151.294 292 201 292" stroke="#2756FF" stroke-width="15" stroke-linejoin="round"/>
<path d="M133 261C149.419 279.976 173.792 292 201 292" stroke="#2756FF" stroke-width="15" stroke-linejoin="round"/>
<path d="M201 292C250.706 292 291 251.706 291 202C291 152.294 250.706 112 201 112" stroke="#8AE45F" stroke-width="15" stroke-linejoin="round"/>
<path d="M282 163C276.749 152.131 269.398 142.477 260.476 134.572C244.618 120.523 223.799 112 201 112" stroke="#FF9C21" stroke-width="15" stroke-linejoin="round"/>
<path d="M201 240C223.644 240 242 222.091 242 200C242 177.909 223.644 160 201 160C178.356 160 160 177.909 160 200C160 222.091 178.356 240 201 240Z" fill="#F8F9FB"/>
<path fill-rule="evenodd" clip-rule="evenodd" d="M212.965 195.33C212.956 195.229 212.936 195.128 212.906 195.031C212.872 194.933 212.827 194.839 212.772 194.752C212.751 194.7 212.727 194.65 212.7 194.602L208.2 188.602C207.917 188.223 207.472 188 207 188H195C194.528 188 194.083 188.222 193.8 188.6L189.3 194.6C189.273 194.649 189.249 194.699 189.228 194.75C189.173 194.838 189.128 194.932 189.094 195.031C189.064 195.128 189.044 195.229 189.035 195.33C189.019 195.386 189.008 195.443 189 195.5V209C189 210.657 190.343 212 192 212H210C211.657 212 213 210.657 213 209V195.5C212.992 195.443 212.981 195.386 212.965 195.33ZM201 208.25L196.5 203H199.5V198.5H202.5V203H205.5L201 208.25ZM193.5 194L195.75 191H206.25L208.5 194H193.5Z" fill="#A1A8BF"/>
<g filter="url(#filter1_d)">
<path d="M333 91H243C237.477 91 233 95.4772 233 101V161C233 166.523 237.477 171 243 171H333C338.523 171 343 166.523 343 161V101C343 95.4772 338.523 91 333 91Z" fill="black"/>
</g>
<path d="M333 91H243C237.477 91 233 95.4772 233 101V161C233 166.523 237.477 171 243 171H333C338.523 171 343 166.523 343 161V101C343 95.4772 338.523 91 333 91Z" fill="#0D0F17"/>
<path d="M293.657 165.172L290.828 162.343C289.266 160.781 286.734 160.781 285.172 162.343L282.343 165.172C280.781 166.734 280.781 169.266 282.343 170.828L285.172 173.657C286.734 175.219 289.266 175.219 290.828 173.657L293.657 170.828C295.219 169.266 295.219 166.734 293.657 165.172Z" fill="#0D0F17"/>
<path fill-rule="evenodd" clip-rule="evenodd" d="M304.001 117.8C304.262 117.8 304.506 117.885 304.656 118.028L310.256 123.361C310.427 123.524 310.446 123.737 310.31 123.913C310.172 124.09 309.899 124.2 309.601 124.2H298.399C298.101 124.2 297.828 124.09 297.69 123.913C297.554 123.737 297.573 123.524 297.744 123.361L303.344 118.028C303.494 117.885 303.738 117.8 303.999 117.8C304 117.8 304 117.8 304.001 117.8C304 117.8 304 117.8 304.001 117.8Z" fill="#3C94E4"/>
<path d="M255.866 127.239C259.787 127.239 262.591 125.082 262.582 122.099C262.591 119.926 261.21 118.375 258.645 118.051V117.915C260.597 117.565 261.943 116.185 261.935 114.224C261.943 111.472 259.531 109.307 255.918 109.307C252.338 109.307 249.645 111.403 249.594 114.42H253.131C253.173 113.091 254.392 112.23 255.901 112.23C257.392 112.23 258.389 113.134 258.381 114.446C258.389 115.818 257.222 116.747 255.543 116.747H253.915V119.457H255.543C257.52 119.457 258.756 120.446 258.747 121.852C258.756 123.241 257.562 124.196 255.875 124.196C254.247 124.196 253.028 123.344 252.96 122.065H249.244C249.304 125.116 252.031 127.239 255.866 127.239ZM264.971 123.932H273.349V127H276.877V123.932H279.042V120.974H276.877V109.545H272.258L264.971 121.026V123.932ZM273.417 120.974H268.687V120.838L273.281 113.568H273.417V120.974ZM291.055 123.727C291.063 125.824 292.401 127.605 294.898 127.605C297.37 127.605 298.751 125.824 298.742 123.727V122.807C298.751 120.693 297.404 118.929 294.898 118.929C292.435 118.929 291.063 120.71 291.055 122.807V123.727ZM282.097 113.739C282.106 115.835 283.444 117.599 285.933 117.599C288.413 117.599 289.793 115.852 289.785 113.739V112.818C289.793 110.705 288.447 108.94 285.933 108.94C283.495 108.94 282.106 110.705 282.097 112.818V113.739ZM282.933 127H285.157L297.157 109.545H294.933L282.933 127ZM293.535 122.807C293.543 121.972 293.876 121.111 294.898 121.111C295.972 121.111 296.254 121.972 296.245 122.807V123.727C296.254 124.562 295.938 125.406 294.898 125.406C293.859 125.406 293.543 124.537 293.535 123.727V122.807ZM284.594 112.818C284.603 112.009 284.918 111.122 285.933 111.122C287.006 111.122 287.296 111.983 287.288 112.818V113.739C287.296 114.574 286.972 115.418 285.933 115.418C284.927 115.418 284.603 114.574 284.594 113.739V112.818Z" fill="white"/>
<path d="M323 146H253C250.239 146 248 148.239 248 151C248 153.761 250.239 156 253 156H323C325.761 156 328 153.761 328 151C328 148.239 325.761 146 323 146Z" fill="#505568"/>
<path d="M62.6719 57.4929H64.1534C64.1087 55.8622 62.6669 54.679 60.5987 54.679C58.5554 54.679 56.9893 55.8473 56.9893 57.6023C56.9893 59.0192 58.0036 59.8494 59.6392 60.2919L60.8423 60.62C61.9311 60.9084 62.7713 61.2663 62.7713 62.1712C62.7713 63.1655 61.8217 63.8217 60.5142 63.8217C59.331 63.8217 58.3466 63.2947 58.2571 62.1861H56.7159C56.8153 64.0305 58.2422 65.169 60.5241 65.169C62.9155 65.169 64.2926 63.9112 64.2926 62.1861C64.2926 60.3516 62.657 59.6406 61.3643 59.3224L60.37 59.0639C59.5746 58.8601 58.5156 58.4872 58.5206 57.5128C58.5206 56.6477 59.3111 56.0064 60.5639 56.0064C61.7322 56.0064 62.5625 56.5533 62.6719 57.4929ZM67.4956 60.4659C67.4956 59.2479 68.2662 58.5518 69.3251 58.5518C70.3493 58.5518 70.9608 59.2031 70.9608 60.3217V65H72.4473V60.1428C72.4473 58.2386 71.4032 57.2642 69.8322 57.2642C68.644 57.2642 67.9281 57.7812 67.5701 58.6065H67.4757V54.8182H66.0091V65H67.4956V60.4659ZM74.4309 65H75.9174V57.3636H74.4309V65ZM75.1816 56.1854C75.6937 56.1854 76.1213 55.7876 76.1213 55.3004C76.1213 54.8132 75.6937 54.4105 75.1816 54.4105C74.6646 54.4105 74.242 54.8132 74.242 55.3004C74.242 55.7876 74.6646 56.1854 75.1816 56.1854ZM77.9173 67.8636H79.4038V63.8118H79.4933C79.7617 64.299 80.3086 65.1491 81.7006 65.1491C83.5501 65.1491 84.8924 63.6676 84.8924 61.1967C84.8924 58.7209 83.5302 57.2642 81.6857 57.2642C80.2688 57.2642 79.7567 58.1293 79.4933 58.6016H79.369V57.3636H77.9173V67.8636ZM79.3739 61.1818C79.3739 59.5859 80.07 58.527 81.3675 58.527C82.7148 58.527 83.391 59.6655 83.391 61.1818C83.391 62.7131 82.695 63.8814 81.3675 63.8814C80.0898 63.8814 79.3739 62.7876 79.3739 61.1818ZM86.5579 65H88.0444V60.2919C88.0444 59.2628 88.7653 58.5469 89.6104 58.5469C90.4357 58.5469 91.0075 59.0938 91.0075 59.924V65H92.489V60.1328C92.489 59.2131 93.0508 58.5469 94.0202 58.5469C94.8058 58.5469 95.4521 58.9844 95.4521 60.0185V65H96.9386V59.8793C96.9386 58.1342 95.9641 57.2642 94.582 57.2642C93.4833 57.2642 92.658 57.7912 92.2901 58.6065H92.2106C91.8775 57.7713 91.1765 57.2642 90.1573 57.2642C89.1481 57.2642 88.3974 57.7663 88.0792 58.6065H87.9847V57.3636H86.5579V65ZM102.222 65.1541C103.888 65.1541 105.066 64.3338 105.404 63.0909L103.997 62.8374C103.729 63.5582 103.082 63.9261 102.237 63.9261C100.964 63.9261 100.109 63.1009 100.069 61.6293H105.498V61.1023C105.498 58.343 103.848 57.2642 102.118 57.2642C99.9899 57.2642 98.5879 58.8849 98.5879 61.2315C98.5879 63.603 99.97 65.1541 102.222 65.1541ZM100.074 60.5156C100.134 59.4318 100.92 58.4922 102.128 58.4922C103.281 58.4922 104.037 59.3473 104.042 60.5156H100.074ZM108.634 60.4659C108.634 59.2479 109.38 58.5518 110.414 58.5518C111.423 58.5518 112.035 59.2131 112.035 60.3217V65H113.521V60.1428C113.521 58.2536 112.482 57.2642 110.921 57.2642C109.773 57.2642 109.022 57.7962 108.669 58.6065H108.575V57.3636H107.148V65H108.634V60.4659ZM119.08 57.3636H117.513V55.5341H116.027V57.3636H114.908V58.5568H116.027V63.0661C116.022 64.4531 117.081 65.1243 118.254 65.0994C118.727 65.0945 119.045 65.005 119.219 64.9403L118.95 63.7124C118.851 63.7322 118.667 63.777 118.428 63.777C117.946 63.777 117.513 63.6179 117.513 62.7578V58.5568H119.08V57.3636ZM126.323 59.228C126.015 58.0398 125.085 57.2642 123.435 57.2642C121.71 57.2642 120.487 58.174 120.487 59.5263C120.487 60.6101 121.143 61.331 122.575 61.6491L123.867 61.9325C124.603 62.0966 124.946 62.4247 124.946 62.902C124.946 63.4936 124.315 63.956 123.34 63.956C122.45 63.956 121.879 63.5732 121.7 62.8224L120.263 63.0412C120.511 64.3935 121.635 65.1541 123.35 65.1541C125.195 65.1541 126.472 64.1747 126.472 62.7926C126.472 61.7138 125.786 61.0476 124.384 60.7244L123.171 60.446C122.331 60.2472 121.968 59.9638 121.973 59.4467C121.968 58.8601 122.604 58.4425 123.45 58.4425C124.374 58.4425 124.802 58.9545 124.976 59.4666L126.323 59.228ZM131.931 65H133.383V63.8118H133.507C133.776 64.299 134.322 65.1491 135.714 65.1491C137.564 65.1491 138.906 63.6676 138.906 61.1967C138.906 58.7209 137.544 57.2642 135.7 57.2642C134.283 57.2642 133.771 58.1293 133.507 58.6016H133.418V54.8182H131.931V65ZM133.388 61.1818C133.388 59.5859 134.084 58.527 135.381 58.527C136.729 58.527 137.405 59.6655 137.405 61.1818C137.405 62.7131 136.709 63.8814 135.381 63.8814C134.104 63.8814 133.388 62.7876 133.388 61.1818ZM141.242 67.8636C142.47 67.8636 143.245 67.2223 143.688 66.0192L146.845 57.3786L145.239 57.3636L143.305 63.2898H143.225L141.291 57.3636H139.7L142.494 65.0994L142.311 65.6065C141.933 66.6207 141.401 66.7053 140.585 66.4815L140.227 67.6996C140.406 67.7791 140.794 67.8636 141.242 67.8636ZM157.623 57.4929H159.105C159.06 55.8622 157.618 54.679 155.55 54.679C153.507 54.679 151.941 55.8473 151.941 57.6023C151.941 59.0192 152.955 59.8494 154.59 60.2919L155.794 60.62C156.882 60.9084 157.722 61.2663 157.722 62.1712C157.722 63.1655 156.773 63.8217 155.465 63.8217C154.282 63.8217 153.298 63.2947 153.208 62.1861H151.667C151.767 64.0305 153.193 65.169 155.475 65.169C157.867 65.169 159.244 63.9112 159.244 62.1861C159.244 60.3516 157.608 59.6406 156.316 59.3224L155.321 59.0639C154.526 58.8601 153.467 58.4872 153.472 57.5128C153.472 56.6477 154.262 56.0064 155.515 56.0064C156.683 56.0064 157.514 56.5533 157.623 57.4929ZM164.525 57.3636H162.959V55.5341H161.472V57.3636H160.354V58.5568H161.472V63.0661C161.467 64.4531 162.526 65.1243 163.7 65.0994C164.172 65.0945 164.49 65.005 164.664 64.9403L164.396 63.7124C164.296 63.7322 164.112 63.777 163.874 63.777C163.391 63.777 162.959 63.6179 162.959 62.7578V58.5568H164.525V57.3636ZM168.392 65.169C169.654 65.169 170.365 64.5277 170.649 63.956H170.708V65H172.16V59.929C172.16 57.7067 170.41 57.2642 169.197 57.2642C167.815 57.2642 166.542 57.821 166.045 59.2131L167.442 59.5312C167.661 58.9893 168.218 58.4673 169.217 58.4673C170.176 58.4673 170.669 58.9695 170.669 59.8345V59.8693C170.669 60.4112 170.112 60.4013 168.74 60.5604C167.293 60.7294 165.811 61.1072 165.811 62.8423C165.811 64.3438 166.94 65.169 168.392 65.169ZM168.715 63.9759C167.874 63.9759 167.268 63.598 167.268 62.8622C167.268 62.0668 167.974 61.7834 168.834 61.669C169.316 61.6044 170.46 61.4751 170.673 61.2614V62.2457C170.673 63.1506 169.953 63.9759 168.715 63.9759ZM177.705 57.3636H176.138V55.5341H174.652V57.3636H173.533V58.5568H174.652V63.0661C174.647 64.4531 175.706 65.1243 176.879 65.0994C177.352 65.0945 177.67 65.005 177.844 64.9403L177.575 63.7124C177.476 63.7322 177.292 63.777 177.053 63.777C176.571 63.777 176.138 63.6179 176.138 62.7578V58.5568H177.705V57.3636ZM184.186 61.8331C184.191 63.1307 183.227 63.7472 182.392 63.7472C181.472 63.7472 180.835 63.081 180.835 62.0419V57.3636H179.349V62.2209C179.349 64.1151 180.388 65.0994 181.855 65.0994C183.003 65.0994 183.784 64.4929 184.137 63.6776H184.216V65H185.678V57.3636H184.186V61.8331ZM193.397 59.228C193.089 58.0398 192.159 57.2642 190.509 57.2642C188.784 57.2642 187.561 58.174 187.561 59.5263C187.561 60.6101 188.217 61.331 189.649 61.6491L190.941 61.9325C191.677 62.0966 192.02 62.4247 192.02 62.902C192.02 63.4936 191.389 63.956 190.414 63.956C189.525 63.956 188.953 63.5732 188.774 62.8224L187.337 63.0412C187.586 64.3935 188.709 65.1541 190.424 65.1541C192.269 65.1541 193.547 64.1747 193.547 62.7926C193.547 61.7138 192.86 61.0476 191.458 60.7244L190.245 60.446C189.405 60.2472 189.042 59.9638 189.047 59.4467C189.042 58.8601 189.679 58.4425 190.524 58.4425C191.449 58.4425 191.876 58.9545 192.05 59.4666L193.397 59.228Z" fill="#0D0F17"/>
</g>
<g filter="url(#filter2_d)">
<path d="M475 309H153C148.582 309 145 312.582 145 317V459C145 463.418 148.582 467 153 467H475C479.418 467 483 463.418 483 459V317C483 312.582 479.418 309 475 309Z" fill="white"/>
<path d="M250.193 423.909H252.875L252.898 421.284C257.818 420.909 260.67 418.295 260.682 414.352C260.67 410.477 257.75 408.42 253.705 407.511L253.034 407.352L253.08 401.67C254.591 402.023 255.511 402.989 255.648 404.42H260.364C260.307 400.659 257.5 397.966 253.125 397.489L253.148 394.818H250.466L250.443 397.466C246 397.898 242.864 400.58 242.886 404.455C242.875 407.886 245.295 409.852 249.227 410.795L250.318 411.068L250.261 417.08C248.409 416.727 247.159 415.591 247.034 413.693H242.273C242.386 418.284 245.398 420.852 250.216 421.273L250.193 423.909ZM252.943 417.08L252.989 411.773C254.75 412.33 255.705 413.045 255.716 414.341C255.705 415.716 254.659 416.739 252.943 417.08ZM250.352 406.659C248.932 406.17 247.909 405.432 247.932 404.125C247.932 402.909 248.795 401.966 250.398 401.636L250.352 406.659ZM272.276 397.409C267.071 397.386 263.56 400.795 263.582 405.477C263.594 409.818 266.605 412.966 270.73 412.966C273.287 412.966 275.56 411.727 276.594 409.682H276.753C276.741 414.295 275.139 417.102 272.105 417.102C270.321 417.102 269.037 416.125 268.662 414.432H263.81C264.264 418.352 267.446 421.318 272.105 421.318C277.866 421.318 281.582 416.659 281.571 408.761C281.56 400.33 277.06 397.432 272.276 397.409ZM272.31 401.273C274.571 401.273 276.241 403.114 276.264 405.33C276.276 407.557 274.514 409.398 272.264 409.398C269.991 409.398 268.366 407.625 268.355 405.341C268.332 403.068 270.026 401.273 272.31 401.273ZM289.318 417.818H285.318L285.261 419.091C285.125 422.182 284.239 425.352 283.909 426.682H287.045C287.591 425.307 288.886 422.08 289.193 419.068L289.318 417.818ZM301.443 421.318C306.693 421.318 310.466 418.511 310.477 414.739C310.466 411.83 308.227 409.455 305.432 408.989V408.83C307.864 408.33 309.602 406.227 309.614 403.67C309.602 400.068 306.148 397.409 301.443 397.409C296.727 397.409 293.273 400.068 293.284 403.67C293.273 406.216 294.989 408.33 297.466 408.83V408.989C294.625 409.455 292.409 411.83 292.42 414.739C292.409 418.511 296.193 421.318 301.443 421.318ZM301.443 417.705C299.102 417.705 297.534 416.318 297.534 414.352C297.534 412.341 299.182 410.886 301.443 410.886C303.693 410.886 305.352 412.341 305.352 414.352C305.352 416.33 303.773 417.705 301.443 417.705ZM301.443 407.307C299.477 407.307 298.08 406.023 298.08 404.182C298.08 402.364 299.455 401.114 301.443 401.114C303.42 401.114 304.807 402.375 304.807 404.182C304.807 406.023 303.398 407.307 301.443 407.307ZM313.918 421H330.509V416.977H320.736V416.818L324.134 413.489C328.918 409.125 330.202 406.943 330.202 404.295C330.202 400.261 326.906 397.409 321.918 397.409C317.031 397.409 313.679 400.33 313.69 404.898H318.361C318.349 402.67 319.759 401.307 321.884 401.307C323.929 401.307 325.452 402.58 325.452 404.625C325.452 406.477 324.315 407.75 322.202 409.784L313.918 417.455V421ZM342.756 421.318C348.006 421.318 351.778 418.511 351.79 414.739C351.778 411.83 349.54 409.455 346.744 408.989V408.83C349.176 408.33 350.915 406.227 350.926 403.67C350.915 400.068 347.46 397.409 342.756 397.409C338.04 397.409 334.585 400.068 334.597 403.67C334.585 406.216 336.301 408.33 338.778 408.83V408.989C335.938 409.455 333.722 411.83 333.733 414.739C333.722 418.511 337.506 421.318 342.756 421.318ZM342.756 417.705C340.415 417.705 338.847 416.318 338.847 414.352C338.847 412.341 340.494 410.886 342.756 410.886C345.006 410.886 346.665 412.341 346.665 414.352C346.665 416.33 345.085 417.705 342.756 417.705ZM342.756 407.307C340.79 407.307 339.392 406.023 339.392 404.182C339.392 402.364 340.767 401.114 342.756 401.114C344.733 401.114 346.119 402.375 346.119 404.182C346.119 406.023 344.71 407.307 342.756 407.307Z" fill="#1B1B28"/>
<path fill-rule="evenodd" clip-rule="evenodd" d="M404.001 414.8C404.262 414.8 404.506 414.885 404.656 415.028L410.256 420.361C410.427 420.524 410.446 420.737 410.31 420.913C410.172 421.09 409.899 421.2 409.601 421.2H398.399C398.101 421.2 397.828 421.09 397.69 420.913C397.554 420.737 397.573 420.524 397.744 420.361L403.344 415.028C403.494 414.885 403.738 414.8 403.999 414.8C404 414.8 404 414.8 404.001 414.8C404 414.8 404 414.8 404.001 414.8Z" fill="#8AE45F"/>
<path d="M356.767 418.955H362.352V421H364.705V418.955H366.148V416.983H364.705V409.364H361.625L356.767 417.017V418.955ZM362.398 416.983H359.244V416.892L362.307 412.045H362.398V416.983ZM369.006 421.148C369.733 421.148 370.364 420.54 370.369 419.784C370.364 419.04 369.733 418.432 369.006 418.432C368.256 418.432 367.636 419.04 367.642 419.784C367.636 420.54 368.256 421.148 369.006 421.148ZM376.49 421.159C379.081 421.159 380.842 419.472 380.837 417.119C380.842 414.892 379.286 413.29 377.189 413.29C376.166 413.29 375.286 413.716 374.876 414.29H374.808L375.109 411.375H380.195V409.364H373.081L372.53 415.5L374.717 415.892C375.075 415.409 375.768 415.108 376.456 415.108C377.626 415.114 378.467 415.96 378.467 417.182C378.467 418.392 377.643 419.227 376.49 419.227C375.513 419.227 374.723 418.614 374.666 417.71H372.28C372.325 419.722 374.081 421.159 376.49 421.159ZM388.922 418.818C388.928 420.216 389.82 421.403 391.484 421.403C393.132 421.403 394.053 420.216 394.047 418.818V418.205C394.053 416.795 393.155 415.619 391.484 415.619C389.842 415.619 388.928 416.807 388.922 418.205V418.818ZM382.95 412.159C382.956 413.557 383.848 414.733 385.507 414.733C387.161 414.733 388.081 413.568 388.075 412.159V411.545C388.081 410.136 387.183 408.96 385.507 408.96C383.882 408.96 382.956 410.136 382.95 411.545V412.159ZM383.507 421H384.99L392.99 409.364H391.507L383.507 421ZM390.575 418.205C390.581 417.648 390.803 417.074 391.484 417.074C392.2 417.074 392.388 417.648 392.382 418.205V418.818C392.388 419.375 392.178 419.938 391.484 419.938C390.791 419.938 390.581 419.358 390.575 418.818V418.205ZM384.615 411.545C384.621 411.006 384.831 410.415 385.507 410.415C386.223 410.415 386.416 410.989 386.411 411.545V412.159C386.416 412.716 386.2 413.278 385.507 413.278C384.837 413.278 384.621 412.716 384.615 412.159V411.545Z" fill="#1B1B28"/>
<path d="M197 439C212.464 439 225 426.464 225 411C225 395.536 212.464 383 197 383C181.536 383 169 395.536 169 411C169 426.464 181.536 439 197 439Z" fill="#E8EDFF"/>
<path d="M197 412C198.105 412 199 411.105 199 410C199 408.895 198.105 408 197 408C195.895 408 195 408.895 195 410C195 411.105 195.895 412 197 412Z" fill="#2756FF"/>
<path fill-rule="evenodd" clip-rule="evenodd" d="M204 403V400.5C204 399.672 203.328 399 202.5 399C201.672 399 201 399.672 201 400.5V403H200V400.5C200 399.672 199.328 399 198.5 399C197.672 399 197 399.672 197 400.5V403H196V400.5C196 399.672 195.328 399 194.5 399C193.672 399 193 399.672 193 400.5V403H192V400.5C192 399.672 191.328 399 190.5 399C189.672 399 189 399.672 189 400.5V403H185V417H189.262C190.151 420.449 193.273 423 197 423C200.727 423 203.848 420.449 204.738 417H209V415V403H204ZM207 415H205V407C202.791 407 201 408.791 201 411V414C199.992 414 199.083 414.385 198.38 415C197 416.281 196.5 418.031 196.5 418.031C196.5 418.031 195.985 416.731 196.228 415H187V405H207V415Z" fill="#2756FF"/>
<path d="M170.651 346L171.675 343.116H175.791L176.815 346H178.108L174.369 335.818H173.097L169.358 346H170.651ZM172.062 342.023L173.693 337.429H173.773L175.403 342.023H172.062ZM184.822 338.364H183.549L181.441 344.449H181.362L179.254 338.364H177.981L180.805 346H181.998L184.822 338.364ZM189.299 346.159C190.85 346.159 191.984 345.384 192.342 344.23L191.208 343.912C190.91 344.707 190.219 345.105 189.299 345.105C187.922 345.105 186.972 344.215 186.918 342.58H192.461V342.082C192.461 339.239 190.771 338.264 189.18 338.264C187.112 338.264 185.739 339.895 185.739 342.241C185.739 344.588 187.092 346.159 189.299 346.159ZM186.918 341.565C186.997 340.377 187.837 339.318 189.18 339.318C190.452 339.318 191.268 340.273 191.268 341.565H186.918ZM194.246 346H195.419V341.168C195.419 340.134 196.234 339.378 197.348 339.378C197.661 339.378 197.984 339.438 198.064 339.457V338.264C197.93 338.254 197.621 338.244 197.447 338.244C196.533 338.244 195.737 338.761 195.459 339.517H195.379V338.364H194.246V346ZM201.702 346.179C203.034 346.179 203.73 345.463 203.969 344.966H204.029V346H205.202V340.969C205.202 338.543 203.352 338.264 202.378 338.264C201.225 338.264 199.912 338.662 199.316 340.054L200.429 340.452C200.688 339.895 201.299 339.298 202.418 339.298C203.497 339.298 204.029 339.87 204.029 340.849V340.889C204.029 341.456 203.452 341.406 202.06 341.585C200.643 341.769 199.097 342.082 199.097 343.832C199.097 345.324 200.25 346.179 201.702 346.179ZM201.881 345.125C200.946 345.125 200.27 344.707 200.27 343.892C200.27 342.997 201.085 342.719 202 342.599C202.497 342.54 203.83 342.401 204.029 342.162V343.236C204.029 344.19 203.273 345.125 201.881 345.125ZM210.426 349.023C212.255 349.023 213.727 348.188 213.727 346.219V338.364H212.593V339.577H212.474C212.216 339.179 211.738 338.264 210.247 338.264C208.318 338.264 206.985 339.795 206.985 342.142C206.985 344.528 208.377 345.881 210.227 345.881C211.718 345.881 212.196 345.006 212.454 344.588H212.554V346.139C212.554 347.412 211.659 347.989 210.426 347.989C209.039 347.989 208.551 347.258 208.238 346.835L207.304 347.491C207.781 348.292 208.721 349.023 210.426 349.023ZM210.386 344.827C208.914 344.827 208.159 343.713 208.159 342.122C208.159 340.571 208.895 339.318 210.386 339.318C211.818 339.318 212.574 340.472 212.574 342.122C212.574 343.812 211.798 344.827 210.386 344.827ZM219.076 346.159C220.627 346.159 221.761 345.384 222.119 344.23L220.985 343.912C220.687 344.707 219.996 345.105 219.076 345.105C217.699 345.105 216.75 344.215 216.695 342.58H222.238V342.082C222.238 339.239 220.548 338.264 218.957 338.264C216.889 338.264 215.517 339.895 215.517 342.241C215.517 344.588 216.869 346.159 219.076 346.159ZM216.695 341.565C216.775 340.377 217.615 339.318 218.957 339.318C220.23 339.318 221.045 340.273 221.045 341.565H216.695ZM228.12 346H234.344V344.906H229.353V341.446H233.946V340.352H229.353V336.912H234.265V335.818H228.12V346ZM241.737 340.074C241.369 338.99 240.544 338.264 239.032 338.264C237.422 338.264 236.228 339.179 236.228 340.472C236.228 341.526 236.855 342.232 238.257 342.56L239.529 342.858C240.3 343.037 240.663 343.405 240.663 343.932C240.663 344.588 239.967 345.125 238.873 345.125C237.914 345.125 237.312 344.712 237.103 343.892L235.99 344.17C236.263 345.468 237.332 346.159 238.893 346.159C240.668 346.159 241.876 345.19 241.876 343.872C241.876 342.808 241.21 342.137 239.848 341.804L238.714 341.526C237.809 341.302 237.402 340.999 237.402 340.412C237.402 339.756 238.098 339.278 239.032 339.278C240.056 339.278 240.479 339.845 240.683 340.372L241.737 340.074ZM246.963 338.364H245.333V336.534H244.159V338.364H243.006V339.358H244.159V344.131C244.159 345.463 245.233 346.099 246.227 346.099C246.665 346.099 246.943 346.02 247.102 345.96L246.864 344.906C246.764 344.926 246.605 344.966 246.347 344.966C245.83 344.966 245.333 344.807 245.333 343.812V339.358H246.963V338.364ZM248.728 346H249.901V338.364H248.728V346ZM249.325 337.091C249.782 337.091 250.16 336.733 250.16 336.295C250.16 335.858 249.782 335.5 249.325 335.5C248.867 335.5 248.49 335.858 248.49 336.295C248.49 336.733 248.867 337.091 249.325 337.091ZM252.05 346H253.224V341.227C253.224 340.109 254.039 339.318 254.954 339.318C255.844 339.318 256.465 339.9 256.465 340.77V346H257.658V341.028C257.658 340.044 258.275 339.318 259.349 339.318C260.184 339.318 260.9 339.761 260.9 340.889V346H262.073V340.889C262.073 339.094 261.109 338.264 259.746 338.264C258.653 338.264 257.852 338.766 257.46 339.557H257.38C257.002 338.741 256.336 338.264 255.332 338.264C254.337 338.264 253.602 338.741 253.283 339.557H253.184V338.364H252.05V346ZM266.466 346.179C267.798 346.179 268.494 345.463 268.733 344.966H268.792V346H269.966V340.969C269.966 338.543 268.116 338.264 267.142 338.264C265.988 338.264 264.676 338.662 264.079 340.054L265.193 340.452C265.451 339.895 266.063 339.298 267.181 339.298C268.26 339.298 268.792 339.87 268.792 340.849V340.889C268.792 341.456 268.216 341.406 266.824 341.585C265.407 341.769 263.86 342.082 263.86 343.832C263.86 345.324 265.014 346.179 266.466 346.179ZM266.645 345.125C265.71 345.125 265.034 344.707 265.034 343.892C265.034 342.997 265.849 342.719 266.764 342.599C267.261 342.54 268.593 342.401 268.792 342.162V343.236C268.792 344.19 268.037 345.125 266.645 345.125ZM275.428 338.364H273.797V336.534H272.624V338.364H271.471V339.358H272.624V344.131C272.624 345.463 273.698 346.099 274.692 346.099C275.13 346.099 275.408 346.02 275.567 345.96L275.329 344.906C275.229 344.926 275.07 344.966 274.812 344.966C274.295 344.966 273.797 344.807 273.797 343.812V339.358H275.428V338.364ZM280.313 346.159C281.864 346.159 282.997 345.384 283.355 344.23L282.222 343.912C281.923 344.707 281.232 345.105 280.313 345.105C278.936 345.105 277.986 344.215 277.931 342.58H283.475V342.082C283.475 339.239 281.784 338.264 280.193 338.264C278.125 338.264 276.753 339.895 276.753 342.241C276.753 344.588 278.105 346.159 280.313 346.159ZM277.931 341.565C278.011 340.377 278.851 339.318 280.193 339.318C281.466 339.318 282.281 340.273 282.281 341.565H277.931ZM288.143 346.159C289.615 346.159 290.112 345.244 290.37 344.827H290.509V346H291.643V335.818H290.47V339.577H290.37C290.112 339.179 289.654 338.264 288.163 338.264C286.234 338.264 284.901 339.795 284.901 342.202C284.901 344.628 286.234 346.159 288.143 346.159ZM288.302 345.105C286.83 345.105 286.075 343.812 286.075 342.182C286.075 340.571 286.811 339.318 288.302 339.318C289.734 339.318 290.49 340.472 290.49 342.182C290.49 343.912 289.714 345.105 288.302 345.105ZM306.244 339C305.867 336.912 304.196 335.679 302.148 335.679C299.543 335.679 297.654 337.688 297.654 340.909C297.654 344.131 299.543 346.139 302.148 346.139C304.196 346.139 305.867 344.906 306.244 342.818H305.012C304.713 344.23 303.5 344.986 302.148 344.986C300.298 344.986 298.847 343.554 298.847 340.909C298.847 338.264 300.298 336.832 302.148 336.832C303.5 336.832 304.713 337.588 305.012 339H306.244ZM309.251 341.406C309.251 340.074 310.101 339.318 311.26 339.318C312.363 339.318 313.029 340.014 313.029 341.227V346H314.203V341.148C314.203 339.184 313.159 338.264 311.598 338.264C310.395 338.264 309.708 338.766 309.35 339.557H309.251V335.818H308.078V346H309.251V341.406ZM318.596 346.179C319.929 346.179 320.625 345.463 320.863 344.966H320.923V346H322.096V340.969C322.096 338.543 320.247 338.264 319.273 338.264C318.119 338.264 316.807 338.662 316.21 340.054L317.324 340.452C317.582 339.895 318.194 339.298 319.312 339.298C320.391 339.298 320.923 339.87 320.923 340.849V340.889C320.923 341.456 320.346 341.406 318.954 341.585C317.537 341.769 315.991 342.082 315.991 343.832C315.991 345.324 317.145 346.179 318.596 346.179ZM318.775 345.125C317.841 345.125 317.165 344.707 317.165 343.892C317.165 342.997 317.98 342.719 318.895 342.599C319.392 342.54 320.724 342.401 320.923 342.162V343.236C320.923 344.19 320.167 345.125 318.775 345.125ZM324.238 346H325.411V341.168C325.411 340.134 326.227 339.378 327.34 339.378C327.653 339.378 327.977 339.438 328.056 339.457V338.264C327.922 338.254 327.614 338.244 327.44 338.244C326.525 338.244 325.729 338.761 325.451 339.517H325.371V338.364H324.238V346ZM332.297 349.023C334.126 349.023 335.598 348.188 335.598 346.219V338.364H334.464V339.577H334.345C334.087 339.179 333.609 338.264 332.118 338.264C330.189 338.264 328.857 339.795 328.857 342.142C328.857 344.528 330.249 345.881 332.098 345.881C333.589 345.881 334.067 345.006 334.325 344.588H334.425V346.139C334.425 347.412 333.53 347.989 332.297 347.989C330.91 347.989 330.423 347.258 330.109 346.835L329.175 347.491C329.652 348.292 330.592 349.023 332.297 349.023ZM332.257 344.827C330.786 344.827 330.03 343.713 330.03 342.122C330.03 340.571 330.766 339.318 332.257 339.318C333.689 339.318 334.445 340.472 334.445 342.122C334.445 343.812 333.669 344.827 332.257 344.827ZM340.947 346.159C342.499 346.159 343.632 345.384 343.99 344.23L342.857 343.912C342.558 344.707 341.867 345.105 340.947 345.105C339.57 345.105 338.621 344.215 338.566 342.58H344.109V342.082C344.109 339.239 342.419 338.264 340.828 338.264C338.76 338.264 337.388 339.895 337.388 342.241C337.388 344.588 338.74 346.159 340.947 346.159ZM338.566 341.565C338.646 340.377 339.486 339.318 340.828 339.318C342.101 339.318 342.916 340.273 342.916 341.565H338.566Z" fill="#A1A8BF"/>
</g>
<defs>
<filter id="filter0_d" x="0" y="0" width="402" height="464" filterUnits="userSpaceOnUse" color-interpolation-filters="sRGB">
<feFlood flood-opacity="0" result="BackgroundImageFix"/>
<feColorMatrix in="SourceAlpha" type="matrix" values="0 0 0 0 0 0 0 0 0 0 0 0 0 0 0 0 0 0 127 0"/>
<feOffset dy="4"/>
<feGaussianBlur stdDeviation="16"/>
<feColorMatrix type="matrix" values="0 0 0 0 0 0 0 0 0 0 0 0 0 0 0 0 0 0 0.06 0"/>
<feBlend mode="normal" in2="BackgroundImageFix" result="effect1_dropShadow"/>
<feBlend mode="normal" in="SourceGraphic" in2="effect1_dropShadow" result="shape"/>
</filter>
<filter id="filter1_d" x="193" y="81" width="190" height="160" filterUnits="userSpaceOnUse" color-interpolation-filters="sRGB">
<feFlood flood-opacity="0" result="BackgroundImageFix"/>
<feColorMatrix in="SourceAlpha" type="matrix" values="0 0 0 0 0 0 0 0 0 0 0 0 0 0 0 0 0 0 127 0"/>
<feOffset dy="30"/>
<feGaussianBlur stdDeviation="20"/>
<feColorMatrix type="matrix" values="0 0 0 0 0.118 0 0 0 0 0.118 0 0 0 0 0.118 0 0 0 0.1 0"/>
<feBlend mode="normal" in2="BackgroundImageFix" result="effect1_dropShadow"/>
<feBlend mode="normal" in="SourceGraphic" in2="effect1_dropShadow" result="shape"/>
</filter>
<filter id="filter2_d" x="113" y="281" width="402" height="222" filterUnits="userSpaceOnUse" color-interpolation-filters="sRGB">
<feFlood flood-opacity="0" result="BackgroundImageFix"/>
<feColorMatrix in="SourceAlpha" type="matrix" values="0 0 0 0 0 0 0 0 0 0 0 0 0 0 0 0 0 0 127 0"/>
<feOffset dy="4"/>
<feGaussianBlur stdDeviation="16"/>
<feColorMatrix type="matrix" values="0 0 0 0 0 0 0 0 0 0 0 0 0 0 0 0 0 0 0.06 0"/>
<feBlend mode="normal" in2="BackgroundImageFix" result="effect1_dropShadow"/>
<feBlend mode="normal" in="SourceGraphic" in2="effect1_dropShadow" result="shape"/>
</filter>
</defs>
</svg>
