<svg width="531" height="522" viewBox="0 0 531 522" fill="none" xmlns="http://www.w3.org/2000/svg">
<g filter="url(#filter0_d)">
<path d="M108.467 54H350.884C354.165 54 356.825 56.6584 356.825 59.9377V226.195C356.825 229.474 354.165 232.132 350.884 232.132H108.467C105.186 232.132 102.526 229.474 102.526 226.195V59.9377C102.526 56.6584 105.186 54 108.467 54Z" fill="#E5EBFF"/>
<path fill-rule="evenodd" clip-rule="evenodd" d="M117.154 88.3979H340.969C342.941 88.3979 344.54 90.0034 344.54 91.9838V217.49C344.54 219.471 342.941 221.076 340.969 221.076H117.154C115.181 221.076 113.582 219.471 113.582 217.49V91.9838C113.582 90.0034 115.181 88.3979 117.154 88.3979Z" fill="white"/>
<path fill-rule="evenodd" clip-rule="evenodd" d="M108.467 54H350.884C354.165 54 356.825 56.6126 356.825 59.8354V77.3415H102.526V59.8354C102.526 56.6126 105.186 54 108.467 54Z" fill="#B8C6FF"/>
<path d="M119.725 69.9706C122.439 69.9706 124.639 67.7705 124.639 65.0566C124.639 62.3427 122.439 60.1426 119.725 60.1426C117.011 60.1426 114.811 62.3427 114.811 65.0566C114.811 67.7705 117.011 69.9706 119.725 69.9706Z" fill="white"/>
<path d="M134.467 69.9706C137.181 69.9706 139.381 67.7705 139.381 65.0566C139.381 62.3427 137.181 60.1426 134.467 60.1426C131.753 60.1426 129.553 62.3427 129.553 65.0566C129.553 67.7705 131.753 69.9706 134.467 69.9706Z" fill="white"/>
<path d="M150.437 69.9706C153.151 69.9706 155.351 67.7705 155.351 65.0566C155.351 62.3427 153.151 60.1426 150.437 60.1426C147.723 60.1426 145.523 62.3427 145.523 65.0566C145.523 67.7705 147.723 69.9706 150.437 69.9706Z" fill="white"/>
<path d="M136.924 112.938C136.924 112.276 137.456 111.74 138.113 111.74C138.77 111.74 139.302 112.276 139.302 112.938V195.308C139.302 195.97 138.77 196.506 138.113 196.506C137.456 196.506 136.924 195.97 136.924 195.308V112.938ZM163.084 112.938C163.084 112.276 163.617 111.74 164.274 111.74C164.93 111.74 165.463 112.276 165.463 112.938V195.308C165.463 195.97 164.93 196.506 164.274 196.506C163.617 196.506 163.084 195.97 163.084 195.308V112.938ZM189.245 112.938C189.245 112.276 189.778 111.74 190.434 111.74C191.091 111.74 191.623 112.276 191.623 112.938V195.308C191.623 195.97 191.091 196.506 190.434 196.506C189.778 196.506 189.245 195.97 189.245 195.308V112.938ZM215.406 112.938C215.406 112.276 215.938 111.74 216.595 111.74C217.252 111.74 217.784 112.276 217.784 112.938V195.308C217.784 195.97 217.252 196.506 216.595 196.506C215.938 196.506 215.406 195.97 215.406 195.308V112.938ZM241.567 112.938C241.567 112.276 242.099 111.74 242.756 111.74C243.413 111.74 243.945 112.276 243.945 112.938V195.308C243.945 195.97 243.413 196.506 242.756 196.506C242.099 196.506 241.567 195.97 241.567 195.308V112.938ZM267.727 112.938C267.727 112.276 268.26 111.74 268.917 111.74C269.573 111.74 270.106 112.276 270.106 112.938V195.308C270.106 195.97 269.573 196.506 268.917 196.506C268.26 196.506 267.727 195.97 267.727 195.308V112.938ZM293.888 112.938C293.888 112.276 294.421 111.74 295.077 111.74C295.734 111.74 296.266 112.276 296.266 112.938V195.308C296.266 195.97 295.734 196.506 295.077 196.506C294.421 196.506 293.888 195.97 293.888 195.308V112.938ZM320.049 112.938C320.049 112.276 320.581 111.74 321.238 111.74C321.895 111.74 322.427 112.276 322.427 112.938V195.308C322.427 195.97 321.895 196.506 321.238 196.506C320.581 196.506 320.049 195.97 320.049 195.308V112.938Z" fill="#E5EBFF"/>
<path d="M202.544 171.86C203.571 172.543 204.915 172.524 205.922 171.812L243.761 145.058L278.965 159.878C280.124 160.365 281.466 160.075 282.317 159.152L333.928 103.195C335.04 101.99 334.96 100.114 333.749 99.0071C332.538 97.8997 330.655 97.9795 329.543 99.1853L279.351 153.604L244.55 138.953C243.6 138.553 242.509 138.672 241.668 139.267L204.148 165.796L176.781 147.578C175.769 146.904 174.447 146.912 173.443 147.597L125.932 180.041C124.576 180.966 124.231 182.811 125.161 184.162C126.091 185.512 127.944 185.856 129.3 184.93L175.148 153.622L202.544 171.86Z" fill="#2651FF"/>
<path d="M329.597 117.917C329.597 119.507 330.915 120.796 332.54 120.796C334.166 120.796 335.484 119.507 335.484 117.917V100.333C335.484 98.7434 334.166 97.4546 332.54 97.4546H315.085C313.46 97.4546 312.142 98.7434 312.142 100.333C312.142 101.923 313.46 103.212 315.085 103.212H329.597V117.917Z" fill="#2651FF"/>
<path d="M100.915 300.213C106 304.11 108.964 316.908 109.805 338.606C102.832 389.052 97.9191 417.853 95.0673 425.007L91.0494 424.785C92.6036 411.101 92.9921 402.075 92.2151 397.708C91.0494 391.158 97.027 354.497 97.027 354.497C101.333 335.269 102.687 317.77 101.089 301.998L100.965 300.81L100.915 300.213Z" fill="#001772"/>
<path d="M99.5967 425.482C100.546 421.09 99.8542 413.501 97.5215 402.713C95.8636 390.014 98.765 371.432 106.226 346.966C110.812 329.167 112.89 312.506 112.46 296.984C111.816 282.981 113.048 272.799 116.158 266.437C116.065 277.526 117.249 288.581 119.712 299.6C124.2 319.005 123.349 337.851 117.158 356.138C110.636 370.666 107.056 384.065 106.418 396.336C107.057 408.322 105.444 418.171 101.579 425.883L100.128 425.593L99.5967 425.482Z" fill="#50CCA3"/>
<path d="M54 266.437C59.9666 267.366 65.9796 276.211 72.0388 292.971C76.2593 304.645 81.0599 314.401 83.2113 322.431C85.693 331.693 85.2475 338.644 86.0878 343.349C87.1336 349.206 86.9421 364.202 85.5132 388.338C83.2572 399.913 82.1293 412.064 82.1293 424.792L77.9908 424.704C75.8662 407.043 74.804 394.921 74.804 388.338C74.804 381.756 74.2743 356.973 73.215 313.991C67.696 306.135 63.6325 295.868 61.0243 283.192C59.6832 275.806 57.4779 270.532 54.4084 267.369L54.0284 266.859L54 266.437Z" fill="#001772"/>
<path d="M63.6842 309.101C67.3791 323.328 64.7093 326.203 71.0284 339.97C67.0166 380.743 67.7454 409.99 73.215 427.711L69.2707 424.713C67.7887 416.727 65.6822 408.437 62.9514 399.841C58.6093 385.409 57.6359 371.48 60.0311 358.055C61.2311 349.935 61.3983 342.017 60.5328 334.301C60.0064 329.617 59.8391 326.143 60.0311 323.879C60.9567 312.963 63.1196 306.927 63.6842 309.101Z" fill="#001772"/>
<path d="M85.6577 256.534C85.8498 264.298 88.1142 271.946 92.4509 279.48C95.5085 285.633 96.9435 293.598 96.7557 303.376C97.6311 347.068 96.3886 380.323 93.0282 403.14C91.0077 411.198 88.7488 418.679 86.2514 425.582C84.4541 426.022 83.5554 426.243 83.5554 426.243C85.6721 408.58 86.4445 394.335 85.8723 383.509C83.3244 364.735 83.6305 347.761 86.7906 332.588C89.9377 320.802 89.636 306.677 85.8856 290.21C82.6804 280.422 82.3563 269.531 84.9133 257.538L85.1462 256.767L85.6577 256.534Z" fill="#50CCA3"/>
<path d="M75.5839 425.013C73.8967 418.997 73.8518 408.699 75.449 394.117C76.8806 379.307 78.0053 369.84 78.823 365.716C83.2113 343.586 83.3601 327.244 82.2629 318.966C79.4753 284.813 74.3239 261.601 66.8086 249.332C70.2061 283.274 71.4037 309.957 70.4014 329.383C65.7529 357.989 64.3672 380.452 66.2445 396.773C67.6111 405.999 69.5093 415.557 71.9391 425.447L74.8337 425.4C75.3338 425.142 75.5839 425.013 75.5839 425.013Z" fill="#50CCA3"/>
<path d="M109.644 422.841H63.4528C61.8244 422.841 60.5044 424.161 60.5044 425.79V433.704C60.5044 435.332 61.8244 436.652 63.4528 436.652H109.644C111.273 436.652 112.593 435.332 112.593 433.704V425.79C112.593 424.161 111.273 422.841 109.644 422.841Z" fill="#2651FF"/>
<path d="M102.765 427.774H68.8582C67.2298 427.774 65.9098 429.094 65.9098 430.722V458.366C65.9098 459.995 67.2298 461.315 68.8582 461.315H102.765C104.393 461.315 105.713 459.995 105.713 458.366V430.722C105.713 429.094 104.393 427.774 102.765 427.774Z" fill="#2651FF"/>
<path d="M106.58 439.07V458.962C106.58 461.141 104.82 462.908 102.649 462.908H70.7076" stroke="#001772" stroke-width="2.9484" stroke-linecap="round" stroke-linejoin="round"/>
<path d="M100.192 466.854C101.82 466.854 103.14 465.529 103.14 463.894C103.14 462.26 101.82 460.935 100.192 460.935C98.5632 460.935 97.2432 462.26 97.2432 463.894C97.2432 465.529 98.5632 466.854 100.192 466.854Z" fill="#001772"/>
<path d="M75.6216 466.854C77.25 466.854 78.57 465.529 78.57 463.894C78.57 462.26 77.25 460.935 75.6216 460.935C73.9933 460.935 72.6732 462.26 72.6732 463.894C72.6732 465.529 73.9933 466.854 75.6216 466.854Z" fill="#001772"/>
<path d="M76.2651 436.652L110.02 436.766" stroke="#001772" stroke-width="2.9484" stroke-linecap="round" stroke-linejoin="round"/>
<path fill-rule="evenodd" clip-rule="evenodd" d="M467.363 452.061L449.13 452.107C438.55 457.328 432.295 460.635 430.366 462.03C428.438 463.424 427.868 465.051 428.658 466.908H467.363V452.061ZM405.576 451.508L386.882 451.553C376.034 456.774 369.621 460.082 367.643 461.476C365.666 462.871 365.082 464.497 365.892 466.355H405.576V451.508Z" fill="#7C2C30"/>
<path fill-rule="evenodd" clip-rule="evenodd" d="M394.008 253.543L372.459 354.482L386.413 451.258L405.798 452.497L409.314 359.849L419.123 333.667L448.235 452.992H467.363L450.38 257.008L443.875 257.391L394.008 253.543Z" fill="url(#paint0_linear)"/>
<path fill-rule="evenodd" clip-rule="evenodd" d="M353.293 219.511C359.543 223.695 411.537 205.709 417.871 199.925C422.093 196.069 420.046 188.503 411.73 177.227L363.225 199.925L355.831 172.974L355.738 172.416C358.472 168.373 359.733 165.927 359.52 165.076C359.307 164.226 358.005 163.166 355.613 161.896C353.463 150.885 352.666 144.326 351.111 144.706C349.556 145.086 350.045 147.752 350.045 157.713C346.824 158.539 343.062 159.658 342.122 160.355C339.274 162.468 340.286 166.997 345.159 173.942C347.804 202.462 350.515 217.651 353.293 219.511Z" fill="#FFB5B9"/>
<path fill-rule="evenodd" clip-rule="evenodd" d="M442.075 175.083C437.346 178.787 432.773 179.933 427.677 179.73C422.582 179.528 419.364 180.297 419.664 176.941L410.54 177.227L404.201 183.052C400.696 188.167 398.747 197.517 398.356 211.102C398.295 213.189 399.226 217.15 401.147 222.983L393.855 253.209C393.663 254.006 394.153 254.808 394.949 255.001C395.002 255.014 395.056 255.024 395.111 255.031L452.592 262.31C453.404 262.413 454.146 261.837 454.249 261.024C454.27 260.858 454.263 260.69 454.228 260.527L449.446 238.131C460.24 215.499 465.935 202.196 466.531 198.224C467.753 190.088 470.821 184.733 463.109 181.177C461.016 180.213 454.005 178.181 442.075 175.083Z" fill="white"/>
<path fill-rule="evenodd" clip-rule="evenodd" d="M441.495 158.851L425.684 162.189L421.685 175.183L410.329 177.358C412.554 188.779 417.843 194.634 426.196 194.921C434.55 195.209 444.098 189.686 454.841 178.353L440.744 174.801L441.495 158.851Z" fill="#FFB5B9"/>
<path fill-rule="evenodd" clip-rule="evenodd" d="M363.226 199.925L357.286 178.275C349.462 178.147 345.616 178.737 345.746 180.044C348.205 204.633 350.72 217.789 353.293 219.511C357.49 222.321 379.271 215.681 396.353 209.028C396.327 209.548 396.307 210.075 396.291 210.608C396.215 213.274 397.909 217.375 401.375 222.912L389.74 260.507C389.542 261.302 390.027 262.108 390.822 262.305C390.878 262.319 390.935 262.33 390.993 262.337C394.991 264.41 403.237 266.38 405.971 260.163C405.971 267.953 427.957 268.36 453.895 264.268C454.708 264.37 455.45 263.794 455.552 262.981C455.578 262.777 455.561 262.57 455.503 262.373L449.656 244.931C464.368 248.155 472.511 249.132 474.084 247.862C479.462 243.519 472.715 192.714 467.33 185.413C467.14 185.156 466.95 184.929 466.757 184.732C465.946 183.237 464.729 182.053 463.109 181.178C461.891 180.52 455.637 178.662 449.894 176.891C447.882 179.306 438.3 197.107 410.081 227.824C408.697 218.262 407.889 208.214 407.289 199.84C409.605 193.847 411.317 184.892 412.819 176.891C413.031 175.767 396.499 183.445 363.226 199.925ZM455.787 222.087L459.208 232.853C456.376 232.591 453.73 232.346 451.27 232.118L455.787 222.087Z" fill="#FF8AA6"/>
<path d="M438.436 253.268L423.949 255.017C422.864 255.148 421.88 254.374 421.749 253.288C421.618 252.203 422.391 251.217 423.475 251.086L437.963 249.338C439.047 249.207 440.032 249.981 440.163 251.066C440.293 252.152 439.52 253.138 438.436 253.268Z" fill="#7C2C30"/>
<path d="M400.871 243.113L396.685 242.009C395.629 241.731 394.999 240.648 395.277 239.591C395.555 238.533 396.636 237.902 397.692 238.181L401.879 239.285C402.934 239.563 403.565 240.646 403.287 241.703C403.009 242.76 401.927 243.392 400.871 243.113Z" fill="#7C2C30"/>
<path fill-rule="evenodd" clip-rule="evenodd" d="M411.005 195.714L372.326 189.099L383.836 243.318L422.515 249.933L411.005 195.714Z" fill="#E5EBFF"/>
<path fill-rule="evenodd" clip-rule="evenodd" d="M427.63 229.906C424.082 229.552 422.201 229.356 421.988 229.318C419.706 228.904 419.184 223.898 417.73 224.037C416.277 224.176 417.458 229.804 416.227 229.867C414.949 229.933 412.345 229.76 409.874 229.591C407.859 229.453 405.797 227.074 404.733 227.984C404.024 228.59 405.343 230.213 408.69 232.853C408.996 236.214 410.018 238.202 411.755 238.817C414.36 239.738 419.061 239.44 421.396 238.083L426.607 239.417L427.63 229.906Z" fill="#FFB5B9"/>
<path fill-rule="evenodd" clip-rule="evenodd" d="M425.747 133.332C417.011 133.332 416.039 139.427 416.039 146.603L416.78 154.911C416.78 162.087 418.309 170.226 425.178 170.226C432.047 170.226 445.789 161.12 446.748 155.86C447.387 152.354 447.942 149.268 448.415 146.603C448.415 139.427 434.483 133.332 425.747 133.332Z" fill="#FFB5B9"/>
<path fill-rule="evenodd" clip-rule="evenodd" d="M456.324 122.227C451.163 122.227 446.741 125.395 444.892 129.894C441.562 126.851 436.367 125.543 428.454 126.687C417.11 124.833 406.174 127.694 409.176 139.226C412.178 150.758 418.31 161.358 416.783 153.908C415.384 147.086 416.648 144.784 416.78 143.974C418.125 141.673 419.53 139.353 420.996 137.014C431.985 149.583 438.762 155.214 441.329 153.908C444.027 152.535 447.285 154.412 446.232 157.086C445.529 158.87 443.895 160.033 441.329 160.578C439.808 164.269 439.518 166.597 440.459 167.562C441.87 169.008 449.384 163.843 449.898 157.377C450.235 153.134 450.424 149.081 450.266 145.385C452.055 146.396 454.122 146.973 456.324 146.973C463.148 146.973 468.681 141.433 468.681 134.6C468.681 127.767 463.148 122.227 456.324 122.227Z" fill="#7C2C30"/>
<path fill-rule="evenodd" clip-rule="evenodd" d="M145.061 408.242C144.86 409.002 144.084 409.454 143.327 409.254C142.57 409.053 142.118 408.275 142.318 407.515L145.268 396.331C145.468 395.572 146.244 395.119 147.001 395.32C147.759 395.52 148.21 396.299 148.01 397.058L145.061 408.242ZM165.526 408.075C165.418 408.853 164.701 409.396 163.925 409.287C163.15 409.179 162.608 408.461 162.716 407.683L163.805 399.843C163.913 399.065 164.629 398.523 165.405 398.631C166.181 398.739 166.722 399.458 166.614 400.235L165.526 408.075ZM175.176 408.075L174.088 400.235C173.98 399.458 174.521 398.739 175.297 398.631C176.073 398.523 176.789 399.065 176.897 399.843L177.985 407.683C178.093 408.461 177.552 409.179 176.776 409.287C176 409.396 175.284 408.853 175.176 408.075ZM196.503 408.075L194.432 400.235C194.324 399.458 194.865 398.739 195.641 398.631C196.417 398.523 197.133 399.065 197.241 399.843L199.312 407.683C199.42 408.461 198.879 409.179 198.103 409.287C197.327 409.396 196.611 408.853 196.503 408.075Z" fill="#2651FF"/>
<path fill-rule="evenodd" clip-rule="evenodd" d="M125.597 325.44C124.534 322.258 126.007 318.78 129.029 317.338C133.642 315.138 140.733 315.115 150.301 317.269C171.379 322.017 173.852 338.264 175.636 348.711C177.421 359.159 182.065 376.893 194.195 382.23C206.326 387.567 232.079 382.697 232.079 392.932C232.079 398.443 209.647 401.755 164.783 402.868C164.495 402.875 164.207 402.879 163.918 402.879C144.598 402.879 128.935 387.174 128.935 367.801C128.935 362.829 128.935 358.073 128.935 353.533C128.935 341.464 127.823 332.099 125.597 325.44Z" fill="#E5EBFF"/>
<path fill-rule="evenodd" clip-rule="evenodd" d="M164.783 402.868C164.495 402.875 164.207 402.879 163.918 402.879C144.598 402.879 128.935 387.174 128.935 367.801V358.88L137.21 379.695C138.23 387.096 144.149 392.848 151.559 393.638L209.063 400.344C198.17 401.565 183.41 402.406 164.783 402.868Z" fill="#B8C6FF"/>
<path fill-rule="evenodd" clip-rule="evenodd" d="M143.164 406.204H144.124C145.169 406.204 146.015 407.053 146.015 408.1C146.015 408.276 145.991 408.452 145.943 408.621L129.809 465.244C129.693 465.651 129.322 465.931 128.899 465.931H127.046C126.524 465.931 126.101 465.507 126.101 464.983C126.101 464.904 126.111 464.826 126.13 464.75L140.415 408.348C140.735 407.087 141.867 406.204 143.164 406.204ZM163.88 406.204H164.839C165.884 406.204 166.73 407.053 166.73 408.1C166.73 408.2 166.722 408.299 166.707 408.397L157.726 465.132C157.653 465.592 157.257 465.931 156.792 465.931H154.891C154.368 465.931 153.945 465.507 153.945 464.983C153.945 464.943 153.948 464.903 153.953 464.864L161.066 408.69C161.246 407.269 162.452 406.204 163.88 406.204ZM198.348 406.204C199.646 406.204 200.778 407.087 201.097 408.348L215.383 464.75C215.402 464.826 215.412 464.904 215.412 464.983C215.412 465.507 214.988 465.931 214.466 465.931H212.613C212.191 465.931 211.82 465.651 211.704 465.244L195.57 408.621C195.522 408.452 195.497 408.276 195.497 408.1C195.497 407.053 196.344 406.204 197.388 406.204H198.348ZM176.725 406.204C178.205 406.204 179.436 407.344 179.553 408.823L183.992 464.908C183.994 464.933 183.995 464.958 183.995 464.983C183.995 465.507 183.571 465.931 183.049 465.931H181.137C180.655 465.931 180.251 465.568 180.197 465.088L173.906 408.31C173.898 408.24 173.894 408.17 173.894 408.1C173.894 407.053 174.741 406.204 175.785 406.204H176.725Z" fill="#B8C6FF"/>
<path fill-rule="evenodd" clip-rule="evenodd" d="M154.33 340.035C229.625 344.451 269.252 348.404 273.212 351.896C277.171 355.387 279.514 393.209 281.226 452.482L260.415 452.731L248.303 386.212L242.611 386.343C243.646 401.94 244.482 423.953 245.118 452.383L225.532 453.623L211.991 392.554C193.303 391.967 177.36 391.967 164.164 392.554C150.968 393.14 145.09 377.748 146.531 346.377C149.59 346.608 152.573 346.839 155.48 347.068L154.33 340.035Z" fill="url(#paint1_linear)"/>
<path fill-rule="evenodd" clip-rule="evenodd" d="M225.4 467.251V452.39L245.559 452.435C251.495 454.566 256.442 456.379 260.399 457.873L260.399 452.39L280.557 452.435C295.115 457.661 303.721 460.972 306.375 462.368C309.029 463.764 309.812 465.392 308.726 467.251H225.4Z" fill="#7C2C30"/>
<path fill-rule="evenodd" clip-rule="evenodd" d="M243.33 309.291C237.097 313.479 187.415 297.506 181.099 291.715C176.888 287.855 178.929 280.282 187.223 268.996L234.151 290.313L244.316 259.713C244.042 259.295 243.773 258.877 243.511 258.465C241.238 254.886 239.483 251.643 239.668 250.88C239.874 250.029 242.24 250.648 246.765 252.738C258.617 249.325 265.961 248.705 268.797 250.88C271.633 253.055 266.422 256.211 253.164 260.35C249.379 291.116 246.101 307.43 243.33 309.291Z" fill="#FFB5B9"/>
<path fill-rule="evenodd" clip-rule="evenodd" d="M156.961 266.85C161.677 270.557 166.237 271.704 171.319 271.501C176.401 271.299 179.609 272.068 179.311 268.709C183.463 268.277 186.496 268.372 188.41 268.996C189.661 269.403 191.768 271.199 194.731 274.382C198.227 279.798 200.17 289.306 200.561 302.904C200.62 304.993 199.693 308.957 197.777 314.796L205.048 345.051C205.24 345.849 204.752 346.652 203.958 346.845C203.905 346.858 203.851 346.868 203.796 346.875L146.473 354.161C145.663 354.264 144.923 353.688 144.82 352.874C144.799 352.708 144.806 352.54 144.841 352.376L149.61 329.959C138.846 307.304 133.166 293.989 132.571 290.013C131.354 281.87 128.293 276.509 135.985 272.95C138.072 271.984 145.064 269.951 156.961 266.85Z" fill="white"/>
<path fill-rule="evenodd" clip-rule="evenodd" d="M157.54 250.601L173.307 253.943L177.295 266.949L188.62 269.127C186.401 280.559 181.126 286.419 172.796 286.707C164.466 286.995 154.944 281.467 144.23 270.122L158.288 266.568L157.54 250.601Z" fill="#FFB5B9"/>
<path fill-rule="evenodd" clip-rule="evenodd" d="M242.002 265.488C248.997 265.637 252.385 266.547 252.166 268.22C248.799 293.905 245.854 307.595 243.33 309.291C239.485 311.874 219.107 306.786 202.573 301.148C202.592 301.564 202.607 301.984 202.619 302.408C202.696 305.077 201.006 309.183 197.549 314.725L209.153 352.356C209.349 353.152 208.866 353.958 208.074 354.156C208.017 354.17 207.961 354.181 207.903 354.188C203.916 356.262 195.693 358.235 192.966 352.012C192.966 359.81 171.04 360.216 145.173 356.12C144.363 356.223 143.623 355.647 143.52 354.832C143.495 354.628 143.511 354.421 143.57 354.224L151.169 331.472L137.857 301.797L122.117 314.493L142.366 333.254C143.345 333.662 141.844 336.373 137.864 341.389C113.318 327.133 100.697 318.506 100.002 315.509C98.4385 308.765 128.288 274.444 136.996 272.008C137.59 271.842 138.132 271.792 138.623 271.857C140.431 271.2 143.022 270.349 146.396 269.305C146.569 272.116 160.726 288.894 188.867 319.641C192.173 296.716 189.73 279.689 186.12 268.66C188.642 268.941 190.2 269.48 191.265 270.073C192.625 270.503 193.879 270.98 195.028 271.501C203.244 275.234 216.285 281.505 234.151 290.313L242.002 265.488Z" fill="#B8C6FF"/>
<path d="M160.59 336.102L175.038 337.852C176.119 337.983 177.101 337.208 177.231 336.122C177.361 335.035 176.591 334.048 175.51 333.917L161.062 332.167C159.98 332.036 158.998 332.811 158.868 333.897C158.738 334.984 159.509 335.971 160.59 336.102Z" fill="#7C2C30"/>
<path d="M198.052 334.946L202.226 333.841C203.28 333.562 203.908 332.478 203.631 331.42C203.354 330.361 202.275 329.729 201.222 330.008L197.047 331.113C195.994 331.392 195.365 332.476 195.643 333.534C195.92 334.593 196.999 335.224 198.052 334.946Z" fill="#7C2C30"/>
<path fill-rule="evenodd" clip-rule="evenodd" d="M142.366 333.254C143.834 333.866 145.017 334.484 145.914 335.109C148.765 337.095 147.666 338.455 149.218 340.184C150.77 341.914 158.165 345.781 157.601 347.831C156.903 350.367 150.639 351.673 146.751 350.063C144.16 348.99 141.79 346.366 139.642 342.191L137.864 341.389L142.366 333.254Z" fill="#FFB5B9"/>
<path fill-rule="evenodd" clip-rule="evenodd" d="M173.244 224.562C181.956 224.562 182.925 230.664 182.925 237.847L182.186 246.163C182.186 253.346 180.841 261.492 173.812 261.492C166.782 261.492 153.257 252.378 152.301 247.113C151.664 243.603 151.11 240.514 150.638 237.847C150.638 230.664 164.533 224.562 173.244 224.562Z" fill="#FFB5B9"/>
<path fill-rule="evenodd" clip-rule="evenodd" d="M146.742 228.987L143.983 228.598C143.119 245.156 141.252 255.514 138.38 259.673C132.578 268.076 119.501 267.544 113.569 265.463C105.143 262.508 112.246 251.136 117.748 239.208C122.369 229.188 124.386 218.227 129.609 216.915C141.051 214.041 148.788 225.477 149.426 224.669C153.66 219.297 160.555 215.788 170.544 217.912C181.858 216.055 188.364 225.783 185.37 237.326C182.376 248.869 180.66 252.616 182.184 245.159C183.579 238.33 182.318 236.026 182.186 235.215C180.184 233.046 178.382 230.84 176.78 228.598C166.623 240.946 160.265 246.466 157.705 245.159C155.015 243.785 151.746 245.954 152.796 248.631C153.497 250.416 155.133 251.484 157.705 251.835C160.361 256.127 159.868 260.958 158.847 260.494C157.314 259.797 150.399 255.431 146.599 246.042C145.479 243.276 145.527 237.591 146.742 228.987Z" fill="#7C2C30"/>
</g>
<defs>
<filter id="filter0_d" x="0" y="0" width="530.057" height="521.251" filterUnits="userSpaceOnUse" color-interpolation-filters="sRGB">
<feFlood flood-opacity="0" result="BackgroundImageFix"/>
<feColorMatrix in="SourceAlpha" type="matrix" values="0 0 0 0 0 0 0 0 0 0 0 0 0 0 0 0 0 0 127 0"/>
<feOffset/>
<feGaussianBlur stdDeviation="27"/>
<feColorMatrix type="matrix" values="0 0 0 0 0.0992975 0 0 0 0 0.0784048 0 0 0 0 0.271937 0 0 0 0.15 0"/>
<feBlend mode="normal" in2="BackgroundImageFix" result="effect1_dropShadow"/>
<feBlend mode="normal" in="SourceGraphic" in2="effect1_dropShadow" result="shape"/>
</filter>
<linearGradient id="paint0_linear" x1="431.675" y1="300.205" x2="339.097" y2="385.235" gradientUnits="userSpaceOnUse">
<stop stop-color="#2B55FF"/>
<stop offset="1" stop-color="#002BD7"/>
</linearGradient>
<linearGradient id="paint1_linear" x1="197.049" y1="366.61" x2="235.832" y2="455.522" gradientUnits="userSpaceOnUse">
<stop stop-color="#2B55FF"/>
<stop offset="1" stop-color="#002BD7"/>
</linearGradient>
</defs>
</svg>
