<svg width="505" height="482" viewBox="0 0 505 482" fill="none" xmlns="http://www.w3.org/2000/svg">
<g filter="url(#filter0_d)">
<path d="M136.187 37H444.772C447.083 37 448.956 38.8686 448.956 41.1735V223.244C448.956 225.549 447.083 227.417 444.772 227.417H136.187C133.876 227.417 132.003 225.549 132.003 223.244V41.1735C132.003 38.8686 133.876 37 136.187 37Z" fill="#E5EBFF"/>
<path fill-rule="evenodd" clip-rule="evenodd" d="M203.932 48.0564H431.081C432.811 48.0564 434.214 49.4577 434.214 51.1862V214.46C434.214 216.188 432.811 217.589 431.081 217.589H203.932C202.202 217.589 200.799 216.188 200.799 214.46V51.1862C200.799 49.4577 202.202 48.0564 203.932 48.0564Z" fill="white"/>
<path fill-rule="evenodd" clip-rule="evenodd" d="M200.799 48.0564H235.197V217.589H200.799V48.0564Z" fill="white"/>
<path fill-rule="evenodd" clip-rule="evenodd" d="M238.372 48.0564H266.42C268.173 48.0564 269.595 49.4577 269.595 51.1862V214.46C269.595 216.188 268.173 217.589 266.42 217.589H238.372C236.619 217.589 235.197 216.188 235.197 214.46V51.1862C235.197 49.4577 236.619 48.0564 238.372 48.0564Z" fill="white"/>
<path fill-rule="evenodd" clip-rule="evenodd" d="M269.595 48.0564H303.993V217.589H269.595V48.0564Z" fill="white"/>
<path fill-rule="evenodd" clip-rule="evenodd" d="M305.94 48.0564H333.987C335.741 48.0564 337.163 49.4577 337.163 51.1862V214.46C337.163 216.188 335.741 217.589 333.987 217.589H305.94C304.186 217.589 302.765 216.188 302.765 214.46V51.1862C302.765 49.4577 304.186 48.0564 305.94 48.0564Z" fill="white"/>
<path fill-rule="evenodd" clip-rule="evenodd" d="M337.163 48.0564H371.561V217.589H337.163V48.0564Z" fill="white"/>
<path fill-rule="evenodd" clip-rule="evenodd" d="M374.736 48.0564H402.783C404.537 48.0564 405.959 49.4577 405.959 51.1862V214.46C405.959 216.188 404.537 217.589 402.783 217.589H374.736C372.982 217.589 371.561 216.188 371.561 214.46V51.1862C371.561 49.4577 372.982 48.0564 374.736 48.0564Z" fill="white"/>
<path fill-rule="evenodd" clip-rule="evenodd" d="M404.73 48.0564H439.128V217.589H404.73V48.0564Z" fill="white"/>
<path fill-rule="evenodd" clip-rule="evenodd" d="M187.846 48.0564C189.572 48.0564 190.971 49.4577 190.971 51.1862V214.46C190.971 216.188 189.572 217.589 187.846 217.589H146.184C144.459 217.589 143.06 216.188 143.06 214.46V51.1862C143.06 49.4577 144.459 48.0564 146.184 48.0564H187.846Z" fill="white"/>
<path d="M222.329 62.7986H460.596C466.38 62.7986 471.069 67.4737 471.069 73.2408C471.069 79.0079 466.38 83.6831 460.596 83.6831H222.329C216.545 83.6831 211.856 79.0079 211.856 73.2408C211.856 67.4737 216.545 62.7986 222.329 62.7986Z" fill="#E5EBFF"/>
<path d="M222.298 78.7689C225.351 78.7689 227.826 76.2938 227.826 73.2407C227.826 70.1875 225.351 67.7124 222.298 67.7124C219.245 67.7124 216.77 70.1875 216.77 73.2407C216.77 76.2938 219.245 78.7689 222.298 78.7689Z" fill="#B0D5FF"/>
<path fill-rule="evenodd" clip-rule="evenodd" d="M153.006 71.3979H179.796C181.218 71.3979 182.372 72.498 182.372 73.8549C182.372 75.2119 181.218 76.312 179.796 76.312H153.006C151.584 76.312 150.431 75.2119 150.431 73.8549C150.431 72.498 151.584 71.3979 153.006 71.3979Z" fill="#B8C6FF"/>
<path fill-rule="evenodd" clip-rule="evenodd" d="M153.118 81.2261H164.942C166.426 81.2261 167.63 82.3261 167.63 83.6831C167.63 85.04 166.426 86.1401 164.942 86.1401H153.118C151.634 86.1401 150.431 85.04 150.431 83.6831C150.431 82.3261 151.634 81.2261 153.118 81.2261Z" fill="#B8C6FF"/>
<path fill-rule="evenodd" clip-rule="evenodd" d="M153.118 120.538H164.942C166.426 120.538 167.63 121.638 167.63 122.995C167.63 124.352 166.426 125.452 164.942 125.452H153.118C151.634 125.452 150.431 124.352 150.431 122.995C150.431 121.638 151.634 120.538 153.118 120.538Z" fill="#B8C6FF"/>
<path fill-rule="evenodd" clip-rule="evenodd" d="M153.118 159.85H164.942C166.426 159.85 167.63 160.95 167.63 162.307C167.63 163.664 166.426 164.764 164.942 164.764H153.118C151.634 164.764 150.431 163.664 150.431 162.307C150.431 160.95 151.634 159.85 153.118 159.85Z" fill="#B8C6FF"/>
<path fill-rule="evenodd" clip-rule="evenodd" d="M153.118 199.162H164.942C166.426 199.162 167.63 200.262 167.63 201.619C167.63 202.976 166.426 204.076 164.942 204.076H153.118C151.634 204.076 150.431 202.976 150.431 201.619C150.431 200.262 151.634 199.162 153.118 199.162Z" fill="#B8C6FF"/>
<path fill-rule="evenodd" clip-rule="evenodd" d="M153.006 110.71H179.796C181.218 110.71 182.372 111.81 182.372 113.167C182.372 114.524 181.218 115.624 179.796 115.624H153.006C151.584 115.624 150.431 114.524 150.431 113.167C150.431 111.81 151.584 110.71 153.006 110.71Z" fill="#B8C6FF"/>
<path fill-rule="evenodd" clip-rule="evenodd" d="M153.006 150.022H179.796C181.218 150.022 182.372 151.122 182.372 152.479C182.372 153.836 181.218 154.936 179.796 154.936H153.006C151.584 154.936 150.431 153.836 150.431 152.479C150.431 151.122 151.584 150.022 153.006 150.022Z" fill="#B8C6FF"/>
<path fill-rule="evenodd" clip-rule="evenodd" d="M153.006 189.334H179.796C181.218 189.334 182.372 190.434 182.372 191.791C182.372 193.148 181.218 194.248 179.796 194.248H153.006C151.584 194.248 150.431 193.148 150.431 191.791C150.431 190.434 151.584 189.334 153.006 189.334Z" fill="#B8C6FF"/>
<path d="M222.362 141.423H357.369C363.171 141.423 367.875 146.098 367.875 151.865C367.875 157.632 363.171 162.307 357.369 162.307H222.362C216.559 162.307 211.856 157.632 211.856 151.865C211.856 146.098 216.559 141.423 222.362 141.423Z" fill="#E5EBFF"/>
<path d="M222.298 157.393C225.351 157.393 227.826 154.918 227.826 151.865C227.826 148.812 225.351 146.336 222.298 146.336C219.245 146.336 216.77 148.812 216.77 151.865C216.77 154.918 219.245 157.393 222.298 157.393Z" fill="#B8C6FF"/>
<path fill-rule="evenodd" clip-rule="evenodd" d="M309.593 180.734H405.272C411.079 180.734 415.787 185.41 415.787 191.177C415.787 196.944 411.079 201.619 405.272 201.619H309.593C303.786 201.619 299.079 196.944 299.079 191.177C299.079 185.41 303.786 180.734 309.593 180.734Z" fill="#FFD3DE"/>
<path d="M309.521 196.705C312.574 196.705 315.05 194.23 315.05 191.177C315.05 188.124 312.574 185.648 309.521 185.648C306.468 185.648 303.993 188.124 303.993 191.177C303.993 194.23 306.468 196.705 309.521 196.705Z" fill="#FF507A"/>
<path fill-rule="evenodd" clip-rule="evenodd" d="M282.554 102.111H460.567C466.367 102.111 471.069 106.786 471.069 112.553C471.069 118.32 466.367 122.995 460.567 122.995H282.554C276.754 122.995 272.052 118.32 272.052 112.553C272.052 106.786 276.754 102.111 282.554 102.111Z" fill="#FFD3DE"/>
<path d="M282.494 118.081C285.547 118.081 288.023 115.606 288.023 112.553C288.023 109.499 285.547 107.024 282.494 107.024C279.441 107.024 276.966 109.499 276.966 112.553C276.966 115.606 279.441 118.081 282.494 118.081Z" fill="#FF507A"/>
<path d="M432.559 338.794C433.224 339.831 434.602 340.132 435.637 339.466C436.673 338.801 436.973 337.421 436.309 336.385C432.007 329.678 425.282 328.013 416.882 331.38C416.822 331.404 416.762 331.431 416.705 331.46C400.208 339.81 392.345 357.588 392.982 384.378C393.011 385.61 394.032 386.584 395.262 386.555C396.492 386.526 397.466 385.504 397.437 384.272C396.838 359.09 403.946 342.965 418.628 335.485C425.102 332.917 429.499 334.024 432.559 338.794Z" fill="#001772"/>
<path d="M432.062 263.63C432.062 263.63 430.496 258.387 426.855 256.7C425.113 256.738 424.591 257.701 425.289 259.59C429.122 264.723 430.967 268.359 430.825 270.497C430.669 272.657 429.952 274.834 428.676 277.028C427.412 274.831 426.262 273.453 425.227 272.894C423.546 271.833 422.676 272.264 422.617 274.185C426.473 277.789 428.263 280.827 427.988 283.299C427.625 285.809 426.473 288.203 424.532 290.48C424.069 287.378 423.129 285.345 421.713 284.381C420.114 283.461 419.183 284.071 418.921 286.211C419.642 287.663 421 288.817 422.994 289.671C423.5 290.73 423.218 292.384 422.149 294.633C420.492 297.8 420.115 300.571 421.017 302.946C415.866 302.009 412.345 299.74 410.454 296.141C410.007 294.543 410.243 292.654 411.163 290.476C412.81 288.599 412.982 287.142 411.676 286.106C410.106 285.651 408.891 286.552 408.03 288.81C407.145 291.361 407.059 293.334 407.771 294.73C403.676 292.695 400.976 289.921 399.669 286.41C399.237 281.46 401.381 277.459 406.099 274.407C407.885 273.366 408.079 272.301 406.678 271.214C401.975 272.009 398.844 276.107 397.284 283.506C395.192 281.432 394.026 278.923 393.787 275.978C391.445 272.667 390.803 269.854 391.861 267.538C393.577 265.377 395.842 263.918 398.656 263.161C400.266 261.915 400.169 260.813 398.364 259.854C395.222 259.722 392.461 261.58 390.081 265.428C387.935 262.005 387.773 258.251 389.593 254.166C390.344 253.038 392.133 252.615 394.957 252.897C397.756 253.254 399.596 253.244 400.476 252.866C401.37 251.808 401.057 250.795 399.535 249.829C396.183 248.613 392.773 249.162 389.305 251.477C390.363 244.709 394.425 241.384 401.492 241.5C403.784 241.548 406.898 242.819 410.833 245.312C413.823 242.69 417.552 242.536 422.019 244.853C428.046 248.291 431.535 253.639 432.489 260.896L432.308 262.797L432.062 263.63ZM421.915 255.334C421.41 253.664 419.645 252.74 416.622 252.563C415.698 254.091 416.764 255.445 419.82 256.627C420.747 256.938 421.367 256.844 421.682 256.345C421.997 255.845 422.075 255.508 421.915 255.334ZM410.487 260.084C411.414 259.903 411.582 259.511 410.991 258.907C410.105 258.002 404.194 256.919 403.29 259.896C403.007 260.666 403.436 261.02 404.577 260.958L409.633 260.176L410.487 260.084ZM414.495 269.443C415.057 269.094 415.094 268.733 414.608 268.36C414.172 268.026 412.32 267.686 411.095 268.305C410.268 268.723 409.868 269.762 409.849 270.833C409.805 271.532 410.144 271.733 410.864 271.436L413.964 269.703L414.495 269.443Z" fill="#001772"/>
<path d="M399.601 384.353C400.098 345.109 408.938 313.107 426.084 288.299C428.13 285.32 429.7 285.098 432.162 287.347C433.07 288.177 434.48 288.112 435.309 287.203C436.138 286.293 436.074 284.882 435.165 284.052C430.665 279.942 425.96 280.607 422.416 285.767C404.731 311.355 395.653 344.217 395.146 384.297C395.13 385.529 396.115 386.54 397.345 386.555C398.576 386.571 399.586 385.585 399.601 384.353Z" fill="#001772"/>
<path d="M412.623 353.58C414.063 340.106 420.562 334.159 432.12 335.737C439.415 327.153 448.159 327.905 458.351 337.995C454.055 336.239 450.171 336.396 446.697 338.463C446.194 339.547 446.462 340.14 447.5 340.243C455.994 338.703 460.554 340.322 461.181 345.101C461.76 349.344 461.893 352.782 461.582 355.415C459.558 350.751 456.899 348.773 453.605 349.478C452.659 350.377 453.098 351.174 454.921 351.869C458.96 353.957 461.004 357.94 461.054 363.819C460.461 368.254 458.9 372.5 456.37 376.557C454.856 376.754 453.706 376.533 452.92 375.892C451.307 377.462 451.877 378.438 454.63 378.821C453.294 384.001 453.384 387.961 454.9 390.7C448.496 391.045 442.669 389.63 437.42 386.456C437.206 384.166 438.662 380.702 441.789 376.066C442.61 373.748 441.638 372.843 438.871 373.353C436.899 374.349 435.495 378.479 434.658 385.743C427.543 383.321 423.383 380.975 422.177 378.705C421.439 371.054 423.158 365.127 427.335 360.925C429.394 357.877 429.089 356.363 426.42 356.384C422.491 357.88 419.92 364.517 418.706 376.296C413.98 370.482 412.591 364.329 414.539 357.837C415.512 355.07 417.616 352.178 420.851 349.16C421.744 347.965 421.158 347.367 419.093 347.367C416.069 349.592 414.206 351.39 413.505 352.763C412.804 354.136 412.51 354.408 412.623 353.58ZM445.046 351.79C447.313 351.79 449.151 350.521 449.151 349.687C449.151 348.853 447.313 347.947 445.046 347.947C442.779 347.947 440.942 348.853 440.942 349.687C440.942 350.521 442.779 351.79 445.046 351.79ZM429.798 345.754C431.141 344.98 431.892 343.767 431.474 343.044C431.057 342.322 429.629 342.365 428.286 343.139C426.943 343.913 426.192 345.127 426.61 345.849C427.028 346.571 428.455 346.529 429.798 345.754ZM451.97 367.849C453.687 369.504 455.952 369.943 457.029 368.828C458.107 367.714 457.588 365.469 455.872 363.814C454.156 362.159 451.891 361.72 450.813 362.834C449.736 363.949 450.254 366.194 451.97 367.849Z" fill="#50CCA3"/>
<path d="M430.644 335.574C431.126 335.614 431.618 335.669 432.12 335.737C439.415 327.153 448.159 327.905 458.351 337.995C454.055 336.239 450.171 336.396 446.697 338.463C446.194 339.547 446.462 340.14 447.5 340.243C455.994 338.703 460.554 340.322 461.181 345.101C461.76 349.344 461.893 352.782 461.581 355.415C459.557 350.751 456.899 348.773 453.605 349.478C452.999 350.054 452.961 350.589 453.493 351.081C453.388 351.088 453.308 351.074 453.261 351.022C448.073 345.208 440.534 340.059 430.644 335.574Z" fill="#001772"/>
<path d="M410.113 299.223C410.113 298.478 412.951 278.797 427.15 280.931C429.573 281.291 431.516 282.808 432.977 285.482C438.201 279.82 443.576 278.028 449.103 280.107C455.479 283.334 458.677 287.615 458.696 292.951C453.108 287.922 448.193 286.66 443.952 289.165C443.113 290.287 443.397 291.339 444.803 292.322C454.768 292.291 459.646 294.867 459.439 300.05C459.398 302.709 458.648 305.785 457.187 309.277C454.591 301.214 450.591 297.697 445.187 298.725C444.261 299.695 444.511 300.579 445.937 301.376C453.306 305.054 456.531 309.475 455.61 314.64C454.719 317.705 453.521 320.277 452.016 322.358C449.026 314.9 445.366 312.043 441.034 313.785C439.9 315.112 440.387 316.307 442.497 317.369C448.732 320.999 451.508 323.976 450.824 326.298C449.256 329.95 446.269 333.783 441.864 337.798C434.103 336.273 428.973 333.691 426.475 330.054C424.88 328.002 425.506 324.35 428.352 319.097C428.937 316.567 428.221 315.513 426.204 315.933C424.555 317.235 423.48 321.08 422.979 327.468C417.442 323.622 415.572 319.65 417.369 315.551C419.039 312.259 421.501 309.184 424.757 306.327C426.005 304.179 425.556 302.746 423.411 302.03C420.266 302.78 417.142 307.179 414.04 315.228C410.234 307.69 412.677 301.64 421.369 297.076C423.688 295.449 423.877 293.897 421.937 292.421C420.853 292.344 420.106 292.344 419.696 292.421C418.555 292.635 417.854 293.203 417.369 293.505C411.952 296.892 410.113 299.635 410.113 299.223Z" fill="#001772"/>
<path d="M432.57 285.8C438.352 289.809 442.838 294.171 446.028 298.885C445.62 298.909 445.204 298.962 444.779 299.043C443.853 300.013 444.103 300.897 445.529 301.695C446.675 302.266 447.721 302.856 448.666 303.464C451.499 309.365 452.479 315.769 451.608 322.676C448.619 315.219 444.959 312.361 440.627 314.103C439.492 315.43 439.98 316.625 442.09 317.687C448.325 321.317 451.101 324.294 450.417 326.616C448.849 330.268 445.862 334.102 441.457 338.117C433.696 336.591 428.566 334.01 426.067 330.372C424.473 328.321 425.099 324.669 427.945 319.416C428.529 316.886 427.813 315.831 425.797 316.251C424.148 317.554 423.073 321.398 422.572 327.786C417.035 323.941 415.165 319.969 416.962 315.87C418.632 312.578 421.094 309.503 424.35 306.645C425.597 304.497 425.149 303.065 423.004 302.349C419.859 303.098 416.735 307.497 413.632 315.546C409.826 308.008 412.27 301.958 420.962 297.395C423.28 295.767 423.47 294.216 421.53 292.739C420.445 292.662 419.698 292.662 419.288 292.739C418.148 292.954 417.446 293.521 416.962 293.824C411.545 297.211 409.705 299.953 409.705 299.541C409.705 298.796 412.544 279.115 426.743 281.249C429.166 281.609 431.108 283.126 432.57 285.8Z" fill="#50CCA3"/>
<path d="M362.092 293.801C362.628 293.284 378.743 281.656 387.073 293.362C388.497 295.357 388.757 297.81 387.851 300.72C395.548 300.548 400.569 303.174 402.915 308.597C405.025 315.431 404.17 320.707 400.349 324.428C400.08 316.91 397.573 312.495 392.827 311.181C391.438 311.356 390.879 312.291 391.15 313.987C398.094 321.14 399.632 326.442 395.763 329.893C393.824 331.712 391.092 333.308 387.568 334.682C391.559 327.212 391.308 321.888 386.815 318.711C385.475 318.718 385.013 319.512 385.431 321.093C387.907 328.954 386.97 334.347 382.618 337.272C379.797 338.759 377.117 339.684 374.576 340.045C377.858 332.712 377.369 328.091 373.108 326.182C371.366 326.287 370.847 327.468 371.549 329.725C373.271 336.737 373.061 340.803 370.917 341.924C367.203 343.332 362.373 343.844 356.428 343.461C352.133 336.813 350.425 331.326 351.303 327C351.67 324.427 354.729 322.34 360.481 320.741C362.705 319.404 362.966 318.156 361.263 316.996C359.181 316.713 355.671 318.61 350.733 322.686C349.65 316.028 351.206 311.922 355.4 310.369C358.925 309.285 362.845 308.922 367.16 309.281C369.571 308.687 370.289 307.369 369.313 305.327C366.59 303.583 361.258 304.39 353.319 307.747C356.092 299.77 362.137 297.326 371.455 300.415C374.235 300.955 375.481 300.013 375.195 297.591C374.497 296.756 373.978 296.218 373.638 295.976C372.691 295.304 371.796 295.193 371.242 295.055C365.045 293.507 361.797 294.087 362.092 293.801ZM380.233 314.894C381.26 316.361 382.646 317.163 383.329 316.685C384.011 316.207 383.732 314.63 382.705 313.163C381.678 311.696 380.292 310.894 379.61 311.372C378.927 311.851 379.206 313.427 380.233 314.894Z" fill="#001772"/>
<path d="M389.213 298.177L389.201 298.246C386.902 312.001 386.185 322.846 387.069 330.827C387.505 338.519 387.457 348.036 386.924 359.37C386.922 359.413 386.922 359.456 386.922 359.5C387.017 367.998 387.247 376.465 387.612 384.899C387.665 386.13 388.705 387.084 389.934 387.031C391.164 386.977 392.117 385.937 392.064 384.706C391.702 376.341 391.473 367.944 391.378 359.515C391.916 348.036 391.962 338.372 391.514 330.512L391.504 330.391C390.664 322.892 391.352 312.418 393.59 299.017C397.448 279.653 394.583 267.518 384.411 263.265C384.305 263.221 384.196 263.185 384.084 263.157C373.002 260.429 364.203 264.675 358.199 275.539C357.603 276.616 357.993 277.973 359.07 278.57C360.147 279.166 361.502 278.776 362.098 277.698C367.127 268.599 373.876 265.3 382.849 267.447C390.38 270.718 392.692 280.748 389.213 298.177Z" fill="#001772"/>
<path d="M382.308 357.621C382.03 368.439 382.493 375.865 383.759 380.042C384.575 382.796 384.976 384.786 384.974 385.892C384.971 387.124 385.967 388.125 387.197 388.127C388.428 388.13 389.427 387.133 389.43 385.901C389.433 384.255 388.96 381.911 388.027 378.761C386.937 375.163 386.496 368.098 386.763 357.715C386.837 353.233 385.094 349.378 381.627 346.282C381.537 346.202 381.441 346.129 381.339 346.064C376.057 342.706 369.611 345.736 362.063 354.178C361.242 355.096 361.321 356.506 362.237 357.327C363.154 358.149 364.563 358.071 365.383 357.153C371.532 350.275 375.986 348.114 378.806 349.742C381.221 351.958 382.359 354.537 382.308 357.621Z" fill="#001772"/>
<path d="M352.287 395.203C346.374 390.473 344.074 386.501 345.386 383.286L349.514 377.674C349.653 375.896 348.999 375.218 347.554 375.64C345.87 376.94 344.415 378.797 343.188 381.212C339.811 373.177 340.607 367.085 345.576 362.937C347.944 361.516 350.386 361.082 352.902 361.632C353.763 360.287 353.279 359.428 351.448 359.055C348.115 358.662 345.269 359.872 342.908 362.684C345.187 354.495 350.673 350.09 359.368 349.471C361.853 349.882 363.424 351.272 364.08 353.641C373.244 352.881 378.218 355.322 379.004 360.964C378.162 360.217 377.049 360.03 375.664 360.403C378.509 362.968 379.617 365.863 378.987 369.089C377.975 372.536 375.939 375.271 372.88 377.294C372.509 370.616 370.779 367.461 367.69 367.827C366.103 368.633 365.959 369.843 367.258 371.456C369.922 375.897 369.942 379.168 367.32 381.27C365.779 382.732 363.588 383.975 360.748 384.998C360.556 381.683 359.456 379.743 357.447 379.178C356.317 380.998 356.976 383.366 359.421 386.283C356.407 389.337 354.62 391.535 354.062 392.875C353.503 394.216 352.911 394.992 352.287 395.203Z" fill="#50CCA3"/>
<path d="M352.287 395.203C346.374 390.473 344.074 386.501 345.386 383.286L349.514 377.674C349.653 375.896 348.999 375.218 347.554 375.64C345.87 376.94 344.415 378.797 343.188 381.212C339.811 373.177 340.607 367.085 345.576 362.937C347.944 361.516 350.386 361.082 352.902 361.632C353.763 360.287 353.279 359.428 351.448 359.055C348.115 358.662 345.269 359.872 342.908 362.684C345.187 354.495 350.673 350.09 359.368 349.471C361.853 349.882 363.424 351.272 364.08 353.641C373.244 352.881 378.218 355.322 379.004 360.964C378.162 360.217 377.049 360.03 375.664 360.403C378.509 362.968 379.617 365.863 378.987 369.089C377.975 372.536 375.939 375.271 372.88 377.294C372.509 370.616 370.779 367.461 367.69 367.827C366.103 368.633 365.959 369.843 367.258 371.456C369.922 375.897 369.942 379.168 367.32 381.27C365.779 382.732 363.588 383.975 360.748 384.998C360.556 381.683 359.456 379.743 357.447 379.178C356.317 380.998 356.976 383.366 359.421 386.283C356.407 389.337 354.62 391.535 354.062 392.875C353.503 394.216 352.911 394.992 352.287 395.203Z" fill="#50CCA3"/>
<path d="M343.188 381.212C339.811 373.177 340.607 367.085 345.576 362.937C347.944 361.516 350.386 361.082 352.902 361.632C353.763 360.287 353.279 359.428 351.448 359.055C348.115 358.662 345.269 359.872 342.908 362.684C345.187 354.495 350.673 350.09 359.368 349.471C361.853 349.882 363.424 351.272 364.08 353.641C365.523 353.521 366.863 353.481 368.098 353.52L368.79 354.002C353.949 360.337 345.415 369.407 343.188 381.212Z" fill="#001772"/>
<path d="M331.596 289.983L331.535 288.969L331.828 286.757C334.821 278.743 340.201 273.571 347.97 271.241C353.667 269.778 357.874 270.934 360.591 274.708C365.729 272.904 369.61 272.277 372.234 272.825C380.315 274.553 384.069 279.41 383.495 287.395C380.153 283.846 376.413 282.323 372.275 282.826C370.288 283.526 369.665 284.597 370.406 286.038C371.309 286.699 373.401 287.195 376.683 287.525C379.976 287.948 381.901 288.901 382.461 290.383C383.461 295.514 382.29 299.747 378.946 303.081C377.247 298.072 374.589 295.229 370.975 294.553C368.667 295.17 368.266 296.399 369.774 298.242C372.78 299.845 374.977 302.103 376.364 305.015C376.961 307.932 375.49 310.967 371.952 314.121C370.906 317.412 368.919 319.963 365.991 321.774C366.159 312.936 363.668 307.446 358.519 305.302C356.638 306.172 356.579 307.435 358.341 309.091C362.913 313.809 364.304 318.93 362.512 324.454C360.1 328.109 356.295 330.557 351.096 331.798C352.274 330.395 352.694 328.125 352.356 324.987C351.969 322.189 350.821 320.842 348.913 320.948C347.154 321.784 346.966 323.488 348.349 326.06C348.825 328.783 348.599 330.996 347.669 332.698C344.569 336.3 339.962 337.957 333.848 337.668C335.5 335.201 335.798 331.945 334.743 327.903C334.116 325.059 334.23 323.102 335.084 322.029C337.58 321.581 339.429 320.624 340.633 319.16C340.896 316.654 339.996 315.714 337.933 316.341C336.067 317.066 334.462 319.135 333.119 322.546C331.507 319.442 330.823 316.412 331.069 313.457C331.405 310.569 334.243 307.581 339.582 304.491C340.019 302.287 339.141 301.568 336.947 302.333C335.622 302.697 333.95 303.964 331.933 306.134C331.055 303.299 330.811 300.631 331.201 298.13C331.601 295.658 334.658 292.003 340.372 287.164C341.664 285.197 341.322 283.963 339.348 283.461C334.757 284.424 331.596 289.983 331.596 289.983ZM345.52 283.091C345.289 283.257 345.289 283.685 345.52 284.376C345.752 285.067 346.445 285.353 347.6 285.236C351.453 284.663 353.049 283.325 352.387 281.222C348.841 280.592 346.552 281.215 345.52 283.091ZM357.286 291.715L358.231 292.053L363.756 294.332C365.033 294.714 365.611 294.416 365.492 293.439C365.246 289.714 358.263 289.384 357.023 290.203C356.195 290.749 356.283 291.253 357.286 291.715ZM350.08 301.228L350.617 301.663L353.693 304.453C354.435 304.981 354.874 304.841 355.007 304.034C355.268 302.809 355.084 301.52 354.252 300.827C353.02 299.799 350.82 299.699 350.236 299.965C349.584 300.262 349.532 300.683 350.08 301.228Z" fill="#50CCA3"/>
<path d="M372.813 385.712H410.995C413.456 385.712 415.451 387.709 415.451 390.172V435.181C415.451 437.644 413.456 439.641 410.995 439.641H372.813C370.352 439.641 368.357 437.644 368.357 435.181V390.172C368.357 387.709 370.352 385.712 372.813 385.712Z" fill="#2651FF"/>
<path d="M413.906 388.226V437.254C413.906 437.927 413.357 438.475 412.677 438.475H374.356C373.125 438.475 372.128 439.473 372.128 440.705C372.128 441.937 373.125 442.935 374.356 442.935H412.677C415.815 442.935 418.362 440.393 418.362 437.254V388.226C418.362 386.995 417.364 385.996 416.134 385.996C414.903 385.996 413.906 386.995 413.906 388.226Z" fill="#001772"/>
<path d="M408.789 444.431C410.221 444.431 411.381 443.272 411.381 441.842C411.381 440.412 410.221 439.253 408.789 439.253C407.357 439.253 406.197 440.412 406.197 441.842C406.197 443.272 407.357 444.431 408.789 444.431Z" fill="#001772"/>
<path d="M378.977 444.588C380.409 444.588 381.57 443.429 381.57 441.999C381.57 440.57 380.409 439.411 378.977 439.411C377.546 439.411 376.385 440.57 376.385 441.999C376.385 443.429 377.546 444.588 378.977 444.588Z" fill="#001772"/>
<path d="M398.876 253.673C390.788 308.97 388.09 352.889 390.795 385.465C390.897 386.692 391.973 387.605 393.199 387.503C394.426 387.401 395.337 386.323 395.235 385.095C392.563 352.912 395.242 309.308 403.285 254.319C403.464 253.101 402.621 251.968 401.404 251.789C400.186 251.611 399.055 252.454 398.876 253.673Z" fill="#001772"/>
<path d="M445.27 235.807C439.964 234.441 436.034 234.727 433.48 236.666C432.797 238.357 433.499 239.223 435.586 239.263C443.464 238.604 447.831 239.772 448.686 242.766C450.874 247.772 452.635 250.696 453.968 251.538C448.469 250.796 444.386 250.76 441.72 251.432C439.573 252.822 439.97 254.138 442.912 255.38C452.503 255.495 457.694 256.476 458.486 258.324C462.44 265.688 462.768 272.391 459.47 278.434C457.002 275.783 453.104 274.768 447.778 275.39C445.575 275.109 444.341 273.001 444.076 269.067C443.378 267.749 442.641 267.615 441.865 268.665C441.285 271.914 441.707 274.16 443.132 275.404C431.597 276.692 425.497 275.697 424.831 272.418C423.96 269.699 424.641 266.455 426.874 262.685C427.639 259.707 427.052 258.704 425.113 259.675C421.294 262.519 419.793 267.458 420.611 274.493C412.209 271.735 407.472 268.518 406.4 264.843C405.621 259.244 406.48 254.89 408.978 251.781C410.18 249.83 409.703 248.893 407.547 248.971C404.006 250.616 402.124 254.435 401.904 260.428C396.315 251.302 397.942 242.734 406.787 234.722C411.116 231.126 415.466 230.268 419.834 232.148C421.292 232.776 422.396 233.169 422.471 232.642C423.951 222.328 444.107 229.393 445.27 235.807ZM419.61 247.966C421.641 247.267 422.972 245.788 422.584 244.662C422.195 243.535 420.234 243.188 418.204 243.886C416.173 244.584 414.842 246.064 415.23 247.19C415.619 248.317 417.58 248.664 419.61 247.966Z" fill="#50CCA3"/>
<path d="M364.537 382.692H419.703C420.934 382.692 421.931 383.69 421.931 384.922V386.502C421.931 387.733 420.934 388.732 419.703 388.732H364.537C363.306 388.732 362.309 387.733 362.309 386.502V384.922C362.309 383.69 363.306 382.692 364.537 382.692Z" fill="#2651FF"/>
<path d="M388.803 390.501H420.116C421.347 390.501 422.344 389.502 422.344 388.271C422.344 387.039 421.347 386.041 420.116 386.041H388.803C387.572 386.041 386.575 387.039 386.575 388.271C386.575 389.502 387.572 390.501 388.803 390.501Z" fill="#001772"/>
<path fill-rule="evenodd" clip-rule="evenodd" d="M130.164 430.431L148.645 430.477C159.369 435.669 165.709 438.958 167.664 440.345C169.619 441.732 170.196 443.349 169.395 445.196H130.164V430.431Z" fill="#7C2C30"/>
<path fill-rule="evenodd" clip-rule="evenodd" d="M69.0845 430.982L87.1089 431.027C97.5682 436.219 103.751 439.508 105.658 440.895C107.565 442.282 108.128 443.899 107.347 445.747H69.0845V430.982Z" fill="#7C2C30"/>
<path fill-rule="evenodd" clip-rule="evenodd" d="M141.6 233.56L162.903 333.941L149.109 430.183L129.946 431.415L126.47 339.279L116.773 313.242L87.9938 431.908H69.0845L85.8727 237.005L92.3036 237.387L141.6 233.56Z" fill="url(#paint0_linear)"/>
<path fill-rule="evenodd" clip-rule="evenodd" d="M94.6783 139.506L113.779 143.312C114.22 148.835 115.548 153.012 117.762 155.843C119.977 158.675 119.939 161.743 117.649 165.048H95.8785L94.6783 139.506Z" fill="#FFB5B9"/>
<path fill-rule="evenodd" clip-rule="evenodd" d="M145.894 236.043C146.174 236.807 145.784 237.654 145.022 237.935C144.877 237.989 144.724 238.019 144.57 238.025L81.7977 239.938C80.9865 239.969 80.3044 239.334 80.2741 238.52C80.2666 238.319 80.3004 238.118 80.3735 237.93L89.2631 215.062C84.7165 204.808 81.2491 196.556 78.8609 190.308L67.8432 198.762L87.8255 214.02L79.4325 229.156C52.2326 213.353 38.1146 203.222 37.0786 198.762C35.7962 193.241 63.4566 170.022 78.0281 160.717C78.8296 159.891 79.826 159.137 81.0631 158.468C82.8709 157.49 87.8182 155.536 95.9049 152.606C99.2954 150.691 114.492 150.83 120.939 153.248C125.074 154.118 129.371 155.744 133.83 158.126C134.302 158.378 134.726 159.275 135.102 160.817C144.981 164.282 184.654 194.993 183.248 201.562C182.339 205.812 168.261 215.871 143.955 230.754L145.894 236.043Z" fill="#B1D6FE"/>
<path fill-rule="evenodd" clip-rule="evenodd" d="M139.012 212.768L152.489 202.1L136.892 190.561C136.624 194.041 134.543 198.341 133.59 202.478L137.542 213.26L139.012 212.768Z" fill="#B1D6FE"/>
<path d="M59.1385 176.324C45.1164 186.35 38.0993 194.508 38.9824 198.309C39.8223 201.926 54.0384 212.128 80.41 227.449C81.3466 227.993 81.666 229.196 81.1235 230.135C80.581 231.075 79.382 231.395 78.4455 230.851C50.4171 214.567 36.3972 204.505 35.1652 199.201C33.7494 193.106 41.4724 184.128 56.8635 173.123C57.7448 172.493 58.9685 172.699 59.5968 173.583C60.225 174.467 60.0199 175.694 59.1385 176.324Z" fill="#7C2C30"/>
<path d="M82.6264 234.589C83.0932 232.524 83.8488 230.456 85.6936 225.908L85.7421 225.789C87.3386 221.854 87.9703 220.202 88.5643 218.232C89.415 215.412 89.69 213.245 89.2248 211.479C88.8854 210.191 88.3952 208.742 87.6909 206.885C87.4201 206.171 87.1314 205.431 86.7215 204.395C86.6109 204.116 86.2227 203.137 86.2135 203.114C86.009 202.598 85.8526 202.201 85.7004 201.813C84.8186 199.565 84.1934 197.872 83.6546 196.225C82.5094 192.723 81.9172 189.845 81.9172 187.404C81.9172 186.318 81.0398 185.438 79.9575 185.438C78.8752 185.438 77.9978 186.318 77.9978 187.404C77.9978 190.334 78.6672 193.587 79.9304 197.45C80.4972 199.183 81.146 200.94 82.053 203.253C82.2072 203.645 82.3652 204.046 82.5712 204.566C82.5808 204.59 82.9685 205.568 83.0784 205.846C83.482 206.866 83.7648 207.59 84.0276 208.283C84.6872 210.022 85.1378 211.354 85.4354 212.484C85.894 214.224 84.9993 217.19 82.1117 224.307L82.0632 224.427C80.1306 229.19 79.3364 231.365 78.804 233.72C77.9919 237.313 78.334 239.974 80.4994 241.539C80.8533 241.795 81.2821 241.925 81.718 241.908L111.376 240.798C112.457 240.758 113.301 239.845 113.261 238.76C113.221 237.676 112.311 236.829 111.23 236.87L82.4902 237.946C82.2428 237.361 82.2453 236.275 82.6264 234.589Z" fill="#7C2C30"/>
<path d="M181.331 201.643C181.329 201.651 181.307 201.497 181.198 201.208C181.033 200.77 180.73 200.21 180.292 199.554C179.38 198.186 177.943 196.48 176.046 194.509C172.451 190.772 167.312 186.195 161.435 181.449C149.924 172.155 137.802 164.015 133.988 163.021C132.94 162.749 132.311 161.676 132.583 160.625C132.855 159.574 133.925 158.944 134.973 159.216C139.545 160.407 151.901 168.704 163.892 178.387C169.888 183.227 175.142 187.908 178.867 191.779C183.472 196.566 185.709 199.919 185.163 202.468C184.024 207.793 170.181 218.098 142.44 234.87C141.871 235.215 141.166 235.246 140.569 234.953C136.511 232.966 133.932 231.081 132.784 229.095C131.55 226.957 130.935 223.386 130.814 218.246C130.801 217.677 131.034 217.13 131.453 216.747L140.108 208.834C140.908 208.103 142.148 208.161 142.877 208.963C143.606 209.765 143.549 211.009 142.749 211.74L134.76 219.043C134.91 223.078 135.416 225.809 136.176 227.125C136.764 228.143 138.497 229.466 141.342 230.943C166.849 215.475 180.563 205.23 181.331 201.643Z" fill="#7C2C30"/>
<path fill-rule="evenodd" clip-rule="evenodd" d="M90.4336 131.211C90.0802 129.151 89.7593 127.264 89.4708 125.551C89.4708 118.335 104.091 112.012 112.429 112.012C120.767 112.012 119.666 118.335 119.666 125.551V133.905C119.666 141.12 115.312 146.801 111.248 147.12C108.157 147.362 98.6188 143.202 93.827 138.869C91.7936 138.806 89.1025 132.384 90.4336 131.211Z" fill="#FFB5B9"/>
<path fill-rule="evenodd" clip-rule="evenodd" d="M82.5055 120.168C81.6518 136.709 79.8066 147.058 76.9697 151.213C71.2375 159.608 58.3171 159.076 52.4563 156.997C44.1315 154.045 51.1491 142.684 56.5851 130.767C61.1513 120.757 63.1437 109.807 68.3042 108.496C77.1897 106.239 83.8141 112.815 86.5478 115.341C89.2281 109.842 95.3198 107.201 100.747 106.433C109.629 105.175 118.205 98.1228 124.265 107.969C130.325 117.815 115.133 124.773 115.141 129.834C115.144 131.118 110.589 125.545 109.193 130.663C107.797 135.78 113.374 135.921 112.265 137.117C110.68 138.825 105.686 146.538 100.059 147.13C94.4322 147.722 92.0549 145.178 86.6285 129.571C85.4303 126.125 85.0166 123.134 85.1949 120.551L82.5055 120.168Z" fill="#7C2C30"/>
</g>
<defs>
<filter id="filter0_d" x="-19" y="-17" width="544.069" height="516.747" filterUnits="userSpaceOnUse" color-interpolation-filters="sRGB">
<feFlood flood-opacity="0" result="BackgroundImageFix"/>
<feColorMatrix in="SourceAlpha" type="matrix" values="0 0 0 0 0 0 0 0 0 0 0 0 0 0 0 0 0 0 127 0"/>
<feOffset/>
<feGaussianBlur stdDeviation="27"/>
<feColorMatrix type="matrix" values="0 0 0 0 0.0992975 0 0 0 0 0.0784048 0 0 0 0 0.271937 0 0 0 0.15 0"/>
<feBlend mode="normal" in2="BackgroundImageFix" result="effect1_dropShadow"/>
<feBlend mode="normal" in="SourceGraphic" in2="effect1_dropShadow" result="shape"/>
</filter>
<linearGradient id="paint0_linear" x1="104.364" y1="279.964" x2="196.383" y2="363.978" gradientUnits="userSpaceOnUse">
<stop stop-color="#2B55FF"/>
<stop offset="1" stop-color="#002BD7"/>
</linearGradient>
</defs>
</svg>
