<svg width="538" height="520" viewBox="0 0 538 520" fill="none" xmlns="http://www.w3.org/2000/svg">
<g filter="url(#filter0_d)">
<path fill-rule="evenodd" clip-rule="evenodd" d="M144.271 404.053L157.859 417.748C161.964 429.486 164.23 436.586 164.656 439.049C165.082 441.512 164.324 443.126 162.382 443.89L133.466 414.889L144.271 404.053ZM65.3348 303.541L80.0945 307.508L75.0631 326.157C66.98 335.592 61.9816 341.11 60.0679 342.712C58.1542 344.313 56.3818 344.462 54.7509 343.157L65.3348 303.541Z" fill="#7C2C30"/>
<path fill-rule="evenodd" clip-rule="evenodd" d="M167.743 207.232L222.177 217.442C229.511 288.418 231.689 329.23 228.713 339.878C225.737 350.527 202.567 375.795 159.205 415.683L142.79 403.498L188.268 333.298L184.685 311.299C177.377 330.746 172.586 341.231 170.315 342.752C165.788 345.784 133.863 340.247 74.5399 326.142L80.0944 307.508L144.723 307.812L163.953 221.933L170.238 222.56L167.743 207.232Z" fill="url(#paint0_linear)"/>
<path d="M169.183 341.053C169.166 341.064 169.146 341.076 169.122 341.088C169.129 341.088 169.148 341.077 169.183 341.053Z" fill="white"/>
<path fill-rule="evenodd" clip-rule="evenodd" d="M110.794 147.871C108.108 145.696 104.605 125.064 100.283 85.9733C97.7359 82.2979 90.7036 68.0913 92.5957 61.5905C94.6169 54.6462 102.616 57.4665 103.214 58.3252C104.414 60.0506 107.248 62.6599 109.267 74.0501C110.484 74.7232 114.913 68.0818 116.657 69.6092C118.4 71.1366 114.612 76.1328 114.057 77.272C113.687 78.0312 113.686 79.8511 110.794 83.9698L111.201 86.6995L124.037 133.671C135.64 139.392 144.343 143.682 150.145 146.543C155.505 149.185 150.11 175.197 143.278 170.891C130.905 163.092 114.687 151.023 110.794 147.871Z" fill="#FFB5B9"/>
<path fill-rule="evenodd" clip-rule="evenodd" d="M261.908 143.677C258.015 146.829 241.796 158.898 229.424 166.697C222.592 171.003 217.197 144.991 222.557 142.349L248.665 129.477L261.501 82.5054L261.908 79.7757C259.016 75.657 259.014 73.8371 258.645 73.078C258.089 71.9387 254.302 66.9425 256.045 65.4151C257.789 63.8877 262.218 70.5291 263.434 69.856C265.454 58.4658 268.287 55.8565 269.488 54.1311C270.086 53.2724 278.085 50.4521 280.106 57.3964C281.998 63.8973 274.966 78.1038 272.419 81.7792C268.097 120.87 264.593 141.502 261.908 143.677Z" fill="#FFB5B9"/>
<path fill-rule="evenodd" clip-rule="evenodd" d="M174.97 140C179.676 143.821 184.227 145.003 189.298 144.794C194.369 144.585 197.571 145.378 197.273 141.917L206.353 142.212L212.661 146.896C216.149 153.056 218.088 163.144 218.478 177.159C218.538 179.312 217.612 183.398 215.7 189.416L222.959 220.61C223.149 221.428 222.661 222.25 221.869 222.447C221.816 222.46 221.763 222.47 221.71 222.477L164.503 229.988C163.695 230.094 162.956 229.503 162.853 228.669C162.832 228.499 162.839 228.327 162.873 228.16L167.635 205.043C156.893 181.694 151.226 167.971 150.632 163.873C149.417 155.48 146.363 149.955 154.038 146.287C156.121 145.292 163.098 143.196 174.97 140Z" fill="white"/>
<path fill-rule="evenodd" clip-rule="evenodd" d="M173.668 123.166L189.974 126.608L194.098 140.006L205.811 142.249C203.516 154.025 198.06 160.062 189.445 160.358C180.83 160.655 170.983 154.96 159.903 143.275L174.442 139.613L173.668 123.166Z" fill="#FFB5B9"/>
<path fill-rule="evenodd" clip-rule="evenodd" d="M271.771 87.5568C267.746 122.905 264.458 141.612 261.908 143.677C258.015 146.829 233.037 164.668 220.665 172.467C220.517 172.56 220.367 172.635 220.213 172.693C220.305 173.971 220.372 175.282 220.411 176.622C220.489 179.371 218.742 183.6 215.167 189.309L227.167 228.072C227.371 228.893 226.871 229.723 226.051 229.927C225.993 229.941 225.934 229.952 225.875 229.96C221.751 232.097 213.247 234.128 210.427 227.718C210.427 235.751 187.751 236.169 161 231.95C160.162 232.056 159.397 231.462 159.291 230.623C159.264 230.413 159.282 230.2 159.342 229.997L167.201 206.56L155.22 179.955C155.096 179.9 154.968 179.831 154.835 179.747C142.462 171.949 114.687 151.023 110.794 147.871C108.232 145.796 104.926 126.924 100.875 91.2534C100.744 90.1061 104.51 89.7726 112.172 90.2528L124.037 133.671L150.145 146.543C150.291 146.615 150.437 146.71 150.583 146.828C150.873 146.634 151.177 146.449 151.497 146.276C152.753 145.598 156.343 144.347 162.265 142.521C162.444 145.417 177.085 162.701 206.188 194.373C209.607 170.758 205.719 153.129 201.985 141.768C203.923 141.949 206.688 142.015 208.905 142.363C216.451 141.463 229.705 137.167 248.665 129.477L260.538 86.0271C268.169 85.7943 271.913 86.3042 271.771 87.5568Z" fill="#B1D6FE"/>
<path d="M176.944 211.329L191.886 213.132C193.004 213.267 194.02 212.469 194.154 211.35C194.289 210.231 193.492 209.214 192.374 209.079L177.432 207.276C176.314 207.141 175.298 207.939 175.163 209.059C175.029 210.178 175.826 211.195 176.944 211.329Z" fill="#7C2C30"/>
<path d="M215.687 210.138L220.004 209C221.093 208.713 221.744 207.596 221.457 206.506C221.17 205.416 220.055 204.765 218.965 205.052L214.648 206.191C213.559 206.478 212.909 207.594 213.195 208.684C213.482 209.775 214.598 210.425 215.687 210.138Z" fill="#7C2C30"/>
<path fill-rule="evenodd" clip-rule="evenodd" d="M189.462 98.6294C198.535 98.6294 199.544 104.855 199.544 112.183L198.774 120.668C198.774 127.997 197.186 136.308 190.053 136.308C182.919 136.308 168.648 127.009 167.652 121.637C166.989 118.056 166.411 114.905 165.921 112.183C165.921 104.855 180.39 98.6294 189.462 98.6294Z" fill="#FFB5B9"/>
<path fill-rule="evenodd" clip-rule="evenodd" d="M157.707 87.2886C163.067 87.2886 167.659 90.5235 169.58 95.1184C173.038 92.0102 178.432 90.6745 186.651 91.8434C198.432 89.9497 209.79 92.8716 206.672 104.649C203.554 116.427 197.185 127.252 198.772 119.643C200.224 112.676 198.911 110.326 198.774 109.498C197.378 107.148 195.918 104.779 194.396 102.389C182.984 115.226 175.945 120.977 173.28 119.643C170.478 118.241 167.094 120.158 168.188 122.889C168.918 124.71 170.615 125.899 173.28 126.455C174.859 130.225 175.16 132.602 174.183 133.587C172.717 135.065 164.914 129.79 164.381 123.186C164.031 118.853 163.834 114.714 163.998 110.939C162.14 111.972 159.993 112.561 157.707 112.561C150.62 112.561 144.874 106.903 144.874 99.9246C144.874 92.9459 150.62 87.2886 157.707 87.2886Z" fill="#7C2C30"/>
<path fill-rule="evenodd" clip-rule="evenodd" d="M279.646 61.2725H478.182C480.882 61.2725 483.072 63.475 483.072 66.1921V234.791C483.072 237.508 480.882 239.711 478.182 239.711H279.646C276.946 239.711 274.756 237.508 274.756 234.791V66.1921C274.756 63.475 276.946 61.2725 279.646 61.2725Z" fill="#E6EBFF"/>
<path fill-rule="evenodd" clip-rule="evenodd" d="M285.265 89.1504H472.889C474.192 89.1504 475.248 90.2064 475.248 91.5091V229.153C475.248 230.456 474.192 231.512 472.889 231.512H285.265C283.963 231.512 282.906 230.456 282.906 229.153V91.5091C282.906 90.2064 283.963 89.1504 285.265 89.1504Z" fill="white"/>
<path d="M320.421 143.013C331.392 143.013 340.286 134.065 340.286 123.027C340.286 111.99 331.392 103.042 320.421 103.042C309.449 103.042 300.555 111.99 300.555 123.027C300.555 134.065 309.449 143.013 320.421 143.013Z" fill="#FF507A"/>
<path fill-rule="evenodd" clip-rule="evenodd" d="M320.851 109.184C323.865 109.184 326.086 109.941 327.455 111.433C329.034 113.154 328.887 115.239 328.85 115.59V118.978C329.276 119.442 329.516 120.037 329.516 120.65V123.198C329.516 124.201 328.906 125.09 327.965 125.502C327.484 126.84 326.822 128.081 325.996 129.196C325.83 129.42 325.67 129.623 325.517 129.802V131.956C325.517 132.598 325.89 133.175 326.491 133.462L332.858 136.504C333.698 136.906 334.408 137.474 334.953 138.155C331.285 141.518 326.319 143.582 320.851 143.582C315.358 143.582 310.37 141.498 306.697 138.107C307.208 137.444 307.872 136.883 308.656 136.474L314.602 133.374C315.167 133.079 315.519 132.513 315.519 131.896V129.788C315.073 129.23 313.795 127.489 313.185 125.179C312.555 124.696 312.187 123.973 312.187 123.198V120.65C312.187 120.037 312.427 119.442 312.853 118.978V115.59C312.816 115.239 312.669 113.153 314.248 111.433C315.617 109.941 317.838 109.184 320.851 109.184Z" fill="white"/>
<path fill-rule="evenodd" clip-rule="evenodd" d="M298.411 171.964H320.785C322.596 171.964 324.064 173.432 324.064 175.244C324.064 177.055 322.596 178.523 320.785 178.523H298.411C296.6 178.523 295.132 177.055 295.132 175.244C295.132 173.432 296.6 171.964 298.411 171.964Z" fill="#FF507A" fill-opacity="0.25"/>
<path fill-rule="evenodd" clip-rule="evenodd" d="M279.646 61.2725H478.182C480.882 61.2725 483.072 63.475 483.072 66.1921V80.9509H274.756V66.1921C274.756 63.475 276.946 61.2725 279.646 61.2725Z" fill="#B8C6FF"/>
<path d="M288.449 75.0474C290.609 75.0474 292.361 73.2853 292.361 71.1117C292.361 68.9381 290.609 67.176 288.449 67.176C286.288 67.176 284.536 68.9381 284.536 71.1117C284.536 73.2853 286.288 75.0474 288.449 75.0474Z" fill="white"/>
<path d="M301.163 75.0474C303.323 75.0474 305.075 73.2853 305.075 71.1117C305.075 68.9381 303.323 67.176 301.163 67.176C299.002 67.176 297.251 68.9381 297.251 71.1117C297.251 73.2853 299.002 75.0474 301.163 75.0474Z" fill="white"/>
<path d="M313.877 75.0474C316.037 75.0474 317.789 73.2853 317.789 71.1117C317.789 68.9381 316.037 67.176 313.877 67.176C311.716 67.176 309.965 68.9381 309.965 71.1117C309.965 73.2853 311.716 75.0474 313.877 75.0474Z" fill="white"/>
<path d="M411.12 193.951C435.545 193.951 455.346 174.7 455.346 150.953C455.346 127.206 435.545 107.956 411.12 107.956C386.695 107.956 366.894 127.206 366.894 150.953C366.894 174.7 386.695 193.951 411.12 193.951Z" fill="#2651FF"/>
<path d="M392.46 148.658C390.002 147.07 386.666 147.692 385.01 150.048C383.353 152.404 384.003 155.602 386.461 157.19L403.969 168.502C406.242 169.971 409.305 169.561 411.072 167.551L434.427 140.985C436.337 138.813 436.048 135.567 433.782 133.736C431.515 131.905 428.129 132.182 426.219 134.355L405.971 157.387L392.46 148.658Z" fill="white"/>
<path d="M309.834 293.23C315.1 297.258 318.17 310.487 319.041 332.917C311.819 385.064 306.731 414.835 303.777 422.23L299.616 422.001C301.225 407.855 301.628 398.526 300.823 394.011C299.616 387.24 305.807 349.344 305.807 349.344C310.266 329.468 311.668 311.378 310.013 295.075L309.885 293.847L309.834 293.23Z" fill="#001772"/>
<path d="M308.468 422.721C309.451 418.182 308.735 410.336 306.319 399.185C304.602 386.058 307.607 366.849 315.334 341.559C320.084 323.16 322.236 305.938 321.791 289.892C321.123 275.417 322.4 264.892 325.62 258.315C325.524 269.779 326.751 281.206 329.302 292.596C333.95 312.655 333.069 332.137 326.657 351.04C319.902 366.057 316.194 379.908 315.533 392.593C316.195 404.983 314.525 415.164 310.521 423.136L309.018 422.837L308.468 422.721Z" fill="#50CCA3"/>
<path d="M261.243 258.315C267.423 259.276 273.65 268.419 279.926 285.744C284.297 297.811 289.269 307.896 291.497 316.196C294.068 325.771 293.606 332.957 294.477 337.82C295.56 343.874 295.361 359.376 293.882 384.326C291.545 396.291 290.377 408.851 290.377 422.008L286.09 421.918C283.89 403.661 282.79 391.13 282.79 384.326C282.79 377.521 282.241 351.904 281.144 307.473C275.428 299.351 271.219 288.739 268.518 275.635C267.129 268 264.845 262.548 261.666 259.279L261.272 258.752L261.243 258.315Z" fill="#001772"/>
<path d="M271.273 302.417C275.1 317.124 272.335 320.097 278.879 334.327C274.724 376.475 275.479 406.708 281.144 425.026L277.059 421.927C275.524 413.672 273.342 405.102 270.514 396.217C266.017 381.297 265.009 366.899 267.489 353.021C268.732 344.628 268.905 336.443 268.009 328.467C267.464 323.625 267.291 320.034 267.489 317.694C268.448 306.41 270.688 300.17 271.273 302.417Z" fill="#001772"/>
<path d="M294.031 248.078C294.23 256.104 296.575 264.01 301.067 271.798C304.234 278.158 305.72 286.392 305.526 296.499C306.432 341.664 305.145 376.04 301.665 399.627C299.572 407.956 297.233 415.689 294.646 422.825C292.785 423.28 291.854 423.508 291.854 423.508C294.046 405.249 294.846 390.525 294.254 379.334C291.615 359.927 291.932 342.381 295.205 326.696C298.464 314.513 298.152 299.911 294.267 282.89C290.948 272.772 290.612 261.514 293.26 249.116L293.501 248.32L294.031 248.078Z" fill="#50CCA3"/>
<path d="M283.598 422.236C281.85 416.018 281.804 405.372 283.458 390.299C284.941 374.99 286.106 365.204 286.953 360.941C291.498 338.065 291.652 321.172 290.515 312.615C287.628 277.311 282.293 253.317 274.509 240.633C278.028 275.72 279.268 303.303 278.23 323.383C273.416 352.953 271.98 376.174 273.925 393.045C275.34 402.582 277.306 412.462 279.823 422.685L282.821 422.637C283.339 422.37 283.598 422.236 283.598 422.236Z" fill="#50CCA3"/>
<path d="M318.98 419.992H270.928C269.3 419.992 267.98 421.312 267.98 422.94V431.32C267.98 432.948 269.3 434.268 270.928 434.268H318.98C320.608 434.268 321.928 432.948 321.928 431.32V422.94C321.928 421.312 320.608 419.992 318.98 419.992Z" fill="#2651FF"/>
<path d="M311.855 425.091H276.526C274.898 425.091 273.578 426.411 273.578 428.039V456.814C273.578 458.442 274.898 459.762 276.526 459.762H311.855C313.483 459.762 314.803 458.442 314.803 456.814V428.039C314.803 426.411 313.483 425.091 311.855 425.091Z" fill="#2651FF"/>
<path d="M313.665 436.767V457.33C313.665 458.456 312.753 459.369 311.629 459.369H278.547C277.423 459.369 276.511 460.282 276.511 461.409C276.511 462.535 277.423 463.448 278.547 463.448H311.629C315.002 463.448 317.736 460.709 317.736 457.33V436.767C317.736 435.641 316.825 434.728 315.701 434.728C314.576 434.728 313.665 435.641 313.665 436.767Z" fill="#001772"/>
<path d="M309.084 465.488C310.771 465.488 312.138 464.118 312.138 462.428C312.138 460.739 310.771 459.369 309.084 459.369C307.398 459.369 306.031 460.739 306.031 462.428C306.031 464.118 307.398 465.488 309.084 465.488Z" fill="#001772"/>
<path d="M283.637 465.488C285.323 465.488 286.69 464.118 286.69 462.428C286.69 460.739 285.323 459.369 283.637 459.369C281.95 459.369 280.583 460.739 280.583 462.428C280.583 464.118 281.95 465.488 283.637 465.488Z" fill="#001772"/>
<path d="M284.296 436.308L319.256 436.425C320.381 436.429 321.295 435.519 321.299 434.392C321.303 433.266 320.394 432.35 319.27 432.346L284.31 432.229C283.186 432.225 282.271 433.135 282.267 434.261C282.264 435.388 283.172 436.304 284.296 436.308Z" fill="#001772"/>
</g>
<defs>
<filter id="filter0_d" x="0.750854" y="-1.16479" width="536.321" height="520.652" filterUnits="userSpaceOnUse" color-interpolation-filters="sRGB">
<feFlood flood-opacity="0" result="BackgroundImageFix"/>
<feColorMatrix in="SourceAlpha" type="matrix" values="0 0 0 0 0 0 0 0 0 0 0 0 0 0 0 0 0 0 127 0"/>
<feOffset/>
<feGaussianBlur stdDeviation="27"/>
<feColorMatrix type="matrix" values="0 0 0 0 0.0992975 0 0 0 0 0.0784048 0 0 0 0 0.271937 0 0 0 0.15 0"/>
<feBlend mode="normal" in2="BackgroundImageFix" result="effect1_dropShadow"/>
<feBlend mode="normal" in="SourceGraphic" in2="effect1_dropShadow" result="shape"/>
</filter>
<linearGradient id="paint0_linear" x1="133" y1="256" x2="224" y2="387" gradientUnits="userSpaceOnUse">
<stop stop-color="#2B55FF"/>
<stop offset="1" stop-color="#002BD7"/>
</linearGradient>
</defs>
</svg>
