<svg width="502" height="476" viewBox="0 0 502 476" fill="none" xmlns="http://www.w3.org/2000/svg">
<g clip-path="url(#clip0)">
<path fill-rule="evenodd" clip-rule="evenodd" d="M94.1829 315.159C94.1789 315.374 94.1539 315.588 94.1109 315.799C93.7119 317.757 91.7989 319.02 89.8389 318.621C87.2649 318.098 85.2559 316.085 84.7389 313.514L54.1949 161.619C54.0089 160.697 53.8849 159.763 53.8219 158.825C53.0299 146.998 61.9879 136.77 73.8309 135.98C74.4979 135.935 75.1659 135.92 75.8339 135.935C88.2119 136.216 98.0189 146.465 97.7379 158.826L94.1829 315.159Z" fill="#FF9C21"/>
<path d="M66.9031 171.592C51.3851 177.22 25.1651 152.184 33.0281 123.94C40.8911 95.6957 47.8551 78.7598 40.4411 69.9894C33.0281 61.2189 59.8331 65.5131 59.8331 82.3439C59.8331 99.1747 61.8741 40.3068 82.4211 24.3579C86.0071 43.883 92.6271 59.0934 102.282 69.9894C116.763 86.3333 113.726 99.2362 107.709 114.816C114.674 116.187 117.75 114.466 116.937 109.655C126.212 118.419 117.186 155.306 95.6151 165.45C74.0441 175.595 82.4211 165.964 66.9031 171.592Z" fill="#FA4871"/>
<path fill-rule="evenodd" clip-rule="evenodd" d="M97.777 164.322C97.071 164.727 96.351 165.104 95.615 165.45C74.044 175.595 82.421 165.964 66.903 171.592C63.715 172.748 60.075 172.61 56.372 171.416L54.696 161.051C54.613 160.539 54.549 160.025 54.504 159.508C53.475 147.762 62.176 137.407 73.937 136.379C74.343 136.344 74.749 136.32 75.156 136.307C87.155 135.934 97.186 145.346 97.559 157.33L97.777 164.322Z" fill="#FFC378"/>
<path d="M69.1629 156.596L76.2809 142.706C77.4449 140.434 80.8559 142.178 79.6929 144.449L72.5749 158.339C71.4109 160.611 67.9989 158.867 69.1629 156.596Z" fill="#FA4871"/>
<path d="M76.2149 160.113L83.3329 146.223C84.4969 143.952 87.9089 145.695 86.7449 147.967L79.6269 161.857C78.4629 164.128 75.0509 162.385 76.2149 160.113Z" fill="#FA4871"/>
<path d="M58.6832 270.459C54.8583 258.688 57.4244 247.304 64.4146 245.033C71.4047 242.761 80.1721 250.463 83.9969 262.235C87.8217 274.006 85.2557 285.39 78.2655 287.661C71.2753 289.933 62.508 282.231 58.6832 270.459Z" fill="#854242"/>
<path fill-rule="evenodd" clip-rule="evenodd" d="M198.514 293.275C199.87 295.437 196.622 297.469 195.266 295.306L198.514 293.275ZM187.863 283.498C186.507 281.336 189.755 279.305 191.111 281.467L187.863 283.498Z" fill="#693C32"/>
<path d="M105.708 256.818C128.116 262.728 161.54 272.084 189.478 282.51C177.156 243.669 165.334 191.078 173.801 173.367C186.037 147.772 203.627 157.61 212.898 172.397C221.956 186.842 253.821 294.731 243.881 323.582C247.722 340.946 237.077 349.077 214.694 344.503C198.861 341.268 160.882 321.92 100.758 286.46C97.9929 287.018 94.2479 285.277 92.6759 283.012C92.2579 282.41 91.8829 281.736 91.5449 281.003C85.7729 277.571 79.8119 274.001 73.6609 270.292C72.7539 265.426 72.3939 261.442 72.5819 258.34C72.5529 258.328 72.5239 258.316 72.4939 258.303C62.9789 254.117 78.2499 236.376 84.1549 238.546C88.0779 239.988 93.1569 239.198 99.4809 244.884C102.242 247.367 104.371 251.759 105.708 256.818Z" fill="#854242"/>
<path d="M68.616 253.153C68.362 253.552 68.173 253.893 68.047 254.162C70.207 255.18 73.459 255.194 78.012 253.588C82.138 252.133 84.742 250.951 85.638 250.197C87.174 248.905 89.412 250.542 88.643 252.394C86.773 256.893 86.773 260.909 88.591 264.582C89.515 266.449 90.342 267.656 90.972 268.163C91.005 268.19 91.036 268.214 91.065 268.234C91.86 267.622 93.005 267.727 93.675 268.492C94.371 269.288 94.29 270.497 93.493 271.192C92.003 272.492 90.147 272.417 88.564 271.141C87.407 270.208 86.304 268.599 85.155 266.278C83.486 262.905 83.013 259.298 83.717 255.508C82.471 256.034 80.998 256.594 79.288 257.197C73.172 259.355 68.489 259.061 65.288 257.001C64.205 256.304 63.859 255.118 64.118 253.867C64.286 253.051 64.712 252.15 65.385 251.096C66.58 249.222 68.656 246.732 71.633 243.581C72.359 242.812 73.572 242.777 74.342 243.502C75.111 244.227 75.147 245.438 74.421 246.207C71.596 249.197 69.654 251.527 68.616 253.153Z" fill="#693C32"/>
<path d="M189.582 141.942C215.618 117.682 382.653 141.82 393.955 163.394C405.258 184.969 372.187 329.465 340.757 348.281C309.328 367.097 236.164 369.074 208.253 334.373C180.341 299.671 163.547 166.202 189.582 141.942Z" fill="#854242"/>
<path d="M187.816 261.091C172.829 261.745 159.677 256.136 157.626 242.035C153.644 214.657 160.456 166.91 180.3 146.577C187.428 139.273 193.71 136.529 199.013 136.802C209.865 133.061 226.713 131.6 246.066 131.82C261.849 132 228.277 235.717 283.572 241.521C353.577 248.869 322.287 138.976 334.176 141.304C365.175 147.376 389.848 155.554 393.955 163.394C403.238 181.113 382.589 281.749 357.501 327.573C352.042 337.543 374.086 381.056 368.47 384.419C341.066 400.824 323.439 398.074 273.758 399.449C224.077 400.824 195.381 376.441 196.174 366.844C197.45 351.385 200.025 328.463 196.956 308.89C195.405 298.991 191.569 281.378 187.816 261.091Z" fill="#5252FF"/>
<path d="M243.058 179.424C242.937 177.949 244.036 176.656 245.512 176.535C246.989 176.413 248.284 177.511 248.405 178.985C251.522 216.884 263.328 236.393 283.517 238.512C297.789 240.01 309.481 233.988 318.013 221.893C325.674 211.034 330.266 195.787 330.88 180.388C330.939 178.91 332.187 177.759 333.667 177.818C335.147 177.876 336.3 179.123 336.241 180.601C335.588 196.976 330.696 213.218 322.399 224.979C312.8 238.586 299.273 245.554 282.956 243.841C259.557 241.385 246.36 219.579 243.058 179.424Z" fill="white"/>
<path d="M184.037 255.348C175.159 253.261 165.593 248.146 157.152 240.544C156.366 239.836 156.303 238.626 157.012 237.841C157.72 237.056 158.932 236.994 159.718 237.702C167.977 245.14 176.398 249.763 185.017 251.567C185.75 254.176 187.238 255.348 184.037 255.348Z" fill="white"/>
<path d="M188.504 258.222C188.816 259.232 188.249 260.303 187.238 260.615C186.227 260.927 185.154 260.361 184.842 259.351C180.655 245.798 178.91 236.038 179.65 229.918C179.777 228.869 180.731 228.121 181.782 228.248C182.833 228.374 183.581 229.328 183.454 230.377C182.796 235.818 184.465 245.15 188.504 258.222Z" fill="#5252FF"/>
<path d="M241.854 154.255C234.994 152.083 222.639 141.213 224.6 132.734C226.636 123.924 233.679 118.025 240.329 119.558C240.588 119.618 240.842 119.688 241.092 119.768C241.319 118.338 241.585 116.958 241.891 115.636C249.069 84.5856 280.587 65.3402 312.29 72.6497C343.993 79.9593 363.874 111.056 356.696 142.106C349.518 173.156 312.775 223.989 281.072 216.679C259.999 211.82 246.457 182.494 241.854 154.255Z" fill="#854242"/>
<path fill-rule="evenodd" clip-rule="evenodd" d="M275.284 118.137L286.067 128.179C287.425 129.443 287.499 131.567 286.233 132.923C284.967 134.279 282.84 134.353 281.483 133.088L270.7 123.046C269.342 121.782 269.268 119.658 270.534 118.302C271.8 116.947 273.927 116.872 275.284 118.137Z" fill="#592D2D"/>
<path fill-rule="evenodd" clip-rule="evenodd" d="M323.444 126.842L337.209 121.565C338.942 120.901 340.886 121.765 341.551 123.496C342.216 125.226 341.351 127.168 339.618 127.832L325.853 133.109C324.12 133.774 322.176 132.909 321.511 131.179C320.846 129.448 321.711 127.506 323.444 126.842Z" fill="#FFC378"/>
<path fill-rule="evenodd" clip-rule="evenodd" d="M306.899 134.633C307.846 132.344 304.484 130.839 303.403 133.068L288.979 162.817C285.564 165.168 286.154 168.585 289.564 170.788C292.224 172.507 296.317 173.459 299.528 173.032C303.742 172.47 308.254 170.05 313.107 165.832C314.288 164.806 313.806 162.876 312.281 162.524C309.649 161.917 306.773 160.009 303.694 156.741C301.101 153.989 301.974 146.54 306.899 134.633ZM291.444 165.784C291.768 165.592 292.029 165.309 292.193 164.971L298.443 152.081C298.475 155.221 299.282 157.644 300.903 159.364C303.309 161.917 305.685 163.803 308.045 165.004C304.727 167.479 301.711 168.88 299.021 169.238C296.726 169.544 293.549 168.804 291.646 167.575C290.237 166.664 290.217 166.509 291.444 165.784Z" fill="#592D2D"/>
<path d="M238.335 125.608C239.349 125.304 240.417 125.878 240.721 126.89C241.026 127.903 240.451 128.97 239.437 129.274C233.58 131.03 232.542 133.6 235.657 138.371C236.235 139.257 235.985 140.442 235.099 141.02C234.212 141.597 233.025 141.347 232.447 140.462C227.9 133.497 230.085 128.082 238.335 125.608Z" fill="#592D2D"/>
<path d="M273.799 183.535C272.741 183.516 271.899 182.644 271.918 181.587C271.938 180.53 272.811 179.689 273.869 179.709C287.581 179.96 297.117 186.879 302.167 200.203C302.542 201.191 302.044 202.296 301.054 202.67C300.064 203.044 298.958 202.546 298.583 201.558C294.08 189.677 285.921 183.757 273.799 183.535Z" fill="#592D2D"/>
<path d="M250.844 187.349C250.513 186.346 251.06 185.264 252.065 184.933C253.07 184.603 254.153 185.149 254.484 186.153C259.929 202.671 269.215 212.324 282.418 215.368C295.576 218.402 308.26 213.176 320.642 199.437C321.35 198.652 322.561 198.588 323.348 199.295C324.134 200.002 324.198 201.212 323.49 201.997C310.246 216.693 296.211 222.476 281.556 219.098C266.945 215.729 256.682 205.061 250.844 187.349Z" fill="#592D2D"/>
<path d="M267.475 140.459L277.415 138.539L269.262 133.318C268.371 132.747 268.112 131.564 268.683 130.674C269.255 129.784 270.44 129.526 271.331 130.096L283.515 137.899C284.971 138.832 284.542 141.061 282.844 141.389L268.203 144.216C267.164 144.417 266.159 143.738 265.958 142.701C265.757 141.663 266.436 140.659 267.475 140.459Z" fill="#592D2D"/>
<path d="M324.961 153.593C327.195 154.109 329.424 152.718 329.939 150.487C330.454 148.255 329.061 146.029 326.827 145.513C324.593 144.997 322.364 146.388 321.849 148.619C321.334 150.85 322.727 153.077 324.961 153.593Z" fill="#592D2D"/>
<path fill-rule="evenodd" clip-rule="evenodd" d="M218.998 79.1126L210.804 75.7588C209.433 75.1977 208.777 73.6329 209.339 72.2638C209.901 70.8947 211.467 70.2397 212.838 70.8008L215.933 72.0676L213.321 69.6483C212.234 68.6423 212.17 66.9472 213.177 65.8622C214.185 64.7771 215.882 64.713 216.968 65.719L221.176 69.6149C221.423 69.0231 221.691 68.4452 221.983 67.8825C231.173 50.1528 237.171 45.5117 254.969 53.2084C285.642 -16.766 332.65 -8.49084 345.554 28.1025C363.652 5.43938 380.192 5.68034 392.387 13.6825L395.303 8.52371C396.032 7.23526 397.668 6.78048 398.958 7.50794C400.248 8.2354 400.704 9.86962 399.975 11.1581L396.692 16.9661C399.134 19.1004 401.348 21.5211 403.305 24.066L417.547 14.2318C418.766 13.3903 420.436 13.6947 421.279 14.9118C422.122 16.1288 421.817 17.7976 420.598 18.6391L406.367 28.4657C406.409 28.5316 406.45 28.5975 406.491 28.6634L416.995 25.1778C418.401 24.7113 419.919 25.4713 420.386 26.8754C420.854 28.2796 420.093 29.7961 418.687 30.2627L409.156 33.4254C410.567 36.2583 411.633 39.01 412.315 41.4734C459.448 34.2682 478.777 72.7681 421.353 96.0498C425.44 123.06 391.584 131.153 379.463 124.08C378.748 147.678 358.935 160.443 348.567 160.776C350.884 157.081 354.925 145.956 356.58 138.799C352.965 125.572 350.234 121.752 351.545 106.023C341.035 113.001 321.657 114.836 303.805 117.609C295.859 118.844 269.785 115.818 261.83 104.559C259.093 116.399 259.027 128.758 250.712 145.506C243.969 147.719 247.076 126.002 242.982 121.909C238.164 117.093 231.811 122.761 228.609 123.953C226.82 119.429 217.48 96.9038 218.998 79.1126Z" fill="#25253A"/>
<path d="M407.14 197.721C407.635 211.486 400.891 284.265 372.795 327.92C366.638 337.486 368.275 342.46 363.69 349.901C345.969 378.657 316.201 384.02 316.201 331.537C316.201 318.324 326.663 306.817 328.93 294.958C336.69 254.358 354.676 191.465 372.795 179.038C396.206 162.982 406.514 180.285 407.14 197.721Z" fill="#854242"/>
<path d="M406.382 177.107C406.911 194.211 409.914 222.334 410 247.958C410.086 273.582 337.412 292.833 331.813 247.958C326.213 203.083 351.062 158.574 372.308 158.574C393.553 158.574 405.842 159.662 406.382 177.107Z" fill="#5252FF"/>
<path d="M406.076 251.566C379.362 273.663 353.804 274.087 330.092 252.733C329.307 252.025 329.244 250.815 329.953 250.03C330.661 249.245 331.873 249.183 332.659 249.891C354.91 269.93 378.337 269.541 403.631 248.618C404.446 247.944 405.654 248.058 406.329 248.872C407.004 249.685 406.891 250.892 406.076 251.566Z" fill="white"/>
<path d="M336.504 248.559C339.662 234.731 343.037 225.407 346.743 220.477C347.378 219.631 348.579 219.46 349.425 220.095C350.272 220.729 350.443 221.929 349.808 222.774C346.514 227.157 343.287 236.072 340.24 249.41C340.005 250.441 338.977 251.085 337.946 250.85C336.914 250.615 336.268 249.589 336.504 248.559Z" fill="#5252FF"/>
<path d="M330.082 295.86V288.004C330.082 286.947 330.939 286.091 331.998 286.091C333.056 286.091 333.914 286.947 333.914 288.004V295.86C333.914 296.916 333.056 297.773 331.998 297.773C330.939 297.773 330.082 296.916 330.082 295.86Z" fill="#693C32"/>
<path d="M363.128 332.184C365.609 325.794 365.613 315.723 363.044 302.046C359.05 286.964 358.278 277.853 361.121 274.022C361.751 273.173 362.951 272.994 363.801 273.624C364.651 274.253 364.83 275.451 364.2 276.3C362.368 278.77 363.092 287.278 366.797 301.27C369.5 315.62 369.5 326.36 366.701 333.568C366.318 334.554 365.208 335.043 364.221 334.66C363.234 334.278 362.745 333.17 363.128 332.184Z" fill="#693C32"/>
<path d="M291.534 277.703C288.483 273.947 289.483 272.494 288.259 267.844C287.837 266.242 289.762 263.706 289.512 262.012C289.326 260.753 287.39 258.933 287.409 257.656C287.444 255.385 289.075 253.145 289.512 250.819C289.895 248.776 287.062 247.122 288.259 243.804C289.455 240.486 292.785 240.125 293.998 238.374C294.963 236.981 289.97 234.929 293.998 230.906C298.027 226.883 309.997 225.373 315.966 228.191C314.141 239.592 324.316 240.24 330.04 236.816C331.486 235.951 331.027 228.943 333.245 228.943C335.109 228.943 339.97 228.943 342.555 230.906C357.764 242.452 362.64 250.696 360.811 274.284C359.898 286.056 327.042 288.139 315.966 285.831C309.584 284.5 295.946 283.135 291.534 277.703Z" fill="#854242"/>
<path d="M318.677 216.496L334.296 219.811L329.202 244.469L313.583 241.154L318.677 216.496Z" fill="#D48C20"/>
<path d="M333.37 222.403C361.767 222.403 384.787 199.413 384.787 171.053C384.787 142.693 361.767 119.703 333.37 119.703C304.973 119.703 281.953 142.693 281.953 171.053C281.953 199.413 304.973 222.403 333.37 222.403Z" fill="#FFC378"/>
<path d="M333.37 217.3C358.592 217.3 379.038 196.88 379.038 171.691C379.038 146.502 358.592 126.082 333.37 126.082C308.148 126.082 287.702 146.502 287.702 171.691C287.702 196.88 308.148 217.3 333.37 217.3Z" fill="white"/>
<path d="M376.699 157.241C372.936 174.901 361.641 197.822 346.927 215.256C342.644 216.584 338.09 217.299 333.37 217.299C308.148 217.299 287.701 196.88 287.701 171.691C287.701 146.502 308.148 126.082 333.37 126.082C353.535 126.082 370.647 139.134 376.699 157.241Z" fill="#854242"/>
<path d="M333.689 190.508C347.446 190.508 358.599 179.37 358.599 165.631C358.599 151.892 347.446 140.753 333.689 140.753C319.932 140.753 308.779 151.892 308.779 165.631C308.779 179.37 319.932 190.508 333.689 190.508Z" fill="#FFEACB"/>
<path d="M334.328 179.026C341.383 179.026 347.103 173.314 347.103 166.268C347.103 159.222 341.383 153.51 334.328 153.51C327.273 153.51 321.554 159.222 321.554 166.268C321.554 173.314 327.273 179.026 334.328 179.026Z" fill="#FFC378"/>
<path d="M334.328 172.647C337.856 172.647 340.715 169.791 340.715 166.268C340.715 162.745 337.856 159.889 334.328 159.889C330.801 159.889 327.941 162.745 327.941 166.268C327.941 169.791 330.801 172.647 334.328 172.647Z" fill="#D48C20"/>
<path d="M342.951 166.907C346.302 166.907 349.019 164.194 349.019 160.847C349.019 157.5 346.302 154.787 342.951 154.787C339.6 154.787 336.883 157.5 336.883 160.847C336.883 164.194 339.6 166.907 342.951 166.907Z" fill="#FFEACB"/>
<path d="M482.992 458.208C482.992 458.208 466.659 414.179 435.16 414.179C403.66 414.179 418.845 367.966 386.179 367.966C364.914 367.966 364.914 393.688 334.458 377.713C303.056 361.242 335.624 332.83 276.125 327.375C216.626 321.92 230.295 377.713 205.795 377.713C188.15 377.713 187.014 349.604 171.962 347.321C156.911 345.038 154.852 363.686 143.574 361.348C129.833 358.5 135.018 334.847 101.517 334.847C68.015 334.847 79.408 380.537 71.242 385.554C63.075 390.571 52.575 373.816 41.298 393.688C30.02 413.559 49.557 422.91 33.131 422.91C3.11101 422.91 0 458.208 0 458.208C0 458.208 2.211 469.012 41.298 470.298C80.384 471.584 82.144 460.536 130.642 462.506C179.141 464.475 187.361 462.506 257.011 462.506C326.662 462.506 314.297 478.175 367.472 473.415C420.647 468.655 461.395 478.499 491.915 476.533C516.99 474.917 482.992 458.208 482.992 458.208Z" fill="url(#paint0_linear)"/>
</g>
<defs>
<linearGradient id="paint0_linear" x1="251.279" y1="327" x2="251.279" y2="476.796" gradientUnits="userSpaceOnUse">
<stop offset="0.443231" stop-color="#E5E5EB"/>
<stop offset="1" stop-color="white" stop-opacity="0"/>
</linearGradient>
<clipPath id="clip0">
<rect width="502" height="476" fill="white"/>
</clipPath>
</defs>
</svg>
