<svg width="622" height="453" viewBox="0 0 622 453" fill="none" xmlns="http://www.w3.org/2000/svg">
<path d="M218.17 222.51L192.66 214.18L137.91 215.66L78.1499 238.57L90.2099 442.25L225.36 442.15L232.43 345.79L240.11 351.09C249.62 357.66 262.68 351.9 264.34 340.46C269.24 306.66 265.36 281.27 259.45 263.41C253.02 243.99 237.61 228.86 218.17 222.51Z" fill="#FF9C21"/>
<path d="M165.12 441.86L151.36 439.14C126.65 434.25 112.21 408.38 121.02 384.78L154.15 347.09L144.98 321.93L95.2799 337.18C117.25 261.58 84.1899 240.85 84.1899 240.85L78.3999 242.49L90.2299 442.26L202.54 442.18L165.12 441.86Z" fill="#EE8E18"/>
<path d="M137.49 171.16L137.92 215.67C137.92 215.67 151.74 234.89 177.56 233.06C194.82 231.83 192.66 214.19 192.66 214.19V195.08L137.49 171.16Z" fill="#A5837B"/>
<path d="M141.34 181.09C141.34 181.09 151.97 217.3 192.66 215.21V195.08L141.18 172.76L141.34 181.09Z" fill="#99776F"/>
<path d="M139.39 178.42C139.39 178.42 159 207.65 184.59 209.64C208.11 211.47 221.41 181.21 229.79 152.32C238.18 123.43 220.47 95.47 184.59 92.2C148.71 88.93 131.46 119.7 129.6 139.27C127.74 158.84 139.39 178.42 139.39 178.42Z" fill="#A5837B"/>
<path d="M146.68 124.48L143.99 152.21C146.87 152.38 149.47 150.5 150.21 147.71L155.21 128.88C155.21 128.88 162.1 136.61 164.9 139.87V126.59C167.12 133.3 174.56 145.35 215.81 158.4L212.55 147.91C212.55 147.91 241.91 166.22 258.22 150.84L252.63 133.93L266.14 139.69C266.14 139.69 256.41 85.16 223.97 67.87C176.09 42.36 161.29 72.65 161.29 72.65C161.29 72.65 140.43 61 129.42 82.9L136.12 82.43C136.12 82.43 119.81 93.61 119.34 124.84C118.87 156.07 131.36 171.99 137.69 193.49L137.51 174.38C137.71 166.11 135.6 157.43 132.02 149.96C126.77 138.97 132.87 113.88 146.68 124.48Z" fill="#161625"/>
<path d="M233.73 360.82H160.78C158.76 360.82 157.19 359.09 157.41 357.11L167.97 261.57C168.16 259.87 169.61 258.58 171.34 258.58H244.29C246.31 258.58 247.88 260.31 247.66 262.29L237.1 357.83C236.91 359.54 235.46 360.82 233.73 360.82Z" fill="white"/>
<path d="M234.22 360.82H163.87C161.92 360.82 160.41 359.13 160.62 357.2L170.8 263.98C170.98 262.32 172.38 261.07 174.05 261.07H244.4C246.35 261.07 247.86 262.76 247.65 264.69L237.47 357.91C237.29 359.57 235.89 360.82 234.22 360.82Z" fill="#25253A"/>
<path d="M140.46 331.17L151.41 321.49C151.41 321.49 151.71 308.76 154.78 305.49C157.85 302.22 163.45 302.42 163.45 302.42L162.17 313.62C162.17 313.62 173.06 304.99 179.98 306.47C186.9 307.95 186.25 338.06 184.82 340.38C183.39 342.7 167.12 342.55 161.29 343.74C155.46 344.92 148.94 346.07 148.94 346.07L140.46 331.17Z" fill="#A5837B"/>
<path d="M78.1499 238.58C62.6599 242.41 26.1099 259.88 39.1499 381.34C47.7699 461.64 154.14 347.09 154.14 347.09L143.31 322.97L88.6199 347.44C100.67 303.75 102.33 241.54 78.1499 238.58Z" fill="#FF9C21"/>
<path d="M243.16 305.86C243.16 305.86 229.33 302.8 224.67 307.59C220.01 312.38 222.87 334.86 227.7 334.51C229.84 334.36 240.28 334.98 244.71 334.51C249.14 334.04 249.25 305.97 247.68 302.41C246.11 298.86 243.93 298.85 243.93 298.85L243.16 305.86Z" fill="#A5837B"/>
<path d="M345.2 158.95C345.2 158.95 315.46 141.34 322 94.82L325.52 98.34C325.52 98.34 328.79 67.7 347.37 52.12C347.37 52.12 352.39 61.66 357.92 65.43L359.68 58.65C359.68 58.65 383.79 59.4 403.64 71.71L401.63 61.66C401.63 61.66 416.45 67.69 422.73 82.01L430.27 71.96C430.27 71.96 440.57 83.51 444.84 102.86C449.11 122.21 444.84 142.55 444.84 142.55L451.12 136.02C451.12 136.02 448.86 170.93 440.17 176.39C438.3 169.29 435.01 156.74 428.26 153.35L345.2 158.95Z" fill="#161625"/>
<path d="M523.77 442.16L513.97 215.3L444.96 202.9L399.89 217.6L386.51 227.9C371.36 239.57 359.7 255.17 352.82 273.01L339.13 308.46C336.67 314.82 332.63 320.45 327.39 324.81L287.15 358.27L314.41 380.12L366.14 346.05L386.1 327.68L399 442.15H523.77V442.16Z" fill="#4E4E68"/>
<path d="M516.25 268.24C419.61 275.37 500.35 418.74 396.28 418.12L398.99 442.16H523.77L516.25 268.24Z" fill="#25253A"/>
<path d="M305.63 373.09L314.41 380.13L366.14 346.06L386.1 327.69L383.62 298.85C383.61 298.85 381.85 338.37 305.63 373.09Z" fill="#25253A"/>
<path d="M397.11 195.79L400.58 218.11C400.58 218.11 399.87 229.7 409.92 230.2C419.97 230.7 434.03 223.82 446.09 208.25L434.77 147.36L414 154.3L397.11 195.79Z" fill="#8B5851"/>
<path d="M427.48 162.83L418.14 152.92L414 154.3L397.11 195.79L399.88 213.57C430.81 204.49 427.48 162.83 427.48 162.83Z" fill="#734640"/>
<path d="M339.58 146.81C339.58 146.81 367.71 215.63 397.85 207.6C427.99 199.56 428.24 153.34 428.24 153.34C428.24 153.34 432.01 155.85 434.27 149.32C436.53 142.79 435.27 118.17 427.99 121.69C420.71 125.21 417.19 132.99 418.45 143.54C418.45 143.54 409.16 121.44 393.08 123.7C377.01 125.96 378.02 161.13 339.58 146.81Z" fill="#8B5851"/>
<path d="M408.43 360.82C408.43 360.82 406.68 352.33 408.43 348.83C410.18 345.33 413.67 338.09 410.18 337.17C406.68 336.25 399.87 343.44 397.77 347.61C397.77 347.61 367.54 347.09 362.99 358.27C358.45 369.45 380.78 353.03 393.55 365.96L408.43 360.82Z" fill="#FFE8A2"/>
<path d="M495.11 327.69C476.89 348.16 461.28 384.83 451.89 407.9L411.03 357.66C410.71 357.27 410.18 357.14 409.72 357.34L390.73 365.47C390.11 365.74 389.86 366.48 390.19 367.07C406.29 395.1 426.23 420.18 442.05 437.04C447.86 443.23 457.57 443.51 463.78 437.73C480.21 422.43 492.74 407.61 500.35 392.54L495.11 327.69Z" fill="#969CB3"/>
<path d="M402.55 386.99C415.78 406.84 430.09 424.28 442.04 437.03C447.85 443.22 457.57 443.5 463.78 437.71C480.21 422.41 492.73 407.59 500.35 392.53L498.49 369.54L489.4 380.16C489.4 380.16 473.99 402.69 461.98 426.23C459.51 431.07 453.38 432.7 448.82 429.74C438.6 423.08 420.85 409.64 402.55 386.99Z" fill="#80869D"/>
<path d="M492.86 337.18C492.86 337.18 482.64 374.06 497.32 441.86L575.15 442.16L585.62 318.16H504.55L492.86 337.18Z" fill="#969CB3"/>
<path d="M561.76 342.86C561.76 342.86 554.91 358.32 551.75 393.72C550.91 403.14 544.1 410.95 534.88 413.02L493.61 422.26C494.62 428.48 495.84 435 497.32 441.86L575.15 442.16L583.53 342.87H561.76V342.86Z" fill="#80869D"/>
<path d="M503.5 180.37C503.5 180.37 526.45 157.33 554.41 167.12C582.19 176.84 578.29 210.54 581.44 223.83C584.59 237.12 595.42 235.6 603.81 254.82C612.2 274.04 590.53 291.87 592.28 301.31C594.03 310.75 608.82 307.95 611.97 322.63C615.12 337.31 605.87 341.94 605.87 341.94C605.87 341.94 598.59 315.04 581.91 318.44C564.9 324.73 557.68 337.19 550.69 349.66C550.69 349.66 546.11 333.33 557.33 322.63L521.33 325.54C511.68 330.51 503.15 338.53 496.86 352.69C490.92 340.81 492.49 338.71 493.89 333.12C495.29 327.53 474.49 332.1 470.3 315.31C466.11 298.52 486.38 293.27 483.58 266.71C480.78 240.15 461.85 239.28 461.21 208.84C460.78 188.44 481.13 173.73 503.5 180.37Z" fill="#161625"/>
<path d="M478.33 248.18C479.59 274.05 491.96 309.69 519.92 302.7L521.32 325.53C521.32 325.53 516.08 335.55 521.32 336.95C526.56 338.35 546.49 333.11 557.32 322.62C557.32 322.62 549.94 311.8 549.98 306.89C550.1 293.96 567.81 294.18 561.86 276.24C555.92 258.3 534.6 265.64 534.6 240.48C534.6 240.48 524.3 240.38 519.22 229.94C514.14 219.5 510.48 213.57 503.84 213.57C497.2 213.57 495.45 217.76 495.45 217.76C495.45 217.76 476.24 205.19 478.33 248.18Z" fill="#FFE8A2"/>
<path d="M466.45 426.66C452.35 425.03 432.2 436.2 430.45 441.86H491.85L489.4 428.06C489.4 428.06 480.55 428.29 466.45 426.66Z" fill="#FFE8A2"/>
<path d="M585.62 318.16C585.62 318.16 550.22 312.37 557.21 413.5L482.58 423.79C481.75 423.9 481.13 424.61 481.13 425.45V442.16H573.6C580.9 442.16 587.37 437.46 589.61 430.52C595.5 412.19 605.85 375.27 605.87 341.94C605.88 320.18 585.62 318.16 585.62 318.16Z" fill="#969CB3"/>
<path d="M589.6 430.51C595.49 412.18 605.84 375.26 605.86 341.93C605.87 330.27 600.05 324.28 594.65 321.23C603.8 345.33 591.81 421.32 581.78 431.66C570.6 443.19 497.31 441.85 497.31 441.85C497.31 441.85 497.47 441.96 497.76 442.15H573.59C580.89 442.16 587.37 437.46 589.6 430.51Z" fill="#80869D"/>
<path d="M519.92 302.7C519.92 302.7 544.74 296.76 546.53 272.77C546.53 272.77 554.35 298.33 520.27 308.4L519.92 302.7Z" fill="#F9E199"/>
<path d="M616.24 452.31H24.18C21.29 452.31 18.95 449.97 18.95 447.08C18.95 444.19 21.29 441.85 24.18 441.85H616.24C619.13 441.85 621.47 444.19 621.47 447.08C621.47 449.97 619.13 452.31 616.24 452.31Z" fill="#E9EBEF"/>
<path d="M460.26 441.86H223.11V434.97H467.14C467.14 438.77 464.06 441.86 460.26 441.86Z" fill="#1A1A2C"/>
<path d="M393.56 441.86H207.09L188.38 342.06C188 340.05 189.54 338.18 191.59 338.18H368.72C371.85 338.18 374.53 340.41 375.11 343.49L393.56 441.86Z" fill="#1A1A2C"/>
<path d="M389.56 441.86H206.73L188.39 344.21C188.02 342.24 189.53 340.42 191.54 340.42H365.22C368.29 340.42 370.92 342.6 371.48 345.62L389.56 441.86Z" fill="#235AFF"/>
<path d="M206.73 441.86H389.56L371.48 345.61C370.91 342.6 368.28 340.41 365.22 340.41H344.14C345.68 381.41 329.02 445.74 204.95 432.35L206.73 441.86Z" fill="#4A4AF3"/>
<path d="M11.6999 70.92H102.77C108.9 70.92 113.86 65.95 113.86 59.83V11.83C113.86 5.69999 108.89 0.73999 102.77 0.73999H11.6999C5.56986 0.73999 0.609863 5.70999 0.609863 11.83V59.83C0.609863 65.95 5.56986 70.92 11.6999 70.92Z" fill="#BFCFFF"/>
<path d="M92.89 64.8L109.06 90.65C109.52 91.39 108.71 92.27 107.93 91.87L67.76 70.92L92.89 64.8Z" fill="#BFCFFF"/>
<path d="M591.29 138.1H490.15C484.02 138.1 479.06 133.13 479.06 127.01V72.77C479.06 66.64 484.03 61.68 490.15 61.68H591.29C597.42 61.68 602.38 66.65 602.38 72.77V127C602.38 133.13 597.42 138.1 591.29 138.1Z" fill="#54BF8C"/>
<path d="M501.9 131.44L484.29 159.58C483.78 160.39 484.67 161.35 485.52 160.91L529.26 138.1L501.9 131.44Z" fill="#54BF8C"/>
<path d="M305.63 233.6C323.259 233.6 337.55 219.309 337.55 201.68C337.55 184.051 323.259 169.76 305.63 169.76C288.001 169.76 273.71 184.051 273.71 201.68C273.71 219.309 288.001 233.6 305.63 233.6Z" fill="#FF9C21"/>
<path d="M321.99 221.33H289.28V240.13H321.99V221.33Z" fill="#FF9C21"/>
<path d="M307.61 240.13V211.67H303.66V240.13H302.01V211.67H298.39C296.22 211.67 294.46 209.66 294.46 207.19C294.46 204.72 296.22 202.71 298.39 202.71H299.72C301.89 202.71 303.65 204.72 303.65 207.19V210.02H307.6V207.19C307.6 204.72 309.36 202.71 311.53 202.71H312.86C315.03 202.71 316.79 204.72 316.79 207.19C316.79 209.66 315.03 211.67 312.86 211.67H309.24V240.13H307.61ZM311.54 204.36C310.28 204.36 309.25 205.63 309.25 207.19V210.02H312.87C314.13 210.02 315.16 208.75 315.16 207.19C315.16 205.63 314.13 204.36 312.87 204.36H311.54ZM298.39 204.36C297.13 204.36 296.1 205.63 296.1 207.19C296.1 208.75 297.13 210.02 298.39 210.02H302.01V207.19C302.01 205.63 300.98 204.36 299.72 204.36H298.39Z" fill="white"/>
<path d="M320.72 247.52H290.55C289.27 247.52 288.23 246.48 288.23 245.2V243.89C288.23 242.61 289.27 241.57 290.55 241.57H320.72C322 241.57 323.04 242.61 323.04 243.89V245.2C323.03 246.49 322 247.52 320.72 247.52Z" fill="#FFE69C"/>
<path d="M319.67 255.01H291.6C290.32 255.01 289.28 253.97 289.28 252.69V251.38C289.28 250.1 290.32 249.06 291.6 249.06H319.67C320.95 249.06 321.99 250.1 321.99 251.38V252.69C321.99 253.97 320.95 255.01 319.67 255.01Z" fill="#FFE69C"/>
<path d="M311.6 264.09H299.66C296.23 264.09 293.45 261.31 293.45 257.88V256.54H317.8V257.88C317.81 261.31 315.03 264.09 311.6 264.09Z" fill="#FFE69C"/>
</svg>
