<svg width="570" height="448" viewBox="0 0 570 448" fill="none" xmlns="http://www.w3.org/2000/svg">
<path d="M245.41 260.72C226.34 270.84 211.94 287.96 205.25 308.48L201.08 321.27L231.13 321.26L245.41 260.72Z" fill="#5252FF"/>
<path d="M230.98 289.56L253.32 432.4H431.29L406.41 240.83L323.17 224.09L275.27 244.88L245.41 260.72C234.94 266.27 229.15 277.85 230.98 289.56Z" fill="#5252FF"/>
<path d="M298.94 177.49L323.17 224.09C323.17 224.09 315.66 265.1 287.29 267.43C273.82 268.54 277.97 250.65 277.97 250.65L271.45 236.67L298.94 177.49Z" fill="#C0978E"/>
<path d="M284.02 209.6L271.44 236.67L276.17 246.81C310.6 233.12 300.34 199.75 300.34 199.75L284.02 209.6Z" fill="#99776F"/>
<path d="M196.88 170.5C196.88 170.5 216.92 252.05 262.59 245.06C308.26 238.07 299.87 185.88 299.87 185.88C299.87 185.88 315.25 185.41 309.19 159.78C303.13 134.15 240.55 108.08 209.93 132.28C191.06 147.2 196.88 170.5 196.88 170.5Z" fill="#C0978E"/>
<path d="M291.36 173.18C291.36 173.18 286.19 155.61 295.2 152.79C304.21 149.97 313.37 179.35 299.86 185.88C303.7 192.87 307.55 194.27 312.47 203.54C312.47 203.54 334.81 190.54 322.81 111.49C320.09 116.86 317.19 121.3 313.55 121.8C313.55 121.8 309.01 99.67 294.33 99.43C283.5 99.26 279.13 107.82 279.13 107.82C279.13 107.82 268.99 98.91 268.99 92.97C268.99 92.97 265.84 99.96 268.99 106.25C268.99 106.25 242.08 93.32 240.33 80.39C240.33 80.39 238.23 88.08 240.33 97.87C240.33 97.87 207.48 83.71 189.65 95.95C171.82 108.18 180.21 128.11 180.21 128.11C180.21 128.11 173.92 127.4 169.38 122.68C169.38 122.68 161.34 159.56 187.55 163.41L180.21 167.95C180.21 167.95 191.48 181.67 213.5 171.88C235.52 162.09 241.02 156.06 241.02 156.06C241.02 156.06 235.08 163.05 235.08 169.69C235.08 169.69 254.65 156.41 269.68 156.06C269.69 156.05 284.72 173.88 291.36 173.18Z" fill="#25253A"/>
<path opacity="0.4" d="M276.17 172.32C276.21 173.74 276.68 193.24 282.24 190.76C289.54 187.52 276.17 172.32 276.17 172.32Z" fill="white"/>
<path d="M248.25 407.24L253.32 432.4H431.29L407.97 266.77L372.16 262.66C372.16 262.66 357.09 282.42 364.41 321.28C369.88 350.29 354.83 377.66 326.3 385.23C296.88 393.02 264.05 402 248.25 407.24Z" fill="#4B4BF2"/>
<path d="M404.26 240.4C431.29 243.43 445.29 312.05 463.95 371.63C473.39 401.76 450.88 432.4 419.31 432.4H247.29L259 409.57L400.76 375.55C400.76 375.55 319.67 265.1 404.26 240.4Z" fill="#5252FF"/>
<path d="M463.97 371.72C449.74 326.3 438.22 275.62 421.58 252.72C433.8 289.49 446 332.29 451.79 365.21C456.41 391.48 437.83 416.16 411.3 418.88L279.48 432.4H419.3C450.84 432.4 473.4 401.81 463.97 371.72Z" fill="#496DEB"/>
<path d="M561.68 447.2H7.78989C3.69989 447.2 0.389893 443.89 0.389893 439.8C0.389893 435.71 3.69989 432.4 7.78989 432.4H561.68C565.77 432.4 569.08 435.71 569.08 439.8C569.08 443.89 565.77 447.2 561.68 447.2Z" fill="#E9EBEF"/>
<path d="M372.45 432.4H107.75V420.75H384.1C384.1 427.19 378.89 432.4 372.45 432.4Z" fill="#161625"/>
<path d="M282.66 432.4H64.4998L34.8098 298.1C34.4498 296.47 35.6898 294.93 37.3598 294.93H250.17C251.39 294.93 252.45 295.78 252.72 296.98L282.66 432.4Z" fill="#161625"/>
<path d="M279.48 432.4H64.1198L34.8098 299.92C34.4498 298.31 35.6798 296.79 37.3198 296.79H247.41C248.62 296.79 249.66 297.63 249.92 298.81L279.48 432.4Z" fill="#25253A"/>
<path d="M62.7295 426.1L64.1195 432.4H279.48L249.93 298.81C249.83 298.36 249.62 297.97 249.33 297.64C243.54 332.56 215.36 416.32 62.7295 426.1Z" fill="#34344E"/>
<path d="M502.26 351.66C528.355 351.66 549.51 330.505 549.51 304.41C549.51 278.315 528.355 257.16 502.26 257.16C476.165 257.16 455.01 278.315 455.01 304.41C455.01 330.505 476.165 351.66 502.26 351.66Z" fill="#5252FF"/>
<path d="M499.94 351.66C526.035 351.66 547.19 330.505 547.19 304.41C547.19 278.315 526.035 257.16 499.94 257.16C473.844 257.16 452.69 278.315 452.69 304.41C452.69 330.505 473.844 351.66 499.94 351.66Z" fill="#A5BBFF"/>
<path d="M499.94 342.7C521.087 342.7 538.23 325.557 538.23 304.41C538.23 283.263 521.087 266.12 499.94 266.12C478.793 266.12 461.65 283.263 461.65 304.41C461.65 325.557 478.793 342.7 499.94 342.7Z" fill="white"/>
<path d="M462.97 305.31C462.97 284.16 480.11 267.02 501.26 267.02C508.96 267.02 516.13 269.3 522.14 273.22C515.88 268.75 508.22 266.11 499.94 266.11C478.79 266.11 461.65 283.25 461.65 304.4C461.65 317.84 468.58 329.66 479.06 336.49C469.33 329.55 462.97 318.18 462.97 305.31Z" fill="#5252FF"/>
<path d="M500.03 274.95H499.85C499.53 274.95 499.27 274.69 499.27 274.37V268.53C499.27 268.21 499.53 267.95 499.85 267.95H500.03C500.35 267.95 500.61 268.21 500.61 268.53V274.37C500.61 274.69 500.35 274.95 500.03 274.95Z" fill="#5252FF"/>
<path d="M500.03 340.87H499.85C499.53 340.87 499.27 340.61 499.27 340.29V334.45C499.27 334.13 499.53 333.87 499.85 333.87H500.03C500.35 333.87 500.61 334.13 500.61 334.45V340.29C500.61 340.61 500.35 340.87 500.03 340.87Z" fill="#5252FF"/>
<path d="M477.44 322.16C478.94 320.23 480.55 318.43 482.15 316.64C483.96 315.11 499.8 304.64 499.8 304.64C499.8 304.64 498.38 283.87 498.29 281.22C498.7 278.57 499.26 275.92 499.91 273.27C500.59 275.91 501.16 278.56 501.6 281.2C501.54 283.85 500.76 305.11 500.76 305.11C500.76 305.11 485.99 317.79 484.03 319.12C481.87 320.18 479.71 321.23 477.44 322.16Z" fill="#5252FF"/>
<path d="M500.16 306.78C501.314 306.78 502.25 305.844 502.25 304.69C502.25 303.536 501.314 302.6 500.16 302.6C499.006 302.6 498.07 303.536 498.07 304.69C498.07 305.844 499.006 306.78 500.16 306.78Z" fill="#5252FF"/>
<path d="M500.16 305.79C500.768 305.79 501.26 305.298 501.26 304.69C501.26 304.083 500.768 303.59 500.16 303.59C499.553 303.59 499.06 304.083 499.06 304.69C499.06 305.298 499.553 305.79 500.16 305.79Z" fill="white"/>
<path d="M470.48 304.32V304.5C470.48 304.82 470.22 305.08 469.9 305.08H464.06C463.74 305.08 463.48 304.82 463.48 304.5V304.32C463.48 304 463.74 303.74 464.06 303.74H469.9C470.22 303.74 470.48 304 470.48 304.32Z" fill="#5252FF"/>
<path d="M536.4 304.32V304.5C536.4 304.82 536.14 305.08 535.82 305.08H529.98C529.66 305.08 529.4 304.82 529.4 304.5V304.32C529.4 304 529.66 303.74 529.98 303.74H535.82C536.13 303.74 536.4 304 536.4 304.32Z" fill="#5252FF"/>
<path d="M476.57 327.65L476.7 327.78C476.93 328.01 476.93 328.38 476.7 328.6L475.05 330.25C474.82 330.48 474.45 330.48 474.23 330.25L474.1 330.12C473.87 329.89 473.87 329.52 474.1 329.3L475.75 327.65C475.97 327.42 476.34 327.42 476.57 327.65Z" fill="#5252FF"/>
<path d="M525.65 278.56L525.78 278.69C526.01 278.92 526.01 279.29 525.78 279.51L524.13 281.16C523.9 281.39 523.53 281.39 523.31 281.16L523.18 281.03C522.95 280.8 522.95 280.43 523.18 280.21L524.83 278.56C525.06 278.34 525.43 278.34 525.65 278.56Z" fill="#5252FF"/>
<path d="M476.7 281.04L476.57 281.17C476.34 281.4 475.97 281.4 475.75 281.17L474.1 279.52C473.87 279.29 473.87 278.92 474.1 278.7L474.23 278.57C474.46 278.34 474.83 278.34 475.05 278.57L476.7 280.22C476.92 280.45 476.92 280.81 476.7 281.04Z" fill="#5252FF"/>
<path d="M525.78 330.13L525.65 330.26C525.42 330.49 525.05 330.49 524.83 330.26L523.18 328.61C522.95 328.38 522.95 328.01 523.18 327.79L523.31 327.66C523.54 327.43 523.91 327.43 524.13 327.66L525.78 329.31C526.01 329.53 526.01 329.9 525.78 330.13Z" fill="#5252FF"/>
<path d="M157.17 275.02H23.8499C20.1299 275.02 17.1099 272 17.1099 268.28V166.42C17.1099 162.7 20.1299 159.68 23.8499 159.68H157.17C160.89 159.68 163.91 162.7 163.91 166.42V268.29C163.91 272 160.89 275.02 157.17 275.02Z" fill="#E9EBEF"/>
<path d="M157.58 267.8H23.44C22.91 267.8 22.48 267.37 22.48 266.84V185.46C22.48 184.93 22.91 184.5 23.44 184.5H157.57C158.1 184.5 158.53 184.93 158.53 185.46V266.84C158.53 267.37 158.1 267.8 157.58 267.8Z" fill="white"/>
<path d="M157.17 159.68H23.8499C20.1299 159.68 17.1099 162.7 17.1099 166.42V180.48H163.91V166.42C163.91 162.7 160.89 159.68 157.17 159.68Z" fill="#80869D"/>
<path d="M46.16 213.26H21.48V183.5H46.16V213.26ZM23.48 211.26H44.16V185.5H23.48V211.26Z" fill="#E9EBEF"/>
<path d="M68.8299 213.26H44.1499V183.5H68.8299V213.26ZM46.1599 211.26H66.8399V185.5H46.1599V211.26Z" fill="#E9EBEF"/>
<path d="M91.5096 213.26H66.8296V183.5H91.5096V213.26ZM68.8296 211.26H89.5096V185.5H68.8296V211.26Z" fill="#E9EBEF"/>
<path d="M114.18 213.26H89.5V183.5H114.18V213.26ZM91.51 211.26H112.19V185.5H91.51V211.26Z" fill="#E9EBEF"/>
<path d="M136.86 213.26H112.18V183.5H136.86V213.26ZM114.18 211.26H134.86V185.5H114.18V211.26Z" fill="#E9EBEF"/>
<path d="M159.53 213.26H134.85V183.5H159.53V213.26ZM136.86 211.26H157.54V185.5H136.86V211.26Z" fill="#E9EBEF"/>
<path d="M46.16 241.03H21.48V211.26H46.16V241.03ZM23.48 239.03H44.16V213.26H23.48V239.03Z" fill="#E9EBEF"/>
<path d="M68.8299 241.03H44.1499V211.26H68.8299V241.03ZM46.1599 239.03H66.8399V213.26H46.1599V239.03Z" fill="#E9EBEF"/>
<path d="M91.5096 241.03H66.8296V211.26H91.5096V241.03ZM68.8296 239.03H89.5096V213.26H68.8296V239.03Z" fill="#E9EBEF"/>
<path d="M114.18 241.03H89.5V211.26H114.18V241.03ZM91.51 239.03H112.19V213.26H91.51V239.03Z" fill="#E9EBEF"/>
<path d="M136.86 241.03H112.18V211.26H136.86V241.03ZM114.18 239.03H134.86V213.26H114.18V239.03Z" fill="#E9EBEF"/>
<path d="M159.53 241.03H134.85V211.26H159.53V241.03ZM136.86 239.03H157.54V213.26H136.86V239.03Z" fill="#E9EBEF"/>
<path d="M46.16 268.8H21.48V239.03H46.16V268.8ZM23.48 266.8H44.16V241.03H23.48V266.8Z" fill="#E9EBEF"/>
<path d="M68.8299 268.8H44.1499V239.03H68.8299V268.8ZM46.1599 266.8H66.8399V241.03H46.1599V266.8Z" fill="#E9EBEF"/>
<path d="M91.5096 268.8H66.8296V239.03H91.5096V268.8ZM68.8296 266.8H89.5096V241.03H68.8296V266.8Z" fill="#E9EBEF"/>
<path d="M114.18 268.8H89.5V239.03H114.18V268.8ZM91.51 266.8H112.19V241.03H91.51V266.8Z" fill="#E9EBEF"/>
<path d="M136.86 268.8H112.18V239.03H136.86V268.8ZM114.18 266.8H134.86V241.03H114.18V266.8Z" fill="#E9EBEF"/>
<path d="M159.53 268.8H134.85V239.03H159.53V268.8ZM136.86 266.8H157.54V241.03H136.86V266.8Z" fill="#E9EBEF"/>
<path d="M36.2998 169.4C34.9298 169.4 33.8198 168.29 33.8198 166.92V152.44C33.8198 151.07 34.9298 149.96 36.2998 149.96C37.6698 149.96 38.7798 151.07 38.7798 152.44V166.92C38.7798 168.29 37.6698 169.4 36.2998 169.4Z" fill="#E9EBEF"/>
<path d="M56.4898 169.4C55.1198 169.4 54.0098 168.29 54.0098 166.92V152.44C54.0098 151.07 55.1198 149.96 56.4898 149.96C57.8598 149.96 58.9698 151.07 58.9698 152.44V166.92C58.9698 168.29 57.8598 169.4 56.4898 169.4Z" fill="#E9EBEF"/>
<path d="M126.59 169.4C125.22 169.4 124.11 168.29 124.11 166.92V152.44C124.11 151.07 125.22 149.96 126.59 149.96C127.96 149.96 129.07 151.07 129.07 152.44V166.92C129.07 168.29 127.96 169.4 126.59 169.4Z" fill="#E9EBEF"/>
<path d="M146.78 169.4C145.41 169.4 144.3 168.29 144.3 166.92V152.44C144.3 151.07 145.41 149.96 146.78 149.96C148.15 149.96 149.26 151.07 149.26 152.44V166.92C149.26 168.29 148.15 169.4 146.78 169.4Z" fill="#E9EBEF"/>
<path d="M105.59 210.38C104.49 210.42 103.44 210.75 102.43 211.16C101.42 211.56 100.46 212.1 99.5199 212.65C97.6599 213.79 95.8999 215.1 94.3199 216.57C91.1499 219.46 88.4899 223.02 87.6599 226.79C87.2499 228.67 87.3599 230.61 88.1399 232.49C88.9199 234.34 90.3199 236.11 91.9699 237.54C93.6099 238.98 95.6699 239.92 97.7999 240.22C99.9399 240.48 102.13 240.07 104.02 239.11C105.94 238.19 107.58 236.8 109.03 235.29C110.46 233.75 111.71 232.05 112.64 230.2C114.51 226.56 115.17 222.2 113.5 219.21C113.29 218.83 113.06 218.5 112.77 218.14C112.47 217.77 112.14 217.44 111.8 217.12C111.12 216.5 110.37 216 109.54 215.67C107.89 215 105.91 214.97 103.91 215.47C101.9 215.94 99.8999 216.85 97.9799 217.92C96.0599 219.01 94.1899 220.28 92.3899 221.67L92.0999 221.4C93.4599 219.51 95.0699 217.84 96.8599 216.32C98.6599 214.81 100.68 213.48 103 212.58C104.17 212.15 105.42 211.82 106.74 211.71C108.06 211.59 109.44 211.73 110.76 212.13C112.08 212.53 113.32 213.2 114.38 214.04C114.9 214.46 115.4 214.91 115.85 215.4C116.31 215.89 116.78 216.46 117.13 217.07C118.65 219.51 118.97 222.43 118.6 224.99C118.21 227.58 117.26 229.95 115.98 232.07C114.71 234.19 113.1 236.1 111.21 237.65C109.31 239.2 107.11 240.38 104.77 241.07C102.43 241.75 99.9599 241.93 97.6099 241.49C95.2499 241.07 93.0699 240.02 91.0999 238.73C89.1699 237.39 87.2799 235.87 85.8899 233.72C84.4999 231.61 83.8399 228.83 84.2299 226.23C84.5899 223.62 85.7899 221.29 87.2399 219.32C88.7099 217.34 90.4899 215.68 92.3899 214.24C94.3199 212.83 96.3999 211.65 98.6199 210.81C99.7299 210.38 100.89 210.07 102.06 209.87C103.24 209.7 104.48 209.64 105.64 210L105.59 210.38Z" fill="#80869D"/>
<path d="M89.4702 221.73C90.6402 222.21 91.7802 222.74 92.8802 223.32C93.9902 223.88 95.0702 224.49 96.1402 225.11C98.2702 226.36 100.33 227.7 102.34 229.11L99.9502 229.16C102.82 226.6 105.78 224.16 108.92 221.92C110.48 220.8 112.08 219.72 113.74 218.7C115.4 217.69 117.08 216.71 118.9 215.89C117.76 217.52 116.49 219 115.2 220.45C113.9 221.89 112.55 223.27 111.16 224.6C108.39 227.27 105.45 229.75 102.42 232.1L101.15 233.08L100.03 232.15C98.1402 230.59 96.3002 228.96 94.5202 227.24C93.6402 226.38 92.7602 225.5 91.9302 224.58C91.0602 223.69 90.2402 222.74 89.4702 221.73Z" fill="#80869D"/>
<path d="M30.2972 68.2174C30.2972 68.2174 24.3372 74.7974 37.9672 83.8874L55.9672 65.5374C46.8972 65.4674 37.7372 65.1974 30.2972 68.2174Z" fill="#969CB3"/>
<path d="M30.2971 68.2174L62.5571 38.8074C70.4571 31.6074 81.6471 29.0974 91.7871 32.4974C95.8671 33.8674 100.097 35.9274 103.927 38.9874C117.297 49.6674 119.437 67.8174 134.387 74.7574C149.337 81.6974 164.147 74.1574 164.147 74.1574L131.017 123.847C131.017 123.847 104.507 133.167 81.1971 106.827C70.6071 94.8774 53.1171 61.5274 30.2971 68.2174Z" fill="#D8DAE1"/>
<path d="M43.4474 65.0074C43.1874 65.0074 42.9174 64.9074 42.7274 64.6974C42.3474 64.2974 42.3574 63.6674 42.7574 63.2874L72.5074 34.9074C72.9074 34.5274 73.5374 34.5374 73.9174 34.9374C74.2974 35.3374 74.2874 35.9674 73.8874 36.3474L44.1374 64.7274C43.9474 64.9074 43.6974 65.0074 43.4474 65.0074Z" fill="#969CB3"/>
<path d="M54.4572 66.4974C54.1972 66.4974 53.9272 66.3974 53.7372 66.1874C53.3572 65.7874 53.3672 65.1574 53.7672 64.7774L84.7272 35.2274C85.1272 34.8474 85.7572 34.8574 86.1372 35.2574C86.5172 35.6574 86.5072 36.2874 86.1072 36.6674L55.1472 66.2174C54.9472 66.4074 54.6972 66.4974 54.4572 66.4974Z" fill="#969CB3"/>
<path d="M63.4772 72.3874C63.2172 72.3874 62.9472 72.2874 62.7572 72.0774C62.3772 71.6774 62.3872 71.0474 62.7872 70.6674L95.4572 39.4974C95.8572 39.1174 96.4872 39.1274 96.8672 39.5274C97.2472 39.9274 97.2372 40.5574 96.8372 40.9374L64.1672 72.1074C63.9772 72.2974 63.7272 72.3874 63.4772 72.3874Z" fill="#969CB3"/>
<path d="M70.4972 79.6974C70.2372 79.6974 69.9672 79.5974 69.7772 79.3874C69.3972 78.9874 69.4072 78.3574 69.8072 77.9774L103.197 46.1174C103.597 45.7374 104.227 45.7474 104.607 46.1474C104.987 46.5474 104.977 47.1774 104.577 47.5574L71.1872 79.4174C70.9972 79.5974 70.7472 79.6974 70.4972 79.6974Z" fill="#969CB3"/>
<path d="M76.8175 87.2474C76.5575 87.2474 76.2875 87.1474 76.0975 86.9374C75.7175 86.5374 75.7275 85.9074 76.1275 85.5274L108.407 54.7274C108.807 54.3474 109.437 54.3574 109.817 54.7574C110.197 55.1574 110.187 55.7874 109.787 56.1674L77.5075 86.9674C77.3175 87.1574 77.0675 87.2474 76.8175 87.2474Z" fill="#969CB3"/>
<path d="M82.2472 94.3474C81.9872 94.3474 81.7172 94.2474 81.5272 94.0374C81.1472 93.6374 81.1572 93.0074 81.5572 92.6274L113.617 62.0374C114.017 61.6574 114.647 61.6674 115.027 62.0674C115.407 62.4674 115.397 63.0974 114.997 63.4774L82.9372 94.0674C82.7472 94.2574 82.4972 94.3474 82.2472 94.3474Z" fill="#969CB3"/>
<path d="M87.9874 101.337C87.7274 101.337 87.4574 101.237 87.2674 101.027C86.8874 100.627 86.8974 99.9974 87.2974 99.6174L109.637 78.3074C110.037 77.9274 110.667 77.9374 111.047 78.3374C111.427 78.7374 111.417 79.3674 111.017 79.7474L88.6774 101.057C88.4774 101.247 88.2274 101.337 87.9874 101.337Z" fill="#969CB3"/>
<path d="M377.11 0.950012L441.92 17.13C441.92 17.13 420.11 26.33 418.11 58.82C416.11 91.31 410.51 109.95 399.25 116.68L336.8 100.78C336.8 100.78 350.52 78.04 350.27 49.44C350.04 23.71 362.41 11.46 377.11 0.950012Z" fill="#FF9C21"/>
<path d="M427.47 20.08C427.39 20.08 427.32 20.07 427.24 20.05L376.1 7.95C375.56 7.82 375.23 7.27999 375.36 6.74999C375.49 6.20999 376.03 5.87999 376.56 6.00999L427.7 18.11C428.24 18.24 428.57 18.78 428.44 19.31C428.34 19.77 427.92 20.08 427.47 20.08Z" fill="#FFE8AE"/>
<path d="M418.64 28.67C418.56 28.67 418.49 28.66 418.41 28.64L367.27 16.54C366.73 16.41 366.4 15.87 366.53 15.34C366.66 14.8 367.2 14.47 367.73 14.6L418.87 26.7C419.41 26.83 419.74 27.37 419.61 27.9C419.5 28.36 419.09 28.67 418.64 28.67Z" fill="#FFE8AE"/>
<path d="M412.18 37.64C412.1 37.64 412.03 37.63 411.95 37.61L360.81 25.51C360.27 25.38 359.94 24.84 360.07 24.31C360.2 23.77 360.73 23.44 361.27 23.57L412.41 35.67C412.95 35.8 413.28 36.34 413.15 36.87C413.04 37.33 412.63 37.64 412.18 37.64Z" fill="#FFE8AE"/>
<path d="M410.02 48.52C409.94 48.52 409.87 48.51 409.79 48.49L358.65 36.39C358.11 36.26 357.78 35.72 357.91 35.19C358.04 34.65 358.58 34.32 359.11 34.45L410.25 46.55C410.79 46.68 411.12 47.22 410.99 47.75C410.88 48.21 410.47 48.52 410.02 48.52Z" fill="#FFE8AE"/>
<path d="M410.02 60.33C409.94 60.33 409.87 60.32 409.79 60.3L356.46 47.68C355.92 47.55 355.59 47.01 355.72 46.48C355.85 45.94 356.39 45.61 356.92 45.74L410.25 58.36C410.79 58.49 411.12 59.03 410.99 59.56C410.88 60.02 410.47 60.33 410.02 60.33Z" fill="#FFE8AE"/>
<path d="M376.33 62.5C376.25 62.5 376.18 62.49 376.1 62.47L355.54 57.61C355 57.48 354.67 56.94 354.8 56.41C354.93 55.87 355.46 55.54 356 55.67L376.56 60.53C377.1 60.66 377.43 61.2 377.3 61.73C377.19 62.19 376.78 62.5 376.33 62.5Z" fill="#FFE8AE"/>
<path d="M446.94 191.74L471.21 208.86C471.21 208.86 459.06 227.47 450.43 222.25L442.12 213.92L446.94 191.74Z" fill="#54BF8C"/>
<path d="M405.7 187.36L450.43 222.25C450.43 222.25 430.62 200.99 475.92 181.16C523.09 160.51 528.55 130.7 528.55 130.7L466.98 98.77C466.98 98.77 466.12 122.65 444.13 130.91C418.97 140.35 405.21 147.95 399.17 166.09C396.6 173.83 399.28 182.35 405.7 187.36Z" fill="#54BF8C"/>
<path d="M519.08 137.65C518.91 137.65 518.75 137.61 518.59 137.52L469.3 109.9C468.82 109.63 468.65 109.02 468.92 108.54C469.19 108.06 469.8 107.89 470.28 108.16L519.57 135.79C520.05 136.06 520.22 136.67 519.95 137.15C519.77 137.47 519.43 137.65 519.08 137.65Z" fill="#54BF8C"/>
<path d="M512.53 148.23C512.35 148.23 512.17 148.18 512.01 148.08L465.18 119.67C464.71 119.38 464.56 118.77 464.84 118.3C465.13 117.83 465.74 117.68 466.21 117.96L513.04 146.37C513.51 146.66 513.66 147.27 513.38 147.74C513.2 148.06 512.87 148.23 512.53 148.23Z" fill="#54BF8C"/>
<path d="M504.85 155.99C504.67 155.99 504.49 155.94 504.33 155.84L458.68 128.14C458.21 127.85 458.06 127.24 458.34 126.77C458.63 126.3 459.24 126.15 459.71 126.43L505.36 154.13C505.83 154.42 505.98 155.03 505.7 155.5C505.52 155.82 505.19 155.99 504.85 155.99Z" fill="#54BF8C"/>
<path d="M494.43 163.36C494.25 163.36 494.07 163.31 493.91 163.21L446.97 134.73C446.5 134.44 446.35 133.83 446.63 133.36C446.91 132.89 447.53 132.74 448 133.02L494.94 161.5C495.41 161.79 495.56 162.4 495.28 162.87C495.1 163.19 494.77 163.36 494.43 163.36Z" fill="#54BF8C"/>
<path d="M484.26 172.16C484.07 172.16 483.88 172.11 483.71 172L434.47 139.66C434.01 139.36 433.88 138.74 434.18 138.28C434.48 137.82 435.1 137.69 435.56 137.99L484.8 170.33C485.26 170.63 485.39 171.25 485.09 171.71C484.9 172 484.58 172.16 484.26 172.16Z" fill="#54BF8C"/>
<path d="M445.13 160.16C444.94 160.16 444.75 160.11 444.58 160L423.23 145.98C422.77 145.68 422.64 145.06 422.94 144.6C423.24 144.14 423.86 144.01 424.32 144.31L445.67 158.33C446.13 158.63 446.26 159.25 445.96 159.71C445.77 160 445.46 160.16 445.13 160.16Z" fill="#54BF8C"/>
<path d="M563.36 432.4H415.13C423 407.39 423 382.38 415.13 357.37H563.36C552.54 382.38 552.54 407.39 563.36 432.4Z" fill="#969CB3"/>
<path d="M469.27 387.9H525.65L503.51 390.69L469.27 387.9Z" fill="#A1A1BD"/>
<path d="M511.52 357.37H415.12C422.99 382.38 422.99 407.39 415.12 432.4H511.52C500.7 407.39 500.7 382.38 511.52 357.37Z" fill="#C8C8D4"/>
<path d="M434.32 373.45H476.61L444.98 374.85L434.32 373.45Z" fill="#969CB3"/>
<path d="M469.27 387.9L503.51 390.7C503.56 389.77 503.61 388.84 503.69 387.9H469.27Z" fill="#969CB3"/>
<path d="M423.6 387.9H460.18L434.32 389.29L423.6 387.9Z" fill="#969CB3"/>
<path d="M441.97 399.66H488.22L456.17 400.92L441.97 399.66Z" fill="#969CB3"/>
<path d="M423.6 413.75H483.6L428.26 414.8L423.6 413.75Z" fill="#969CB3"/>
<path d="M524.48 409.1C525.19 409.1 552.28 409.1 552.28 409.1C552.28 409.1 535.85 411.37 535.33 411.2C534.8 411.02 524.48 409.1 524.48 409.1Z" fill="#A1A1BD"/>
</svg>
