<svg width="494" height="463" viewBox="0 0 494 463" fill="none" xmlns="http://www.w3.org/2000/svg">
<path d="M325.44 310.59H312.54V420.86H325.44V310.59Z" fill="#80869D"/>
<path d="M327.12 328.22H310.86C309.03 328.22 307.54 326.74 307.54 324.9V315.23H330.43V324.9C330.43 326.74 328.95 328.22 327.12 328.22Z" fill="#6B6B87"/>
<path d="M223.32 312.69L213.1 310.21L222.2 262.88C224.85 249.04 235.89 239 248.45 239H283.98V250.77H248.45C240.77 250.77 234.03 256.91 232.41 265.36L223.32 312.69Z" fill="#6E7289"/>
<path d="M225.72 312.69L215.5 310.21L224.6 262.88C227.25 249.04 238.29 239 250.85 239H286.38V250.77H250.85C243.17 250.77 236.43 256.91 234.81 265.36L225.72 312.69Z" fill="#80869D"/>
<path d="M252.55 299.65L389.06 301.66L408.12 108.21L283.49 106.38C276.38 106.28 270.37 111.65 269.7 118.74L252.55 299.65Z" fill="#D8DAE1"/>
<path d="M346.63 315.92H202.55V308.13C202.55 303.11 206.62 299.04 211.64 299.04L361.17 300.03V301.38C361.16 309.38 354.62 315.92 346.63 315.92Z" fill="#969CB3"/>
<path d="M367.98 251.83C357.61 282.99 346.66 300.1 308.56 299.54C239.01 298.51 221.88 251.83 221.88 251.83H367.98Z" fill="#25253A"/>
<path d="M331.32 312.69L321.1 310.21L330.2 262.88C332.85 249.04 343.89 239 356.45 239H391.98V250.77H356.45C348.77 250.77 342.03 256.91 340.41 265.36L331.32 312.69Z" fill="#6E7289"/>
<path d="M408.12 108.21C403.42 108.21 399.48 111.78 399.03 116.46L382.05 292.84C381.66 296.92 378.23 300.03 374.14 300.03L317.71 299.74C308.58 299.74 304.8 310.08 304.8 315.91H380.35C386.48 315.91 391.61 311.24 392.18 305.13L410.41 110.71C410.54 109.38 409.48 108.21 408.12 108.21Z" fill="#969CB3"/>
<path d="M328.66 433.51H309.32V412.87C309.32 412.48 309.63 412.17 310.02 412.17H327.96C328.35 412.17 328.66 412.48 328.66 412.87V433.51Z" fill="#969CB3"/>
<path d="M323.05 462.25H314.93C314.51 462.25 314.17 461.91 314.17 461.49V448.39C314.17 447.97 314.51 447.63 314.93 447.63H323.05C323.47 447.63 323.81 447.97 323.81 448.39V461.49C323.81 461.91 323.47 462.25 323.05 462.25Z" fill="#80869D"/>
<path d="M320.68 454.87H317.3C316.93 454.87 316.61 454.6 316.54 454.24L310.01 417.54H327.97L321.44 454.24C321.37 454.6 321.05 454.87 320.68 454.87Z" fill="#969CB3"/>
<path d="M269.27 462.26C273.307 462.26 276.58 458.987 276.58 454.95C276.58 450.913 273.307 447.64 269.27 447.64C265.233 447.64 261.96 450.913 261.96 454.95C261.96 458.987 265.233 462.26 269.27 462.26Z" fill="#80869D"/>
<path d="M368.71 462.26C372.748 462.26 376.02 458.987 376.02 454.95C376.02 450.913 372.748 447.64 368.71 447.64C364.673 447.64 361.4 450.913 361.4 454.95C361.4 458.987 364.673 462.26 368.71 462.26Z" fill="#80869D"/>
<path d="M261.46 454.29L309.31 433.51V417.54L262.71 446.49C261.1 447.49 260.12 449.25 260.12 451.15V453.42C260.13 454.1 260.83 454.56 261.46 454.29Z" fill="#969CB3"/>
<path d="M376.51 454.29L328.66 433.51V417.54L375.26 446.49C376.87 447.49 377.85 449.25 377.85 451.15V453.42C377.85 454.1 377.14 454.56 376.51 454.29Z" fill="#969CB3"/>
<path d="M371.82 121.68L317.86 125.48C311.57 125.92 305.77 129.04 301.93 134.05L215.59 246.76H371.82L408.29 177.56L489.5 106.67C496.85 100.25 493.86 88.21 484.36 85.98L422.28 71.42L401.16 89.46L444.36 103.22L408.3 121.67H371.82V121.68Z" fill="#4B4BF2"/>
<path d="M286.38 239L284.47 246.76H371.82L408.29 177.56L489.5 106.67C494.26 102.51 494.68 96 491.8 91.32C495.21 99.5 442.77 138.29 410.43 164.81C405.73 168.31 408.64 156.91 410.43 149.61L386.53 190.38C370.56 216.43 343.29 233.48 312.88 236.44L286.38 239Z" fill="#5252FF"/>
<path d="M365.18 106.95L352.95 133.16C352.95 133.16 345.26 144.34 361.69 144.69C378.12 145.04 391.4 132.46 391.4 132.46L403.71 98.64L365.18 106.95Z" fill="#C09D95"/>
<path d="M398.11 102.96L398.69 99.73L365.19 106.95L360.21 117.62C375.43 121.98 394.07 112.43 398.11 102.96Z" fill="#96756E"/>
<path d="M363.43 37C363.43 37 321.73 109.59 365.41 113.36C403.22 116.62 421.8 72.82 422.26 71.42C422.73 70.02 390.34 -0.220001 363.43 37Z" fill="#C09D95"/>
<path d="M402.05 84.06C402.05 84.06 418.65 73.4 415.86 81.96C413.06 90.52 402.75 95.77 402.75 95.77L399.08 111.32C399.08 111.32 408.16 97.16 418.82 89.47C429.48 81.78 446.08 61.16 427.73 52.77C427.73 52.77 437.52 38.89 427.38 26.13C417.5 13.7 393.35 14.65 384.5 1.73002C384.27 1.39002 384.05 1.05002 383.83 0.700012C383.83 0.700012 336.01 19.84 357.9 48.46C371.65 66.45 398.72 56.27 406.59 62.22C414.46 68.16 402.05 84.06 402.05 84.06Z" fill="#001D42"/>
<path d="M357 98.5947C357 98.5947 367.487 99.7071 377 98C377 98 376.722 102.524 366.272 102.976C359.431 103.272 356.969 100.743 357 98.5947Z" fill="white"/>
<path d="M275.58 114.58H300.17C302.72 114.58 304.79 112.51 304.79 109.96V76.61C304.79 76.06 304.35 75.62 303.8 75.62H271.96C271.41 75.62 270.97 76.06 270.97 76.61V109.96C270.96 112.51 273.03 114.58 275.58 114.58Z" fill="#FF9C21"/>
<path d="M268.01 109.42H271.2V106.24H268.01C265.38 106.24 263.24 104.1 263.24 101.47V87.04C263.24 84.41 265.38 82.27 268.01 82.27H271.2V79.09H268.01C263.63 79.09 260.06 82.66 260.06 87.04V101.47C260.06 105.86 263.62 109.42 268.01 109.42Z" fill="#FF9C21"/>
<path d="M246.34 119.25C246.34 119.25 241.8 109.99 247.04 84.94C249.26 74.34 265.62 80.73 265.62 80.73C267.84 81.46 267.21 85.24 268.04 86.22C271.95 90.79 269.43 100.02 268.35 103.29C267.27 106.56 262.1 106.8 262.1 106.8L265.07 120.17L246.34 119.25Z" fill="#C09D95"/>
<path d="M247.13 164.33L241.11 114.58C241.04 114.02 241.48 113.53 242.04 113.53H268.13C268.54 113.53 268.91 113.8 269.03 114.2L283.98 164.33H247.13Z" fill="#4B4BF2"/>
<path d="M244.52 113.54H242.04C241.48 113.54 241.04 114.03 241.11 114.59L247.13 164.34H249.13C248.76 163.74 244.52 113.54 244.52 113.54Z" fill="#5252FF"/>
<path d="M197.76 205.87L60.9802 221.94C59.2502 222.14 57.9502 223.61 57.9502 225.34V246.76H202.65L197.76 205.87Z" fill="#25253A"/>
<path d="M57.9599 227.89C57.9599 227.89 51.0899 211.01 33.5199 208.58C30.1099 208.11 27.4999 211.57 28.8799 214.72L42.9299 246.76H57.9599V227.89Z" fill="#161625"/>
<path d="M236 186.53L187.61 151.41C184.04 148.82 179.15 149.04 175.83 151.95L95.1602 222.55L118.81 234.11L236 186.53Z" fill="#25253A"/>
<path d="M95.17 222.54C95.17 222.54 77.06 214.71 66.8 225.31C64.89 227.29 65.49 230.57 67.93 231.84L96.64 246.75L117.01 233.21L95.17 222.54Z" fill="#002058"/>
<path d="M332.91 315.92H322.02L332.27 262.88C334.92 249.04 345.96 239 358.52 239H398.38L397.29 250.78L358.52 250.77C350.84 250.77 344.1 256.91 342.48 265.36L332.91 315.92Z" fill="#80869D"/>
<path d="M362.72 246.76H251.72V239H370.48C370.48 243.29 367.01 246.76 362.72 246.76Z" fill="#80869D"/>
<path d="M317.96 246.76H180.19L161.11 163.1C160.64 161.04 162.2 159.09 164.31 159.09H295.35C296.88 159.09 298.21 160.15 298.55 161.64L317.96 246.76Z" fill="#B9B9D1"/>
<path d="M457.84 256.9H14.8898C12.0898 256.9 9.81982 254.63 9.81982 251.83C9.81982 249.03 12.0898 246.76 14.8898 246.76H457.84C460.64 246.76 462.91 249.03 462.91 251.83C462.91 254.63 460.64 256.9 457.84 256.9Z" fill="#6B6B87"/>
<path d="M180.19 246.76H317.96L298.54 161.64C298.2 160.15 296.87 159.09 295.34 159.09H291.3C290.16 185.13 294.78 242.88 179.07 241.87L180.19 246.76Z" fill="#969CB3"/>
<path d="M138.57 462.25C137.31 462.25 136.24 461.35 136 460.12L97.1602 256.9H110.22L141.16 459.23C141.4 460.82 140.18 462.25 138.57 462.25Z" fill="#ADADCB"/>
<path d="M3.19003 462.25C4.45003 462.25 5.52002 461.35 5.76002 460.12L44.6 256.9H31.54L0.600036 459.22C0.360036 460.82 1.58003 462.25 3.19003 462.25Z" fill="#ADADCB"/>
<path d="M469.55 462.25C468.29 462.25 467.22 461.35 466.98 460.12L428.13 256.9H441.19L472.13 459.23C472.38 460.82 471.15 462.25 469.55 462.25Z" fill="#ADADCB"/>
<path d="M334.16 462.25C335.42 462.25 336.49 461.35 336.73 460.12L375.57 256.9H362.51L331.57 459.23C331.33 460.82 332.56 462.25 334.16 462.25Z" fill="#ADADCB"/>
<path d="M165.58 246.76H53.0898C59.0598 227.78 59.0598 208.8 53.0898 189.82H165.58C157.37 208.8 157.37 227.78 165.58 246.76Z" fill="#D8DAE1"/>
<path d="M94.1797 212.99H136.97L120.16 215.11L94.1797 212.99Z" fill="#C8C8D4"/>
<path d="M126.24 189.82H53.0898C59.0598 208.8 59.0598 227.78 53.0898 246.76H126.24C118.03 227.78 118.03 208.8 126.24 189.82Z" fill="#E9EBEF"/>
<path d="M67.6499 202.02H99.7499L75.7399 203.08L67.6499 202.02Z" fill="#D8DAE1"/>
<path d="M94.1797 212.99L120.17 215.11C120.2 214.4 120.25 213.7 120.3 212.99H94.1797Z" fill="#D8DAE1"/>
<path d="M59.52 212.99H87.28L67.65 214.05L59.52 212.99Z" fill="#D8DAE1"/>
<path d="M73.46 221.92H108.56L84.24 222.87L73.46 221.92Z" fill="#D8DAE1"/>
<path d="M59.52 232.6H105.05L63.05 233.4L59.52 232.6Z" fill="#D8DAE1"/>
<path d="M136.08 229.08C136.62 229.08 157.17 229.08 157.17 229.08C157.17 229.08 144.7 230.8 144.31 230.67C143.91 230.54 136.08 229.08 136.08 229.08Z" fill="#C8C8D4"/>
<path d="M457.9 246.76H345.41C351.38 227.78 351.38 208.8 345.41 189.82H457.9C449.69 208.8 449.69 227.78 457.9 246.76Z" fill="#D8DAE1"/>
<path d="M386.49 212.99H429.29L412.48 215.11L386.49 212.99Z" fill="#C8C8D4"/>
<path d="M418.56 189.82H345.41C351.38 208.8 351.38 227.78 345.41 246.76H418.56C410.35 227.78 410.35 208.8 418.56 189.82Z" fill="#E9EBEF"/>
<path d="M359.97 202.02H392.06L368.06 203.08L359.97 202.02Z" fill="#D8DAE1"/>
<path d="M386.49 212.99L412.48 215.11C412.51 214.4 412.56 213.7 412.61 212.99H386.49Z" fill="#D8DAE1"/>
<path d="M351.84 212.99H379.6L359.97 214.05L351.84 212.99Z" fill="#D8DAE1"/>
<path d="M365.78 221.92H400.88L376.56 222.87L365.78 221.92Z" fill="#D8DAE1"/>
<path d="M351.84 232.6H397.37L355.37 233.4L351.84 232.6Z" fill="#D8DAE1"/>
<path d="M428.39 229.08C428.93 229.08 449.48 229.08 449.48 229.08C449.48 229.08 437.01 230.8 436.62 230.67C436.23 230.54 428.39 229.08 428.39 229.08Z" fill="#C8C8D4"/>
</svg>
