<svg width="56" height="55" viewBox="0 0 56 55" fill="none" xmlns="http://www.w3.org/2000/svg">
<path d="M0 0H56V55H0V0Z" fill="white" fill-opacity="0.01"/>
<path d="M17.8941 51.923C17.6011 51.1706 17.0931 50.5254 16.4381 50.0704C15.7831 49.6155 15.0091 49.3716 14.2171 49.3701H11.9221C10.3951 49.4395 8.8691 49.1917 7.4381 48.6416C6.0071 48.0916 4.70009 47.2507 3.59509 46.1698C2.49009 45.0888 1.61109 43.7901 1.01009 42.352C0.409086 40.914 0.100098 39.3664 0.100098 37.8026C0.100098 36.2388 0.409086 34.6912 1.01009 33.2531C1.61109 31.8151 2.49009 30.5164 3.59509 29.4354C4.70009 28.3544 6.0071 27.5136 7.4381 26.9635C8.8691 26.4135 10.3951 26.1657 11.9221 26.235H27.5881C29.1151 26.1657 30.6401 26.4135 32.0721 26.9635C33.5031 27.5136 34.8101 28.3544 35.9151 29.4354C37.0201 30.5164 37.8991 31.8151 38.5001 33.2531C39.1011 34.6912 39.4101 36.2388 39.4101 37.8026C39.4101 39.3664 39.1011 40.914 38.5001 42.352C37.8991 43.7901 37.0201 45.0888 35.9151 46.1698C34.8101 47.2507 33.5031 48.0916 32.0721 48.6416C30.6401 49.1917 29.1151 49.4395 27.5881 49.3701H22.0611C21.2691 49.3716 20.4961 49.6155 19.8411 50.0704C19.1851 50.5254 18.6781 51.1706 18.3841 51.923L18.1391 52.584L17.8941 51.923Z" fill="url(#paint0_linear)"/>
<g opacity="0.15">
<path opacity="0.15" d="M27.5881 26.2349H17.5601C18.5431 28.0369 19.9781 29.5381 21.7171 30.5839C23.4561 31.6296 25.4371 32.1819 27.4541 32.1839H36.7021C36.9791 32.1792 37.2561 32.2098 37.5261 32.2751C36.5551 30.4461 35.1191 28.9194 33.3701 27.8563C31.6201 26.7931 29.6231 26.2329 27.5881 26.2349Z" fill="#091E42"/>
<path opacity="0.15" d="M27.5881 26.2349H17.5601C18.5431 28.0369 19.9781 29.5381 21.7171 30.5839C23.4561 31.6296 25.4371 32.1819 27.4541 32.1839H36.7021C36.9791 32.1792 37.2561 32.2098 37.5261 32.2751C36.5551 30.4461 35.1191 28.9194 33.3701 27.8563C31.6201 26.7931 29.6231 26.2329 27.5881 26.2349Z" fill="#091E42"/>
</g>
<path opacity="0.4" d="M14.4851 8.13733C14.5641 7.94563 14.6981 7.78253 14.8691 7.66883C15.0391 7.55523 15.2391 7.49613 15.4431 7.49913H16.8911C17.3711 7.49023 17.8451 7.38473 18.2851 7.18853C18.7251 6.99243 19.1231 6.70953 19.4561 6.35603C19.7891 6.00263 20.0511 5.58543 20.2271 5.12843C20.4021 4.67143 20.4881 4.18353 20.4791 3.69263C20.4731 2.72903 20.1001 1.80583 19.4381 1.12023C18.7761 0.434531 17.8781 0.0407311 16.9361 0.0229311H13.8611C12.9361 0.0079311 12.0401 0.35233 11.3531 0.98663C10.6671 1.62093 10.2411 2.49793 10.1621 3.44063C10.0821 4.38343 10.3561 5.32183 10.9261 6.06653C11.4971 6.81133 12.3231 7.30693 13.2371 7.45353C13.3851 7.48263 13.5281 7.53653 13.6601 7.61303L13.7271 7.68143C13.9001 7.79523 14.0331 7.96303 14.1061 8.16013L14.2841 8.66153L14.4851 8.13733Z" fill="url(#paint1_linear)"/>
<path d="M31.5099 34.8965H8.84692V35.6828H31.5099V34.8965Z" fill="white"/>
<path d="M31.5099 37.7681H8.84692V38.5545H31.5099V37.7681Z" fill="white"/>
<path d="M20.2559 40.6401H8.84692V41.4264H20.2559V40.6401Z" fill="white"/>
<path d="M49.1591 44.2641C52.6661 44.2641 55.5101 41.3558 55.5101 37.7681C55.5101 34.1804 52.6661 31.272 49.1591 31.272C45.6511 31.272 42.8081 34.1804 42.8081 37.7681C42.8081 41.3558 45.6511 44.2641 49.1591 44.2641Z" fill="#FFC400"/>
<path d="M49.6269 31.2951C47.9489 31.1696 46.2899 31.7303 45.0159 32.8543C43.7419 33.9782 42.9549 35.5734 42.8299 37.2897C42.7999 37.746 42.8149 38.2041 42.8749 38.6573C44.6069 38.2966 46.1869 37.3945 47.3959 36.0757C48.6059 34.7569 49.3849 33.0864 49.6269 31.2951Z" fill="#FFAB00"/>
<path d="M46.596 36.5375C46.965 36.5375 47.265 36.2313 47.265 35.8537C47.265 35.476 46.965 35.1699 46.596 35.1699C46.227 35.1699 45.928 35.476 45.928 35.8537C45.928 36.2313 46.227 36.5375 46.596 36.5375Z" fill="#FF8B00"/>
<path d="M52.39 38.4291C52.759 38.4291 53.058 38.123 53.058 37.7453C53.058 37.3677 52.759 37.0615 52.39 37.0615C52.021 37.0615 51.7209 37.3677 51.7209 37.7453C51.7209 38.123 52.021 38.4291 52.39 38.4291Z" fill="#FF8B00"/>
<path d="M45.8159 38.1558C46.0439 38.6703 46.3699 39.1336 46.7739 39.519C47.1779 39.9044 47.6529 40.2042 48.1699 40.4012C48.6879 40.5983 49.2389 40.6886 49.7909 40.667C50.3429 40.6454 50.8859 40.5124 51.3869 40.2755L51.5649 40.1844L45.8159 38.1558Z" fill="#FF991F"/>
<path d="M10.83 28.993C11.433 28.993 11.922 28.493 11.922 27.8761C11.922 27.2593 11.433 26.7593 10.83 26.7593C10.227 26.7593 9.73804 27.2593 9.73804 27.8761C9.73804 28.493 10.227 28.993 10.83 28.993Z" fill="#0065FF"/>
<path d="M15.5541 14.4053C15.1961 13.0051 14.4771 11.7292 13.4711 10.7112C12.4651 9.69328 11.2101 8.97068 9.83809 8.61938C8.46509 8.26798 7.0251 8.30068 5.6691 8.71398C4.3131 9.12738 3.09109 9.90618 2.13109 10.9688C1.17009 12.0314 0.506097 13.3387 0.210097 14.7537C-0.0869034 16.1688 -0.00691691 17.6395 0.443083 19.0117C0.893083 20.3838 1.6951 21.607 2.7661 22.5531C3.8371 23.4991 5.1371 24.1331 6.5291 24.3887C7.0641 24.4843 7.56009 24.7349 7.95909 25.1107C8.35809 25.4865 8.64309 25.9717 8.78009 26.5085C8.79009 26.5571 8.81009 26.6031 8.83909 26.6436C8.86709 26.6841 8.9031 26.7182 8.9451 26.7438C8.9871 26.7695 9.03309 26.7861 9.08209 26.7926C9.13009 26.7992 9.17909 26.7956 9.22609 26.782H9.24809L11.6551 26.1438C11.7511 26.1124 11.8331 26.0469 11.8861 25.9592C11.9391 25.8714 11.9601 25.7671 11.9441 25.6651C11.8021 25.1295 11.8171 24.5629 11.9871 24.036C12.1581 23.5091 12.4761 23.0451 12.9031 22.702C14.0741 21.7231 14.9461 20.4212 15.4161 18.9507C15.8861 17.4803 15.9341 15.9028 15.5541 14.4053Z" fill="url(#paint2_linear)"/>
<path d="M11.674 26.1146L9.25904 26.7581C9.05604 26.8121 8.93504 27.0237 8.98804 27.2308L9.25203 28.2697C9.30503 28.4768 9.51204 28.6009 9.71404 28.547L12.13 27.9035C12.332 27.8495 12.454 27.6379 12.401 27.4308L12.136 26.3919C12.084 26.1849 11.877 26.0607 11.674 26.1146Z" fill="white"/>
<path d="M9.20293 26.7822L7.50992 20.1038L6.81893 20.2862C6.57493 20.3508 6.31892 20.3398 6.08092 20.2548C5.84292 20.1698 5.63593 20.0145 5.48493 19.8087C5.33393 19.6028 5.24592 19.3557 5.23192 19.0986C5.21792 18.8415 5.27993 18.5862 5.40793 18.3648C5.53693 18.1435 5.72692 17.9663 5.95392 17.8556C6.18092 17.7449 6.43593 17.7057 6.68493 17.743C6.93393 17.7804 7.16592 17.8926 7.35292 18.0653C7.53892 18.2381 7.67193 18.4637 7.73293 18.7135L7.91092 19.42L9.20293 19.0553L9.02492 18.3716C8.96992 18.203 8.94893 18.0247 8.96393 17.8476C8.97893 17.6705 9.02993 17.4985 9.11193 17.3421C9.19493 17.1857 9.30793 17.0483 9.44393 16.9384C9.58093 16.8284 9.73793 16.7483 9.90593 16.703C10.0739 16.6577 10.2489 16.6482 10.4209 16.6749C10.5929 16.7017 10.7569 16.7642 10.9049 16.8587C11.0519 16.9531 11.1789 17.0774 11.2769 17.224C11.3749 17.3705 11.4429 17.5361 11.4759 17.7105C11.5579 18.0399 11.5109 18.3889 11.3439 18.6829C11.1779 18.9769 10.9049 19.1924 10.5849 19.2833L9.89392 19.4656L11.5879 26.144L11.0529 26.3036L9.33693 19.6252L8.04493 19.9671L9.76093 26.6455L9.20293 26.7822ZM6.50693 18.3032H6.32892C6.14292 18.3515 5.98292 18.4736 5.88492 18.6424C5.78592 18.8112 5.75792 19.0131 5.80492 19.2035C5.85192 19.3939 5.97192 19.5573 6.13692 19.6578C6.30192 19.7582 6.49893 19.7875 6.68493 19.7391L7.37593 19.5568L7.19793 18.8502C7.15493 18.6955 7.06492 18.5588 6.94092 18.4604C6.81592 18.3619 6.66393 18.3068 6.50693 18.3032ZM10.2509 17.3003H10.0729C9.89193 17.3536 9.73892 17.4754 9.64392 17.6407C9.54792 17.8059 9.51793 18.0021 9.55993 18.1892L9.73793 18.8958L10.4289 18.7135C10.5199 18.6895 10.6049 18.6476 10.6799 18.59C10.7549 18.5323 10.8179 18.4602 10.8649 18.3776C10.9129 18.2951 10.9439 18.2037 10.9569 18.1088C10.9699 18.0139 10.9649 17.9173 10.9419 17.8245C10.8949 17.674 10.8029 17.5424 10.6789 17.4483C10.5549 17.3542 10.4049 17.3024 10.2509 17.3003Z" fill="#FFE380"/>
<path d="M41.783 32.5031C41.509 31.789 41.03 31.1762 40.41 30.7451C39.79 30.314 39.057 30.0846 38.307 30.0871H29.059C26.056 30.0871 23.177 28.8671 21.054 26.6957C18.931 24.5242 17.738 21.579 17.738 18.5081C17.738 15.4372 18.931 12.492 21.054 10.3206C23.177 8.1491 26.056 6.9292 29.059 6.9292H44.658C47.569 6.9408 50.364 8.0996 52.462 10.1645C54.56 12.2295 55.8 15.042 55.923 18.0175C56.047 20.9929 55.044 23.9026 53.125 26.1419C51.205 28.3811 48.516 29.7777 45.616 30.0415C44.97 30.09 44.348 30.31 43.811 30.6797L43.744 30.7253C43.113 31.1611 42.624 31.7804 42.34 32.5031L42.073 33.2097L41.783 32.5031Z" fill="url(#paint3_linear)"/>
<path d="M47.4429 15.2715H26.2729V16.2174H47.4429V15.2715Z" fill="#4C9AFF"/>
<path d="M47.4429 18.4854H26.2729V19.4313H47.4429V18.4854Z" fill="#4C9AFF"/>
<path d="M40.602 21.6992H26.2729V22.6451H40.602V21.6992Z" fill="#4C9AFF"/>
<path d="M39.5989 54.2478L39.4209 54.1794L39.6879 53.4956L39.8659 53.564L39.5989 54.2478Z" fill="#0065FF"/>
<path d="M38.396 53.7691L38.217 53.7007L38.485 52.9941L38.663 53.0625L38.396 53.7691Z" fill="#0065FF"/>
<path d="M39.0339 53.2036L38.7649 53.9035L39.0049 54.0004L39.2749 53.3005L39.0339 53.2036Z" fill="#0065FF"/>
<path d="M39.7771 53.5866C40.5351 53.0624 41.3151 52.994 42.1841 52.7888C43.1011 52.5482 43.9201 52.0163 44.5241 51.2696C45.1271 50.5229 45.4831 49.5998 45.5421 48.633C45.6001 47.6661 45.3571 46.7052 44.8481 45.8883C44.3391 45.0715 43.5901 44.4407 42.7081 44.0866C41.8271 43.7325 40.8581 43.6733 39.9421 43.9176C39.0251 44.1619 38.2081 44.697 37.6081 45.4461C37.0071 46.1952 36.6541 47.1197 36.5991 48.0868C36.5451 49.0539 36.7911 50.0138 37.3041 50.8286C37.7941 51.5808 38.3291 52.1734 38.5071 53.0852H38.5291L39.7551 53.5866H39.7771Z" fill="url(#paint4_linear)"/>
<path d="M39.5991 53.5186C40.1111 52.8804 40.6021 52.6981 41.1591 52.3562C42.0501 51.8091 42.8971 50.6011 43.4091 49.2335C44.2791 46.863 43.9221 44.5381 42.6301 44.0367C41.3371 43.5352 39.5991 45.0851 38.7301 47.4556C38.2401 48.8232 38.1061 50.3048 38.4401 51.3077C38.6411 51.9459 38.8861 52.4245 38.8861 53.2451L39.5771 53.4958L39.5991 53.5186Z" fill="#B2D4FF"/>
<path d="M39.621 54.1793C39.621 54.1337 39.599 54.1109 39.554 54.0881L38.351 53.6094H38.24C38.218 53.6189 38.2 53.635 38.188 53.6554C38.176 53.6758 38.171 53.6996 38.173 53.7234L38.106 54.5439C38.107 54.5729 38.116 54.6009 38.132 54.625C38.148 54.6491 38.17 54.6683 38.195 54.6807L38.953 54.977H38.9969C39.0419 54.977 39.064 54.9542 39.086 54.9086L39.599 54.2704C39.644 54.2704 39.644 54.2248 39.621 54.1793Z" fill="#0065FF"/>
<defs>
<linearGradient id="paint0_linear" x1="2.4851" y1="55.4696" x2="32.1681" y2="26.4497" gradientUnits="userSpaceOnUse">
<stop offset="0.16" stop-color="#00C7E5"/>
<stop offset="0.28" stop-color="#20CFEA"/>
<stop offset="0.53" stop-color="#5FDFF3"/>
<stop offset="0.74" stop-color="#8CEBF9"/>
<stop offset="0.91" stop-color="#A9F2FD"/>
<stop offset="1" stop-color="#B3F5FF"/>
</linearGradient>
<linearGradient id="paint1_linear" x1="9.98508" y1="9.21313" x2="18.5191" y2="0.869829" gradientUnits="userSpaceOnUse">
<stop offset="0.27" stop-color="#B2D4FF"/>
<stop offset="0.48" stop-color="#B7D7FF"/>
<stop offset="0.73" stop-color="#C7DFFF"/>
<stop offset="1" stop-color="#DEEBFF"/>
</linearGradient>
<linearGradient id="paint2_linear" x1="2.85209" y1="22.6952" x2="14.2801" y2="11.5225" gradientUnits="userSpaceOnUse">
<stop offset="0.27" stop-color="#FFAB00"/>
<stop offset="0.38" stop-color="#FFAD05"/>
<stop offset="0.51" stop-color="#FFB415"/>
<stop offset="0.66" stop-color="#FFBF2E"/>
<stop offset="0.83" stop-color="#FFCE51"/>
<stop offset="0.99" stop-color="#FFE27E"/>
<stop offset="1" stop-color="#FFE380"/>
</linearGradient>
<linearGradient id="paint3_linear" x1="24.961" y1="30.6865" x2="49.313" y2="6.8798" gradientUnits="userSpaceOnUse">
<stop offset="0.16" stop-color="#0052CC"/>
<stop offset="0.25" stop-color="#0059E0"/>
<stop offset="0.36" stop-color="#0060F1"/>
<stop offset="0.48" stop-color="#0064FC"/>
<stop offset="0.62" stop-color="#0065FF"/>
<stop offset="0.67" stop-color="#0568FF"/>
<stop offset="0.72" stop-color="#1572FF"/>
<stop offset="0.79" stop-color="#2E82FF"/>
<stop offset="0.86" stop-color="#5198FF"/>
<stop offset="0.93" stop-color="#7EB4FF"/>
<stop offset="1" stop-color="#B2D4FF"/>
</linearGradient>
<linearGradient id="paint4_linear" x1="32.3451" y1="57.2768" x2="44.7481" y2="45.1507" gradientUnits="userSpaceOnUse">
<stop offset="0.34" stop-color="#0065FF"/>
<stop offset="0.42" stop-color="#0568FF"/>
<stop offset="0.52" stop-color="#1572FF"/>
<stop offset="0.64" stop-color="#2E82FF"/>
<stop offset="0.75" stop-color="#5198FF"/>
<stop offset="0.88" stop-color="#7EB4FF"/>
<stop offset="1" stop-color="#B2D4FF"/>
</linearGradient>
</defs>
</svg>
